<?xml version="1.0" encoding="utf-8"?>
<svg viewBox="0 0 750.469 326.344" xmlns="http://www.w3.org/2000/svg">
  <defs>
    <linearGradient id="a" x1="114.539" x2="114.539" y1="98.692" y2="318" gradientUnits="userSpaceOnUse">
      <stop stop-color="#FFCB46"/>
      <stop offset="1" stop-color="#f90"/>
    </linearGradient>
    <linearGradient id="b" x1="114.538" x2="114.538" y2="142.551" gradientUnits="userSpaceOnUse">
      <stop stop-color="#FF5761"/>
      <stop offset="1" stop-color="#FF0C1B"/>
    </linearGradient>
  </defs>
  <path fill="url(#a)" fill-rule="evenodd" d="M201.5 103.7c-10.95 29.67-36.5 52.2-67.88 58.8l-6.4 40.57c-.95 5.95-6.08 10.34-12.1 10.34-6.03 0-11.16-4.38-12.1-10.33l-6.37-40.32c-31.92-6.27-57.98-29-69.07-59.05C11.25 111.7 0 128.5 0 147.93v120.83C0 295.96 22.04 318 49.24 318h130.6c27.2 0 49.24-22.05 49.24-49.24V147.93c0-19.42-11.25-36.22-27.58-44.23z" clip-rule="evenodd"/>
  <path d="M185.44 71.28c0 39.36-31.74 71.27-70.9 71.27-39.16 0-70.9-31.9-70.9-71.27S75.37 0 114.53 0c39.16 0 70.9 31.9 70.9 71.28z" fill="url(#b)"/>
  <path d="M 344.143 142.953 L 344.143 51.813 L 367.333 51.813 C 380.393 51.813 389.073 54.003 393.373 58.383 C 397.673 62.763 399.823 68.053 399.823 74.253 C 399.823 78.386 398.913 82.293 397.093 85.973 C 395.273 89.653 392.38 92.403 388.413 94.223 C 394.28 95.71 398.6 98.313 401.373 102.033 C 404.14 105.753 405.523 110.133 405.523 115.173 C 405.523 120.466 404.696 125.096 403.043 129.063 C 401.39 133.03 397.96 136.336 392.753 138.983 C 387.546 141.63 380.023 142.953 370.183 142.953 L 344.143 142.953 Z M 357.783 90.503 L 369.563 90.503 C 375.436 90.503 379.613 89.076 382.093 86.223 C 384.573 83.37 385.813 79.753 385.813 75.373 C 385.813 67.52 380.19 63.593 368.943 63.593 L 357.783 63.593 L 357.783 90.503 Z M 357.783 131.293 L 372.043 131.293 C 379.57 131.293 384.633 129.786 387.233 126.773 C 389.84 123.753 391.143 119.93 391.143 115.303 C 391.143 110.923 389.653 107.533 386.673 105.133 C 383.7 102.733 379.196 101.533 373.163 101.533 L 357.783 101.533 L 357.783 131.293 ZM 420.167 142.953 L 420.167 51.813 L 434.057 51.813 L 434.057 142.953 L 420.167 142.953 ZM 469.169 142.953 L 469.169 63.963 L 445.859 63.963 L 445.859 51.813 L 506.499 51.813 L 506.499 63.963 L 482.939 63.963 L 482.939 142.953 L 469.169 142.953 ZM 533.916 144.193 C 528.956 144.193 524.036 143.326 519.156 141.593 C 514.283 139.853 510.77 137.91 508.616 135.763 L 515.186 123.983 C 516.926 125.55 519.636 127.183 523.316 128.883 C 526.99 130.576 530.523 131.423 533.916 131.423 C 538.296 131.423 541.87 130.39 544.636 128.323 C 547.41 126.256 548.796 123.403 548.796 119.763 C 548.796 116.956 548.053 114.52 546.566 112.453 C 545.073 110.386 543.253 108.67 541.106 107.303 C 538.96 105.936 535.9 104.263 531.926 102.283 C 527.22 99.97 523.996 98.233 522.256 97.073 C 514.236 91.7 510.226 84.26 510.226 74.753 C 510.226 66.9 512.833 60.886 518.046 56.713 C 523.253 52.54 529.823 50.453 537.756 50.453 C 546.27 50.453 553.503 52.89 559.456 57.763 L 552.886 69.053 C 551.313 67.4 549.103 65.973 546.256 64.773 C 543.403 63.573 540.363 62.973 537.136 62.973 C 533.003 62.973 529.76 63.903 527.406 65.763 C 525.046 67.623 523.866 70.373 523.866 74.013 C 523.866 76.573 524.613 78.866 526.106 80.893 C 527.593 82.92 529.473 84.676 531.746 86.163 C 534.02 87.65 537.1 89.466 540.986 91.613 C 544.706 93.68 547.556 95.313 549.536 96.513 C 551.523 97.713 553.383 99.14 555.116 100.793 C 557.516 102.94 559.46 105.503 560.946 108.483 C 562.433 111.456 563.176 114.72 563.176 118.273 C 563.176 123.813 561.916 128.526 559.396 132.413 C 556.876 136.3 553.403 139.233 548.976 141.213 C 544.556 143.2 539.536 144.193 533.916 144.193 Z" transform="matrix(1, 0, 0, 1, -32.90736770629883, 37.861053466796875)" style="fill: rgb(255, 46, 46); white-space: pre;"/>
  <path d="M 329.118 274.348 L 324.168 290.098 L 299.718 290.098 L 334.518 196.048 L 358.668 196.048 L 392.568 290.098 L 368.268 290.098 L 363.318 274.348 L 329.118 274.348 Z M 346.068 219.148 C 345.268 221.948 344.391 224.925 343.438 228.078 C 342.491 231.225 340.918 236.348 338.718 243.448 L 334.818 255.898 L 357.468 255.898 L 353.568 243.448 C 352.268 239.648 350.968 235.625 349.668 231.378 C 348.368 227.125 347.168 223.048 346.068 219.148 ZM 423.858 238.348 L 423.858 290.098 L 401.358 290.098 L 401.358 215.998 L 422.358 215.998 L 423.108 221.698 L 423.408 221.698 C 427.008 219.498 430.682 217.825 434.428 216.678 C 438.182 215.525 441.708 214.948 445.008 214.948 L 446.208 214.948 L 446.208 236.698 C 445.308 236.498 444.335 236.375 443.288 236.328 C 442.235 236.275 440.908 236.248 439.308 236.248 C 436.408 236.248 433.658 236.425 431.058 236.778 C 428.458 237.125 426.058 237.648 423.858 238.348 ZM 510.653 267.448 L 510.653 286.048 C 508.253 287.548 504.353 288.848 498.953 289.948 C 493.553 291.048 488.003 291.598 482.303 291.598 C 471.503 291.598 463.926 288.721 459.573 282.968 C 455.226 277.221 453.053 267.248 453.053 253.048 C 453.053 238.848 455.853 228.875 461.453 223.128 C 467.053 217.375 476.853 214.498 490.853 214.498 C 494.253 214.498 497.303 214.571 500.003 214.718 C 502.703 214.871 505.603 215.148 508.703 215.548 L 508.703 235.498 C 503.803 235.098 500.253 234.875 498.053 234.828 C 495.853 234.775 493.453 234.748 490.853 234.748 C 483.953 234.748 479.68 235.725 478.033 237.678 C 476.38 239.625 475.553 244.748 475.553 253.048 C 475.553 260.548 476.23 265.348 477.583 267.448 C 478.93 269.548 482.053 270.598 486.953 270.598 C 490.953 270.598 495.126 270.298 499.473 269.698 C 503.826 269.098 507.553 268.348 510.653 267.448 ZM 540.446 291.598 C 532.846 291.598 527.27 289.698 523.716 285.898 C 520.17 282.098 518.396 276.098 518.396 267.898 C 518.396 259.498 520.523 253.598 524.776 250.198 C 529.023 246.798 536.346 245.098 546.746 245.098 C 549.146 245.098 551.62 245.221 554.166 245.468 C 556.72 245.721 558.946 246.048 560.846 246.448 L 560.846 241.048 C 560.846 238.648 559.82 236.871 557.766 235.718 C 555.72 234.571 552.596 233.998 548.396 233.998 C 543.596 233.998 539.32 234.121 535.566 234.368 C 531.82 234.621 528.396 235.048 525.296 235.648 L 525.296 217.198 C 528.996 216.298 533.296 215.625 538.196 215.178 C 543.096 214.725 548.796 214.498 555.296 214.498 C 564.496 214.498 571.47 216.548 576.216 220.648 C 580.97 224.748 583.346 230.798 583.346 238.798 L 583.346 290.098 L 562.346 290.098 L 561.596 283.798 L 561.146 283.798 C 558.046 286.198 554.646 288.098 550.946 289.498 C 547.246 290.898 543.746 291.598 540.446 291.598 Z M 549.746 259.948 C 545.746 259.948 543.046 260.371 541.646 261.218 C 540.246 262.071 539.546 263.848 539.546 266.548 C 539.546 269.048 540.12 270.771 541.266 271.718 C 542.42 272.671 544.446 273.148 547.346 273.148 C 549.546 273.148 551.846 272.848 554.246 272.248 C 556.646 271.648 558.846 270.898 560.846 269.998 L 560.846 260.848 C 559.646 260.548 558.146 260.325 556.346 260.178 C 554.546 260.025 552.346 259.948 549.746 259.948 ZM 644.189 216.448 L 644.189 190.348 L 666.689 190.348 L 666.689 290.098 L 646.739 290.098 L 645.539 283.198 L 645.089 283.198 C 642.389 285.998 639.189 288.098 635.489 289.498 C 631.789 290.898 627.589 291.598 622.889 291.598 C 613.089 291.598 606.112 288.648 601.959 282.748 C 597.812 276.848 595.739 266.948 595.739 253.048 C 595.739 239.548 598.365 229.748 603.619 223.648 C 608.865 217.548 617.389 214.498 629.189 214.498 C 632.089 214.498 634.815 214.671 637.369 215.018 C 639.915 215.371 642.189 215.848 644.189 216.448 Z M 632.339 234.748 C 626.339 234.748 622.489 235.871 620.789 238.118 C 619.089 240.371 618.239 245.348 618.239 253.048 C 618.239 260.348 618.989 265.125 620.489 267.378 C 621.989 269.625 625.489 270.748 630.989 270.748 C 633.589 270.748 636.012 270.548 638.259 270.148 C 640.512 269.748 642.489 269.148 644.189 268.348 L 644.189 236.698 C 642.689 235.998 640.962 235.498 639.009 235.198 C 637.062 234.898 634.839 234.748 632.339 234.748 ZM 743.43 268.198 L 743.43 286.048 C 741.03 287.548 736.98 288.848 731.28 289.948 C 725.58 291.048 719.58 291.598 713.28 291.598 C 701.28 291.598 692.63 288.575 687.33 282.528 C 682.03 276.475 679.38 266.648 679.38 253.048 C 679.38 239.748 682.18 229.998 687.78 223.798 C 693.38 217.598 702.23 214.498 714.33 214.498 C 726.13 214.498 734.454 216.821 739.3 221.468 C 744.154 226.121 746.58 234.348 746.58 246.148 C 746.58 249.348 746.53 251.898 746.43 253.798 C 746.33 255.698 746.13 257.898 745.83 260.398 L 702.03 260.398 C 702.13 264.498 703.23 267.348 705.33 268.948 C 707.43 270.548 711.28 271.348 716.88 271.348 C 721.68 271.348 726.58 271.025 731.58 270.378 C 736.58 269.725 740.53 268.998 743.43 268.198 Z M 714.33 233.698 C 709.53 233.698 706.28 234.525 704.58 236.178 C 702.88 237.825 702.03 241.048 702.03 245.848 L 726.18 245.848 L 726.18 242.548 C 726.08 239.048 725.254 236.698 723.7 235.498 C 722.154 234.298 719.03 233.698 714.33 233.698 Z" transform="matrix(1, 0, 0, 1, 0, 0)" style="fill: rgb(255, 255, 255); white-space: pre;"/>
</svg>