<?xml version="1.0" encoding="utf-8"?>
<svg xmlns="http://www.w3.org/2000/svg" xmlns:xlink="http://www.w3.org/1999/xlink" style="margin: auto; display: block; z-index: 1; position: relative; shape-rendering: auto;" width="493" height="115" preserveAspectRatio="xMidYMid" viewBox="0 0 493 115">
<g transform="translate(246.5,57.5) scale(1,1) translate(-246.5,-57.5)"><defs>
  <linearGradient id="ldbk-photon-h0tuqzl8ez-lg" x1="0" x2="0" y1="-25" y2="115" gradientUnits="userSpaceOnUse">
    <stop stop-color="#14524e" offset="0"></stop>
    <stop stop-color="#107f78" offset="1"></stop>
  </linearGradient>
  <mask id="ldbk-photon-h0tuqzl8ez-mask">
  <g><path d="M-0.5 415 L-0.5 -23.05940021514772 A5.5 5.5 0 0 0 11.5 -23.05940021514772 L11.5 415" fill="#fff">
  <animateTransform attributeName="transform" type="translate" dur="2.7777777777777772s" repeatCount="indefinite" keyTimes="0;0.5;1" calcMode="spline" keySplines="0.5 0 0.5 1;0.5 0 0.5 1" values="0 0;0 0;0 0" begin="0s"></animateTransform>
</path><path d="M-0.5 142.70531459030633 L-0.5 159.41062918061266 A5.5 5.5 0 0 0 11.5 159.41062918061266 L11.5 142.70531459030633 A5.5 5.5 0 0 0 -0.5 142.70531459030633" fill="#000">
  <animateTransform attributeName="transform" type="translate" dur="2.7777777777777772s" repeatCount="indefinite" keyTimes="0;1" values="0 0;0 -244.1516703011771" begin="0s"></animateTransform>
  <animate attributeName="opacity" dur="2.7777777777777772s" repeatCount="indefinite" keyTimes="0;0.3;1" values="1;1;0" begin="0s"></animate>
</path><path d="M10.5 415 L10.5 -65.14745842773186 A5.5 5.5 0 0 1 22.5 -65.14745842773186 L22.5 415" fill="#fff">
  <animateTransform attributeName="transform" type="translate" dur="1.8518518518518514s" repeatCount="indefinite" keyTimes="0;0.5;1" calcMode="spline" keySplines="0.5 0 0.5 1;0.5 0 0.5 1" values="0 0;0 0;0 0" begin="-0.3703703703703703s"></animateTransform>
</path><path d="M10.5 -54.14745842773186 L10.5 -35.72114465873497 A5.5 5.5 0 0 0 22.5 -35.72114465873497 L22.5 -54.14745842773186 A5.5 5.5 0 0 0 10.5 -54.14745842773186" fill="#fff">
  <animateTransform attributeName="transform" type="translate" dur="1.8518518518518514s" repeatCount="indefinite" keyTimes="0;1" values="0;0" begin="-0.3703703703703703s"></animateTransform>
  <animate attributeName="opacity" dur="1.8518518518518514s" repeatCount="indefinite" keyTimes="0;0.3;1" values="1;1;0" begin="-0.3703703703703703s"></animate>
</path><path d="M21.5 415 L21.5 -5.706209706521491 A5.5 5.5 0 0 0 33.5 -5.706209706521491 L33.5 415" fill="#fff">
  <animateTransform attributeName="transform" type="translate" dur="1.8518518518518514s" repeatCount="indefinite" keyTimes="0;0.5;1" calcMode="spline" keySplines="0.5 0 0.5 1;0.5 0 0.5 1" values="0 0;0 0;0 0" begin="-0.7407407407407406s"></animateTransform>
</path><path d="M21.5 139.17949979474747 L21.5 152.35899958949494 A5.5 5.5 0 0 0 33.5 152.35899958949494 L33.5 139.17949979474747 A5.5 5.5 0 0 0 21.5 139.17949979474747" fill="#000">
  <animateTransform attributeName="transform" type="translate" dur="1.8518518518518514s" repeatCount="indefinite" keyTimes="0;1" values="0 0;0 -198.3138295326195" begin="-0.7407407407407406s"></animateTransform>
  <animate attributeName="opacity" dur="1.8518518518518514s" repeatCount="indefinite" keyTimes="0;0.3;1" values="1;1;0" begin="-0.7407407407407406s"></animate>
</path><path d="M32.5 415 L32.5 -59.25824320880997 A5.5 5.5 0 0 1 44.5 -59.25824320880997 L44.5 415" fill="#fff">
  <animateTransform attributeName="transform" type="translate" dur="5.5555555555555545s" repeatCount="indefinite" keyTimes="0;0.5;1" calcMode="spline" keySplines="0.5 0 0.5 1;0.5 0 0.5 1" values="0 0;0 0;0 0" begin="-1.111111111111111s"></animateTransform>
</path><path d="M32.5 -48.25824320880997 L32.5 -22.46684493846567 A5.5 5.5 0 0 0 44.5 -22.46684493846567 L44.5 -48.25824320880997 A5.5 5.5 0 0 0 32.5 -48.25824320880997" fill="#fff">
  <animateTransform attributeName="transform" type="translate" dur="2.7777777777777772s" repeatCount="indefinite" keyTimes="0;1" values="0;0" begin="-1.111111111111111s"></animateTransform>
  <animate attributeName="opacity" dur="2.7777777777777772s" repeatCount="indefinite" keyTimes="0;0.3;1" values="1;1;0" begin="-1.111111111111111s"></animate>
</path><path d="M43.5 415 L43.5 -26.76324805969051 A5.5 5.5 0 0 0 55.5 -26.76324805969051 L55.5 415" fill="#fff">
  <animateTransform attributeName="transform" type="translate" dur="1.8518518518518514s" repeatCount="indefinite" keyTimes="0;0.5;1" calcMode="spline" keySplines="0.5 0 0.5 1;0.5 0 0.5 1" values="0 0;0 0;0 0" begin="-1.4814814814814812s"></animateTransform>
</path><path d="M43.5 151.88572666897397 L43.5 177.77145333794795 A5.5 5.5 0 0 0 55.5 177.77145333794795 L55.5 151.88572666897397 A5.5 5.5 0 0 0 43.5 151.88572666897397" fill="#000">
  <animateTransform attributeName="transform" type="translate" dur="2.7777777777777772s" repeatCount="indefinite" keyTimes="0;1" values="0 0;0 -266.3765289464808" begin="-1.4814814814814812s"></animateTransform>
  <animate attributeName="opacity" dur="2.7777777777777772s" repeatCount="indefinite" keyTimes="0;0.3;1" values="1;1;0" begin="-1.4814814814814812s"></animate>
</path><path d="M54.5 415 L54.5 -89.81763592314894 A5.5 5.5 0 0 1 66.5 -89.81763592314894 L66.5 415" fill="#fff">
  <animateTransform attributeName="transform" type="translate" dur="5.5555555555555545s" repeatCount="indefinite" keyTimes="0;0.5;1" calcMode="spline" keySplines="0.5 0 0.5 1;0.5 0 0.5 1" values="0 0;0 0;0 0" begin="-1.8518518518518514s"></animateTransform>
</path><path d="M54.5 -78.81763592314894 L54.5 -44.4386790513864 A5.5 5.5 0 0 0 66.5 -44.4386790513864 L66.5 -78.81763592314894 A5.5 5.5 0 0 0 54.5 -78.81763592314894" fill="#fff">
  <animateTransform attributeName="transform" type="translate" dur="1.8518518518518514s" repeatCount="indefinite" keyTimes="0;1" values="0;0" begin="-1.8518518518518514s"></animateTransform>
  <animate attributeName="opacity" dur="1.8518518518518514s" repeatCount="indefinite" keyTimes="0;0.3;1" values="1;1;0" begin="-1.8518518518518514s"></animate>
</path><path d="M65.5 415 L65.5 -50.5082338620374 A5.5 5.5 0 0 0 77.5 -50.5082338620374 L77.5 415" fill="#fff">
  <animateTransform attributeName="transform" type="translate" dur="1.8518518518518514s" repeatCount="indefinite" keyTimes="0;0.5;1" calcMode="spline" keySplines="0.5 0 0.5 1;0.5 0 0.5 1" values="0 0;0 0;0 0" begin="-2.222222222222222s"></animateTransform>
</path><path d="M65.5 143.55296956216546 L65.5 161.10593912433092 A5.5 5.5 0 0 0 77.5 161.10593912433092 L77.5 143.55296956216546 A5.5 5.5 0 0 0 65.5 143.55296956216546" fill="#000">
  <animateTransform attributeName="transform" type="translate" dur="1.8518518518518514s" repeatCount="indefinite" keyTimes="0;1" values="0 0;0 -250.38264593527003" begin="-2.222222222222222s"></animateTransform>
  <animate attributeName="opacity" dur="1.8518518518518514s" repeatCount="indefinite" keyTimes="0;0.3;1" values="1;1;0" begin="-2.222222222222222s"></animate>
</path><path d="M76.5 415 L76.5 -77.79512256533391 A5.5 5.5 0 0 1 88.5 -77.79512256533391 L88.5 415" fill="#fff">
  <animateTransform attributeName="transform" type="translate" dur="2.7777777777777772s" repeatCount="indefinite" keyTimes="0;0.5;1" calcMode="spline" keySplines="0.5 0 0.5 1;0.5 0 0.5 1" values="0 0;0 0;0 0" begin="-2.592592592592592s"></animateTransform>
</path><path d="M76.5 -66.79512256533391 L76.5 -48.032617558833216 A5.5 5.5 0 0 0 88.5 -48.032617558833216 L88.5 -66.79512256533391 A5.5 5.5 0 0 0 76.5 -66.79512256533391" fill="#fff">
  <animateTransform attributeName="transform" type="translate" dur="1.8518518518518514s" repeatCount="indefinite" keyTimes="0;1" values="0;0" begin="-2.592592592592592s"></animateTransform>
  <animate attributeName="opacity" dur="1.8518518518518514s" repeatCount="indefinite" keyTimes="0;0.3;1" values="1;1;0" begin="-2.592592592592592s"></animate>
</path><path d="M87.5 415 L87.5 -52.28610608412771 A5.5 5.5 0 0 0 99.5 -52.28610608412771 L99.5 415" fill="#fff">
  <animateTransform attributeName="transform" type="translate" dur="1.8518518518518514s" repeatCount="indefinite" keyTimes="0;0.5;1" calcMode="spline" keySplines="0.5 0 0.5 1;0.5 0 0.5 1" values="0 0;0 0;0 0" begin="-2.9629629629629624s"></animateTransform>
</path><path d="M87.5 153.22426744534147 L87.5 180.44853489068294 A5.5 5.5 0 0 0 99.5 180.44853489068294 L99.5 153.22426744534147 A5.5 5.5 0 0 0 87.5 153.22426744534147" fill="#000">
  <animateTransform attributeName="transform" type="translate" dur="2.7777777777777772s" repeatCount="indefinite" keyTimes="0;1" values="0 0;0 -253.9835873597079" begin="-2.9629629629629624s"></animateTransform>
  <animate attributeName="opacity" dur="2.7777777777777772s" repeatCount="indefinite" keyTimes="0;0.3;1" values="1;1;0" begin="-2.9629629629629624s"></animate>
</path><path d="M98.5 415 L98.5 -69.21808450530781 A5.5 5.5 0 0 1 110.5 -69.21808450530781 L110.5 415" fill="#fff">
  <animateTransform attributeName="transform" type="translate" dur="2.7777777777777772s" repeatCount="indefinite" keyTimes="0;0.5;1" calcMode="spline" keySplines="0.5 0 0.5 1;0.5 0 0.5 1" values="0 0;0 0;0 0" begin="-3.333333333333333s"></animateTransform>
</path><path d="M98.5 -58.218084505307814 L98.5 -47.06833291512437 A5.5 5.5 0 0 0 110.5 -47.06833291512437 L110.5 -58.218084505307814 A5.5 5.5 0 0 0 98.5 -58.218084505307814" fill="#fff">
  <animateTransform attributeName="transform" type="translate" dur="1.8518518518518514s" repeatCount="indefinite" keyTimes="0;1" values="0;0" begin="-3.333333333333333s"></animateTransform>
  <animate attributeName="opacity" dur="1.8518518518518514s" repeatCount="indefinite" keyTimes="0;0.3;1" values="1;1;0" begin="-3.333333333333333s"></animate>
</path><path d="M109.5 415 L109.5 -44.203628101241236 A5.5 5.5 0 0 0 121.5 -44.203628101241236 L121.5 415" fill="#fff">
  <animateTransform attributeName="transform" type="translate" dur="5.5555555555555545s" repeatCount="indefinite" keyTimes="0;0.5;1" calcMode="spline" keySplines="0.5 0 0.5 1;0.5 0 0.5 1" values="0 0;0 0;0 0" begin="-3.703703703703703s"></animateTransform>
</path><path d="M109.5 149.25879110372279 L109.5 172.51758220744557 A5.5 5.5 0 0 0 121.5 172.51758220744557 L121.5 149.25879110372279 A5.5 5.5 0 0 0 109.5 149.25879110372279" fill="#000">
  <animateTransform attributeName="transform" type="translate" dur="2.7777777777777772s" repeatCount="indefinite" keyTimes="0;1" values="0 0;0 -247.67767270476315" begin="-3.703703703703703s"></animateTransform>
  <animate attributeName="opacity" dur="2.7777777777777772s" repeatCount="indefinite" keyTimes="0;0.3;1" values="1;1;0" begin="-3.703703703703703s"></animate>
</path><path d="M120.5 415 L120.5 -78.20002783323167 A5.5 5.5 0 0 1 132.5 -78.20002783323167 L132.5 415" fill="#fff">
  <animateTransform attributeName="transform" type="translate" dur="5.5555555555555545s" repeatCount="indefinite" keyTimes="0;0.5;1" calcMode="spline" keySplines="0.5 0 0.5 1;0.5 0 0.5 1" values="0 0;0 0;0 0" begin="-4.074074074074073s"></animateTransform>
</path><path d="M120.5 -67.20002783323167 L120.5 -46.82603837178983 A5.5 5.5 0 0 0 132.5 -46.82603837178983 L132.5 -67.20002783323167 A5.5 5.5 0 0 0 120.5 -67.20002783323167" fill="#fff">
  <animateTransform attributeName="transform" type="translate" dur="2.7777777777777772s" repeatCount="indefinite" keyTimes="0;1" values="0;0" begin="-4.074074074074073s"></animateTransform>
  <animate attributeName="opacity" dur="2.7777777777777772s" repeatCount="indefinite" keyTimes="0;0.3;1" values="1;1;0" begin="-4.074074074074073s"></animate>
</path><path d="M131.5 415 L131.5 -39.987190041670544 A5.5 5.5 0 0 0 143.5 -39.987190041670544 L143.5 415" fill="#fff">
  <animateTransform attributeName="transform" type="translate" dur="2.7777777777777772s" repeatCount="indefinite" keyTimes="0;0.5;1" calcMode="spline" keySplines="0.5 0 0.5 1;0.5 0 0.5 1" values="0 0;0 0;0 0" begin="-4.444444444444444s"></animateTransform>
</path><path d="M131.5 148.20511587573273 L131.5 170.41023175146546 A5.5 5.5 0 0 0 143.5 170.41023175146546 L143.5 148.20511587573273 A5.5 5.5 0 0 0 131.5 148.20511587573273" fill="#000">
  <animateTransform attributeName="transform" type="translate" dur="1.8518518518518514s" repeatCount="indefinite" keyTimes="0;1" values="0 0;0 -202.22362951788108" begin="-4.444444444444444s"></animateTransform>
  <animate attributeName="opacity" dur="1.8518518518518514s" repeatCount="indefinite" keyTimes="0;0.3;1" values="1;1;0" begin="-4.444444444444444s"></animate>
</path><path d="M142.5 415 L142.5 -63.75045381783906 A5.5 5.5 0 0 1 154.5 -63.75045381783906 L154.5 415" fill="#fff">
  <animateTransform attributeName="transform" type="translate" dur="2.7777777777777772s" repeatCount="indefinite" keyTimes="0;0.5;1" calcMode="spline" keySplines="0.5 0 0.5 1;0.5 0 0.5 1" values="0 0;0 0;0 0" begin="-4.814814814814813s"></animateTransform>
</path><path d="M142.5 -52.75045381783906 L142.5 -24.57727238885566 A5.5 5.5 0 0 0 154.5 -24.57727238885566 L154.5 -52.75045381783906 A5.5 5.5 0 0 0 142.5 -52.75045381783906" fill="#fff">
  <animateTransform attributeName="transform" type="translate" dur="1.8518518518518514s" repeatCount="indefinite" keyTimes="0;1" values="0;0" begin="-4.814814814814813s"></animateTransform>
  <animate attributeName="opacity" dur="1.8518518518518514s" repeatCount="indefinite" keyTimes="0;0.3;1" values="1;1;0" begin="-4.814814814814813s"></animate>
</path><path d="M153.5 415 L153.5 -20.16697701341181 A5.5 5.5 0 0 0 165.5 -20.16697701341181 L165.5 415" fill="#fff">
  <animateTransform attributeName="transform" type="translate" dur="2.7777777777777772s" repeatCount="indefinite" keyTimes="0;0.5;1" calcMode="spline" keySplines="0.5 0 0.5 1;0.5 0 0.5 1" values="0 0;0 0;0 0" begin="-5.185185185185184s"></animateTransform>
</path><path d="M153.5 152.33415437712898 L153.5 178.66830875425796 A5.5 5.5 0 0 0 165.5 178.66830875425796 L165.5 152.33415437712898 A5.5 5.5 0 0 0 153.5 152.33415437712898" fill="#000">
  <animateTransform attributeName="transform" type="translate" dur="5.5555555555555545s" repeatCount="indefinite" keyTimes="0;1" values="0 0;0 -186.00378098543825" begin="-5.185185185185184s"></animateTransform>
  <animate attributeName="opacity" dur="5.5555555555555545s" repeatCount="indefinite" keyTimes="0;0.3;1" values="1;1;0" begin="-5.185185185185184s"></animate>
</path><path d="M164.5 415 L164.5 -102.3922293817671 A5.5 5.5 0 0 1 176.5 -102.3922293817671 L176.5 415" fill="#fff">
  <animateTransform attributeName="transform" type="translate" dur="2.7777777777777772s" repeatCount="indefinite" keyTimes="0;0.5;1" calcMode="spline" keySplines="0.5 0 0.5 1;0.5 0 0.5 1" values="0 0;0 0;0 0" begin="-5.5555555555555545s"></animateTransform>
</path><path d="M164.5 -91.3922293817671 L164.5 -71.2242846728943 A5.5 5.5 0 0 0 176.5 -71.2242846728943 L176.5 -91.3922293817671 A5.5 5.5 0 0 0 164.5 -91.3922293817671" fill="#fff">
  <animateTransform attributeName="transform" type="translate" dur="1.8518518518518514s" repeatCount="indefinite" keyTimes="0;1" values="0;0" begin="-5.5555555555555545s"></animateTransform>
  <animate attributeName="opacity" dur="1.8518518518518514s" repeatCount="indefinite" keyTimes="0;0.3;1" values="1;1;0" begin="-5.5555555555555545s"></animate>
</path><path d="M175.5 415 L175.5 -32.409866147180736 A5.5 5.5 0 0 0 187.5 -32.409866147180736 L187.5 415" fill="#fff">
  <animateTransform attributeName="transform" type="translate" dur="1.8518518518518514s" repeatCount="indefinite" keyTimes="0;0.5;1" calcMode="spline" keySplines="0.5 0 0.5 1;0.5 0 0.5 1" values="0 0;0 0;0 0" begin="-5.925925925925925s"></animateTransform>
</path><path d="M175.5 153.6795549657239 L175.5 181.3591099314478 A5.5 5.5 0 0 0 187.5 181.3591099314478 L187.5 153.6795549657239 A5.5 5.5 0 0 0 175.5 153.6795549657239" fill="#000">
  <animateTransform attributeName="transform" type="translate" dur="2.7777777777777772s" repeatCount="indefinite" keyTimes="0;1" values="0 0;0 -270.0954402876379" begin="-5.925925925925925s"></animateTransform>
  <animate attributeName="opacity" dur="2.7777777777777772s" repeatCount="indefinite" keyTimes="0;0.3;1" values="1;1;0" begin="-5.925925925925925s"></animate>
</path><path d="M186.5 415 L186.5 -71.22217325270333 A5.5 5.5 0 0 1 198.5 -71.22217325270333 L198.5 415" fill="#fff">
  <animateTransform attributeName="transform" type="translate" dur="2.7777777777777772s" repeatCount="indefinite" keyTimes="0;0.5;1" calcMode="spline" keySplines="0.5 0 0.5 1;0.5 0 0.5 1" values="0 0;0 0;0 0" begin="-6.296296296296295s"></animateTransform>
</path><path d="M186.5 -60.22217325270333 L186.5 -31.64922758856779 A5.5 5.5 0 0 0 198.5 -31.64922758856779 L198.5 -60.22217325270333 A5.5 5.5 0 0 0 186.5 -60.22217325270333" fill="#fff">
  <animateTransform attributeName="transform" type="translate" dur="2.7777777777777772s" repeatCount="indefinite" keyTimes="0;1" values="0;0" begin="-6.296296296296295s"></animateTransform>
  <animate attributeName="opacity" dur="2.7777777777777772s" repeatCount="indefinite" keyTimes="0;0.3;1" values="1;1;0" begin="-6.296296296296295s"></animate>
</path><path d="M197.5 415 L197.5 -11.207604286329456 A5.5 5.5 0 0 0 209.5 -11.207604286329456 L209.5 415" fill="#fff">
  <animateTransform attributeName="transform" type="translate" dur="2.7777777777777772s" repeatCount="indefinite" keyTimes="0;0.5;1" calcMode="spline" keySplines="0.5 0 0.5 1;0.5 0 0.5 1" values="0 0;0 0;0 0" begin="-6.666666666666666s"></animateTransform>
</path><path d="M197.5 144.56149843051395 L197.5 163.1229968610279 A5.5 5.5 0 0 0 209.5 163.1229968610279 L209.5 144.56149843051395 A5.5 5.5 0 0 0 197.5 144.56149843051395" fill="#000">
  <animateTransform attributeName="transform" type="translate" dur="5.5555555555555545s" repeatCount="indefinite" keyTimes="0;1" values="0 0;0 -200.30744006693925" begin="-6.666666666666666s"></animateTransform>
  <animate attributeName="opacity" dur="5.5555555555555545s" repeatCount="indefinite" keyTimes="0;0.3;1" values="1;1;0" begin="-6.666666666666666s"></animate>
</path><path d="M208.5 415 L208.5 -47.93378023811056 A5.5 5.5 0 0 1 220.5 -47.93378023811056 L220.5 415" fill="#fff">
  <animateTransform attributeName="transform" type="translate" dur="5.5555555555555545s" repeatCount="indefinite" keyTimes="0;0.5;1" calcMode="spline" keySplines="0.5 0 0.5 1;0.5 0 0.5 1" values="0 0;0 0;0 0" begin="-7.037037037037035s"></animateTransform>
</path><path d="M208.5 -36.93378023811056 L208.5 -11.323999184407924 A5.5 5.5 0 0 0 220.5 -11.323999184407924 L220.5 -36.93378023811056 A5.5 5.5 0 0 0 208.5 -36.93378023811056" fill="#fff">
  <animateTransform attributeName="transform" type="translate" dur="2.7777777777777772s" repeatCount="indefinite" keyTimes="0;1" values="0;0" begin="-7.037037037037035s"></animateTransform>
  <animate attributeName="opacity" dur="2.7777777777777772s" repeatCount="indefinite" keyTimes="0;0.3;1" values="1;1;0" begin="-7.037037037037035s"></animate>
</path><path d="M219.5 415 L219.5 -24.650509833870018 A5.5 5.5 0 0 0 231.5 -24.650509833870018 L231.5 415" fill="#fff">
  <animateTransform attributeName="transform" type="translate" dur="2.7777777777777772s" repeatCount="indefinite" keyTimes="0;0.5;1" calcMode="spline" keySplines="0.5 0 0.5 1;0.5 0 0.5 1" values="0 0;0 0;0 0" begin="-7.407407407407406s"></animateTransform>
</path><path d="M219.5 162.2927791060005 L219.5 198.585558212001 A5.5 5.5 0 0 0 231.5 198.585558212001 L231.5 162.2927791060005 A5.5 5.5 0 0 0 219.5 162.2927791060005" fill="#000">
  <animateTransform attributeName="transform" type="translate" dur="1.8518518518518514s" repeatCount="indefinite" keyTimes="0;1" values="0 0;0 -255.86026123555797" begin="-7.407407407407406s"></animateTransform>
  <animate attributeName="opacity" dur="1.8518518518518514s" repeatCount="indefinite" keyTimes="0;0.3;1" values="1;1;0" begin="-7.407407407407406s"></animate>
</path><path d="M230.5 415 L230.5 -51.472660950410386 A5.5 5.5 0 0 1 242.5 -51.472660950410386 L242.5 415" fill="#fff">
  <animateTransform attributeName="transform" type="translate" dur="5.5555555555555545s" repeatCount="indefinite" keyTimes="0;0.5;1" calcMode="spline" keySplines="0.5 0 0.5 1;0.5 0 0.5 1" values="0 0;0 0;0 0" begin="-7.777777777777776s"></animateTransform>
</path><path d="M230.5 -40.472660950410386 L230.5 -24.828618438983213 A5.5 5.5 0 0 0 242.5 -24.828618438983213 L242.5 -40.472660950410386 A5.5 5.5 0 0 0 230.5 -40.472660950410386" fill="#fff">
  <animateTransform attributeName="transform" type="translate" dur="5.5555555555555545s" repeatCount="indefinite" keyTimes="0;1" values="0;0" begin="-7.777777777777776s"></animateTransform>
  <animate attributeName="opacity" dur="5.5555555555555545s" repeatCount="indefinite" keyTimes="0;0.3;1" values="1;1;0" begin="-7.777777777777776s"></animate>
</path><path d="M241.5 415 L241.5 -18.880739884921468 A5.5 5.5 0 0 0 253.5 -18.880739884921468 L253.5 415" fill="#fff">
  <animateTransform attributeName="transform" type="translate" dur="2.7777777777777772s" repeatCount="indefinite" keyTimes="0;0.5;1" calcMode="spline" keySplines="0.5 0 0.5 1;0.5 0 0.5 1" values="0 0;0 0;0 0" begin="-8.148148148148145s"></animateTransform>
</path><path d="M241.5 158.13458131361924 L241.5 190.26916262723847 A5.5 5.5 0 0 0 253.5 190.26916262723847 L253.5 158.13458131361924 A5.5 5.5 0 0 0 241.5 158.13458131361924" fill="#000">
  <animateTransform attributeName="transform" type="translate" dur="5.5555555555555545s" repeatCount="indefinite" keyTimes="0;1" values="0 0;0 -188.09272149217304" begin="-8.148148148148145s"></animateTransform>
  <animate attributeName="opacity" dur="5.5555555555555545s" repeatCount="indefinite" keyTimes="0;0.3;1" values="1;1;0" begin="-8.148148148148145s"></animate>
</path><path d="M252.5 415 L252.5 -54.81549716146549 A5.5 5.5 0 0 1 264.5 -54.81549716146549 L264.5 415" fill="#fff">
  <animateTransform attributeName="transform" type="translate" dur="2.7777777777777772s" repeatCount="indefinite" keyTimes="0;0.5;1" calcMode="spline" keySplines="0.5 0 0.5 1;0.5 0 0.5 1" values="0 0;0 0;0 0" begin="-8.518518518518515s"></animateTransform>
</path><path d="M252.5 -43.81549716146549 L252.5 -6.49260226144613 A5.5 5.5 0 0 0 264.5 -6.49260226144613 L264.5 -43.81549716146549 A5.5 5.5 0 0 0 252.5 -43.81549716146549" fill="#fff">
  <animateTransform attributeName="transform" type="translate" dur="5.5555555555555545s" repeatCount="indefinite" keyTimes="0;1" values="0;0" begin="-8.518518518518515s"></animateTransform>
  <animate attributeName="opacity" dur="5.5555555555555545s" repeatCount="indefinite" keyTimes="0;0.3;1" values="1;1;0" begin="-8.518518518518515s"></animate>
</path><path d="M263.5 415 L263.5 -3.16302487042843 A5.5 5.5 0 0 0 275.5 -3.16302487042843 L275.5 415" fill="#fff">
  <animateTransform attributeName="transform" type="translate" dur="1.8518518518518514s" repeatCount="indefinite" keyTimes="0;0.5;1" calcMode="spline" keySplines="0.5 0 0.5 1;0.5 0 0.5 1" values="0 0;0 0;0 0" begin="-8.888888888888888s"></animateTransform>
</path><path d="M263.5 157.43503802645347 L263.5 188.87007605290694 A5.5 5.5 0 0 0 275.5 188.87007605290694 L275.5 157.43503802645347 A5.5 5.5 0 0 0 263.5 157.43503802645347" fill="#000">
  <animateTransform attributeName="transform" type="translate" dur="5.5555555555555545s" repeatCount="indefinite" keyTimes="0;1" values="0 0;0 -247.99923721125293" begin="-8.888888888888888s"></animateTransform>
  <animate attributeName="opacity" dur="5.5555555555555545s" repeatCount="indefinite" keyTimes="0;0.3;1" values="1;1;0" begin="-8.888888888888888s"></animate>
</path><path d="M274.5 415 L274.5 -39.04057532033494 A5.5 5.5 0 0 1 286.5 -39.04057532033494 L286.5 415" fill="#fff">
  <animateTransform attributeName="transform" type="translate" dur="1.8518518518518514s" repeatCount="indefinite" keyTimes="0;0.5;1" calcMode="spline" keySplines="0.5 0 0.5 1;0.5 0 0.5 1" values="0 0;0 0;0 0" begin="-9.259259259259258s"></animateTransform>
</path><path d="M274.5 -28.040575320334938 L274.5 -4.099229337689941 A5.5 5.5 0 0 0 286.5 -4.099229337689941 L286.5 -28.040575320334938 A5.5 5.5 0 0 0 274.5 -28.040575320334938" fill="#fff">
  <animateTransform attributeName="transform" type="translate" dur="5.5555555555555545s" repeatCount="indefinite" keyTimes="0;1" values="0;0" begin="-9.259259259259258s"></animateTransform>
  <animate attributeName="opacity" dur="5.5555555555555545s" repeatCount="indefinite" keyTimes="0;0.3;1" values="1;1;0" begin="-9.259259259259258s"></animate>
</path><path d="M285.5 415 L285.5 -0.8687319346444013 A5.5 5.5 0 0 0 297.5 -0.8687319346444013 L297.5 415" fill="#fff">
  <animateTransform attributeName="transform" type="translate" dur="1.8518518518518514s" repeatCount="indefinite" keyTimes="0;0.5;1" calcMode="spline" keySplines="0.5 0 0.5 1;0.5 0 0.5 1" values="0 0;0 0;0 0" begin="-9.629629629629626s"></animateTransform>
</path><path d="M285.5 160.1697729128752 L285.5 194.3395458257504 A5.5 5.5 0 0 0 297.5 194.3395458257504 L297.5 160.1697729128752 A5.5 5.5 0 0 0 285.5 160.1697729128752" fill="#000">
  <animateTransform attributeName="transform" type="translate" dur="2.7777777777777772s" repeatCount="indefinite" keyTimes="0;1" values="0 0;0 -194.34578079311322" begin="-9.629629629629626s"></animateTransform>
  <animate attributeName="opacity" dur="2.7777777777777772s" repeatCount="indefinite" keyTimes="0;0.3;1" values="1;1;0" begin="-9.629629629629626s"></animate>
</path><path d="M296.5 415 L296.5 -27.749520941327063 A5.5 5.5 0 0 1 308.5 -27.749520941327063 L308.5 415" fill="#fff">
  <animateTransform attributeName="transform" type="translate" dur="2.7777777777777772s" repeatCount="indefinite" keyTimes="0;0.5;1" calcMode="spline" keySplines="0.5 0 0.5 1;0.5 0 0.5 1" values="0 0;0 0;0 0" begin="-9.999999999999996s"></animateTransform>
</path><path d="M296.5 -16.749520941327063 L296.5 7.236155808523193 A5.5 5.5 0 0 0 308.5 7.236155808523193 L308.5 -16.749520941327063 A5.5 5.5 0 0 0 296.5 -16.749520941327063" fill="#fff">
  <animateTransform attributeName="transform" type="translate" dur="1.8518518518518514s" repeatCount="indefinite" keyTimes="0;1" values="0;0" begin="-9.999999999999996s"></animateTransform>
  <animate attributeName="opacity" dur="1.8518518518518514s" repeatCount="indefinite" keyTimes="0;0.3;1" values="1;1;0" begin="-9.999999999999996s"></animate>
</path><path d="M307.5 415 L307.5 35.22888563537006 A5.5 5.5 0 0 0 319.5 35.22888563537006 L319.5 415" fill="#fff">
  <animateTransform attributeName="transform" type="translate" dur="5.5555555555555545s" repeatCount="indefinite" keyTimes="0;0.5;1" calcMode="spline" keySplines="0.5 0 0.5 1;0.5 0 0.5 1" values="0 0;0 0;0 0" begin="-10.370370370370368s"></animateTransform>
</path><path d="M307.5 147.76472754978982 L307.5 169.52945509957965 A5.5 5.5 0 0 0 319.5 169.52945509957965 L319.5 147.76472754978982 A5.5 5.5 0 0 0 307.5 147.76472754978982" fill="#000">
  <animateTransform attributeName="transform" type="translate" dur="1.8518518518518514s" repeatCount="indefinite" keyTimes="0;1" values="0 0;0 -211.14894211688272" begin="-10.370370370370368s"></animateTransform>
  <animate attributeName="opacity" dur="1.8518518518518514s" repeatCount="indefinite" keyTimes="0;0.3;1" values="1;1;0" begin="-10.370370370370368s"></animate>
</path><path d="M318.5 415 L318.5 -6.382560060758834 A5.5 5.5 0 0 1 330.5 -6.382560060758834 L330.5 415" fill="#fff">
  <animateTransform attributeName="transform" type="translate" dur="2.7777777777777772s" repeatCount="indefinite" keyTimes="0;0.5;1" calcMode="spline" keySplines="0.5 0 0.5 1;0.5 0 0.5 1" values="0 0;0 0;0 0" begin="-10.74074074074074s"></animateTransform>
</path><path d="M318.5 4.617439939241168 L318.5 20.358211975160962 A5.5 5.5 0 0 0 330.5 20.358211975160962 L330.5 4.617439939241168 A5.5 5.5 0 0 0 318.5 4.617439939241168" fill="#fff">
  <animateTransform attributeName="transform" type="translate" dur="2.7777777777777772s" repeatCount="indefinite" keyTimes="0;1" values="0;0" begin="-10.74074074074074s"></animateTransform>
  <animate attributeName="opacity" dur="2.7777777777777772s" repeatCount="indefinite" keyTimes="0;0.3;1" values="1;1;0" begin="-10.74074074074074s"></animate>
</path><path d="M329.5 415 L329.5 25.025032337682106 A5.5 5.5 0 0 0 341.5 25.025032337682106 L341.5 415" fill="#fff">
  <animateTransform attributeName="transform" type="translate" dur="1.8518518518518514s" repeatCount="indefinite" keyTimes="0;0.5;1" calcMode="spline" keySplines="0.5 0 0.5 1;0.5 0 0.5 1" values="0 0;0 0;0 0" begin="-11.111111111111109s"></animateTransform>
</path><path d="M329.5 156.8016892067968 L329.5 187.6033784135936 A5.5 5.5 0 0 0 341.5 187.6033784135936 L341.5 156.8016892067968 A5.5 5.5 0 0 0 329.5 156.8016892067968" fill="#000">
  <animateTransform attributeName="transform" type="translate" dur="2.7777777777777772s" repeatCount="indefinite" keyTimes="0;1" values="0 0;0 -282.94780855650635" begin="-11.111111111111109s"></animateTransform>
  <animate attributeName="opacity" dur="2.7777777777777772s" repeatCount="indefinite" keyTimes="0;0.3;1" values="1;1;0" begin="-11.111111111111109s"></animate>
</path><path d="M340.5 415 L340.5 -9.456515107718388 A5.5 5.5 0 0 1 352.5 -9.456515107718388 L352.5 415" fill="#fff">
  <animateTransform attributeName="transform" type="translate" dur="5.5555555555555545s" repeatCount="indefinite" keyTimes="0;0.5;1" calcMode="spline" keySplines="0.5 0 0.5 1;0.5 0 0.5 1" values="0 0;0 0;0 0" begin="-11.481481481481477s"></animateTransform>
</path><path d="M340.5 1.5434848922816116 L340.5 15.853054754710922 A5.5 5.5 0 0 0 352.5 15.853054754710922 L352.5 1.5434848922816116 A5.5 5.5 0 0 0 340.5 1.5434848922816116" fill="#fff">
  <animateTransform attributeName="transform" type="translate" dur="5.5555555555555545s" repeatCount="indefinite" keyTimes="0;1" values="0;0" begin="-11.481481481481477s"></animateTransform>
  <animate attributeName="opacity" dur="5.5555555555555545s" repeatCount="indefinite" keyTimes="0;0.3;1" values="1;1;0" begin="-11.481481481481477s"></animate>
</path><path d="M351.5 415 L351.5 19.17963088948295 A5.5 5.5 0 0 0 363.5 19.17963088948295 L363.5 415" fill="#fff">
  <animateTransform attributeName="transform" type="translate" dur="2.7777777777777772s" repeatCount="indefinite" keyTimes="0;0.5;1" calcMode="spline" keySplines="0.5 0 0.5 1;0.5 0 0.5 1" values="0 0;0 0;0 0" begin="-11.85185185185185s"></animateTransform>
</path><path d="M351.5 138.30933308624498 L351.5 150.61866617248992 A5.5 5.5 0 0 0 363.5 150.61866617248992 L363.5 138.30933308624498 A5.5 5.5 0 0 0 351.5 138.30933308624498" fill="#000">
  <animateTransform attributeName="transform" type="translate" dur="2.7777777777777772s" repeatCount="indefinite" keyTimes="0;1" values="0 0;0 -185.8985072742916" begin="-11.85185185185185s"></animateTransform>
  <animate attributeName="opacity" dur="2.7777777777777772s" repeatCount="indefinite" keyTimes="0;0.3;1" values="1;1;0" begin="-11.85185185185185s"></animate>
</path><path d="M362.5 415 L362.5 -23.16738477894836 A5.5 5.5 0 0 1 374.5 -23.16738477894836 L374.5 415" fill="#fff">
  <animateTransform attributeName="transform" type="translate" dur="5.5555555555555545s" repeatCount="indefinite" keyTimes="0;0.5;1" calcMode="spline" keySplines="0.5 0 0.5 1;0.5 0 0.5 1" values="0 0;0 0;0 0" begin="-12.222222222222218s"></animateTransform>
</path><path d="M362.5 -12.16738477894836 L362.5 24.40831860778753 A5.5 5.5 0 0 0 374.5 24.40831860778753 L374.5 -12.16738477894836 A5.5 5.5 0 0 0 362.5 -12.16738477894836" fill="#fff">
  <animateTransform attributeName="transform" type="translate" dur="5.5555555555555545s" repeatCount="indefinite" keyTimes="0;1" values="0;0" begin="-12.222222222222218s"></animateTransform>
  <animate attributeName="opacity" dur="5.5555555555555545s" repeatCount="indefinite" keyTimes="0;0.3;1" values="1;1;0" begin="-12.222222222222218s"></animate>
</path><path d="M373.5 415 L373.5 29.187771170239955 A5.5 5.5 0 0 0 385.5 29.187771170239955 L385.5 415" fill="#fff">
  <animateTransform attributeName="transform" type="translate" dur="5.5555555555555545s" repeatCount="indefinite" keyTimes="0;0.5;1" calcMode="spline" keySplines="0.5 0 0.5 1;0.5 0 0.5 1" values="0 0;0 0;0 0" begin="-12.59259259259259s"></animateTransform>
</path><path d="M373.5 142.77763861251248 L373.5 159.55527722502495 A5.5 5.5 0 0 0 385.5 159.55527722502495 L385.5 142.77763861251248 A5.5 5.5 0 0 0 373.5 142.77763861251248" fill="#000">
  <animateTransform attributeName="transform" type="translate" dur="1.8518518518518514s" repeatCount="indefinite" keyTimes="0;1" values="0 0;0 -261.23807579449146" begin="-12.59259259259259s"></animateTransform>
  <animate attributeName="opacity" dur="1.8518518518518514s" repeatCount="indefinite" keyTimes="0;0.3;1" values="1;1;0" begin="-12.59259259259259s"></animate>
</path><path d="M384.5 415 L384.5 3.335052443305102 A5.5 5.5 0 0 1 396.5 3.335052443305102 L396.5 415" fill="#fff">
  <animateTransform attributeName="transform" type="translate" dur="5.5555555555555545s" repeatCount="indefinite" keyTimes="0;0.5;1" calcMode="spline" keySplines="0.5 0 0.5 1;0.5 0 0.5 1" values="0 0;0 0;0 0" begin="-12.962962962962962s"></animateTransform>
</path><path d="M384.5 14.335052443305102 L384.5 35.47850021927093 A5.5 5.5 0 0 0 396.5 35.47850021927093 L396.5 14.335052443305102 A5.5 5.5 0 0 0 384.5 14.335052443305102" fill="#fff">
  <animateTransform attributeName="transform" type="translate" dur="1.8518518518518514s" repeatCount="indefinite" keyTimes="0;1" values="0;0" begin="-12.962962962962962s"></animateTransform>
  <animate attributeName="opacity" dur="1.8518518518518514s" repeatCount="indefinite" keyTimes="0;0.3;1" values="1;1;0" begin="-12.962962962962962s"></animate>
</path><path d="M395.5 415 L395.5 34.21926540635849 A5.5 5.5 0 0 0 407.5 34.21926540635849 L407.5 415" fill="#fff">
  <animateTransform attributeName="transform" type="translate" dur="5.5555555555555545s" repeatCount="indefinite" keyTimes="0;0.5;1" calcMode="spline" keySplines="0.5 0 0.5 1;0.5 0 0.5 1" values="0 0;0 0;0 0" begin="-13.333333333333332s"></animateTransform>
</path><path d="M395.5 146.5783528914678 L395.5 167.1567057829356 A5.5 5.5 0 0 0 407.5 167.1567057829356 L407.5 146.5783528914678 A5.5 5.5 0 0 0 395.5 146.5783528914678" fill="#000">
  <animateTransform attributeName="transform" type="translate" dur="1.8518518518518514s" repeatCount="indefinite" keyTimes="0;1" values="0 0;0 -193.13467965998782" begin="-13.333333333333332s"></animateTransform>
  <animate attributeName="opacity" dur="1.8518518518518514s" repeatCount="indefinite" keyTimes="0;0.3;1" values="1;1;0" begin="-13.333333333333332s"></animate>
</path><path d="M406.5 415 L406.5 -20.224028551542943 A5.5 5.5 0 0 1 418.5 -20.224028551542943 L418.5 415" fill="#fff">
  <animateTransform attributeName="transform" type="translate" dur="1.8518518518518514s" repeatCount="indefinite" keyTimes="0;0.5;1" calcMode="spline" keySplines="0.5 0 0.5 1;0.5 0 0.5 1" values="0 0;0 0;0 0" begin="-13.703703703703702s"></animateTransform>
</path><path d="M406.5 -9.224028551542943 L406.5 24.336944634278098 A5.5 5.5 0 0 0 418.5 24.336944634278098 L418.5 -9.224028551542943 A5.5 5.5 0 0 0 406.5 -9.224028551542943" fill="#fff">
  <animateTransform attributeName="transform" type="translate" dur="2.7777777777777772s" repeatCount="indefinite" keyTimes="0;1" values="0;0" begin="-13.703703703703702s"></animateTransform>
  <animate attributeName="opacity" dur="2.7777777777777772s" repeatCount="indefinite" keyTimes="0;0.3;1" values="1;1;0" begin="-13.703703703703702s"></animate>
</path><path d="M417.5 415 L417.5 5.0879248485859705 A5.5 5.5 0 0 0 429.5 5.0879248485859705 L429.5 415" fill="#fff">
  <animateTransform attributeName="transform" type="translate" dur="2.7777777777777772s" repeatCount="indefinite" keyTimes="0;0.5;1" calcMode="spline" keySplines="0.5 0 0.5 1;0.5 0 0.5 1" values="0 0;0 0;0 0" begin="-14.07407407407407s"></animateTransform>
</path><path d="M417.5 152.6776292957927 L417.5 179.35525859158543 A5.5 5.5 0 0 0 429.5 179.35525859158543 L429.5 152.6776292957927 A5.5 5.5 0 0 0 417.5 152.6776292957927" fill="#000">
  <animateTransform attributeName="transform" type="translate" dur="2.7777777777777772s" repeatCount="indefinite" keyTimes="0;1" values="0 0;0 -287.4632439854254" begin="-14.07407407407407s"></animateTransform>
  <animate attributeName="opacity" dur="2.7777777777777772s" repeatCount="indefinite" keyTimes="0;0.3;1" values="1;1;0" begin="-14.07407407407407s"></animate>
</path><path d="M428.5 415 L428.5 -54.41286730494909 A5.5 5.5 0 0 1 440.5 -54.41286730494909 L440.5 415" fill="#fff">
  <animateTransform attributeName="transform" type="translate" dur="1.8518518518518514s" repeatCount="indefinite" keyTimes="0;0.5;1" calcMode="spline" keySplines="0.5 0 0.5 1;0.5 0 0.5 1" values="0 0;0 0;0 0" begin="-14.444444444444443s"></animateTransform>
</path><path d="M428.5 -43.41286730494909 L428.5 -30.74529110765924 A5.5 5.5 0 0 0 440.5 -30.74529110765924 L440.5 -43.41286730494909 A5.5 5.5 0 0 0 428.5 -43.41286730494909" fill="#fff">
  <animateTransform attributeName="transform" type="translate" dur="5.5555555555555545s" repeatCount="indefinite" keyTimes="0;1" values="0;0" begin="-14.444444444444443s"></animateTransform>
  <animate attributeName="opacity" dur="5.5555555555555545s" repeatCount="indefinite" keyTimes="0;0.3;1" values="1;1;0" begin="-14.444444444444443s"></animate>
</path><path d="M439.5 415 L439.5 8.451857391616358 A5.5 5.5 0 0 0 451.5 8.451857391616358 L451.5 415" fill="#fff">
  <animateTransform attributeName="transform" type="translate" dur="5.5555555555555545s" repeatCount="indefinite" keyTimes="0;0.5;1" calcMode="spline" keySplines="0.5 0 0.5 1;0.5 0 0.5 1" values="0 0;0 0;0 0" begin="-14.814814814814811s"></animateTransform>
</path><path d="M439.5 153.42882439510066 L439.5 180.85764879020132 A5.5 5.5 0 0 0 451.5 180.85764879020132 L451.5 153.42882439510066 A5.5 5.5 0 0 0 439.5 153.42882439510066" fill="#000">
  <animateTransform attributeName="transform" type="translate" dur="1.8518518518518514s" repeatCount="indefinite" keyTimes="0;1" values="0 0;0 -277.71387618247627" begin="-14.814814814814811s"></animateTransform>
  <animate attributeName="opacity" dur="1.8518518518518514s" repeatCount="indefinite" keyTimes="0;0.3;1" values="1;1;0" begin="-14.814814814814811s"></animate>
</path><path d="M450.5 415 L450.5 -10.586413647606747 A5.5 5.5 0 0 1 462.5 -10.586413647606747 L462.5 415" fill="#fff">
  <animateTransform attributeName="transform" type="translate" dur="2.7777777777777772s" repeatCount="indefinite" keyTimes="0;0.5;1" calcMode="spline" keySplines="0.5 0 0.5 1;0.5 0 0.5 1" values="0 0;0 0;0 0" begin="-15.185185185185183s"></animateTransform>
</path><path d="M450.5 0.4135863523932528 L450.5 14.302213772239694 A5.5 5.5 0 0 0 462.5 14.302213772239694 L462.5 0.4135863523932528 A5.5 5.5 0 0 0 450.5 0.4135863523932528" fill="#fff">
  <animateTransform attributeName="transform" type="translate" dur="2.7777777777777772s" repeatCount="indefinite" keyTimes="0;1" values="0;0" begin="-15.185185185185183s"></animateTransform>
  <animate attributeName="opacity" dur="2.7777777777777772s" repeatCount="indefinite" keyTimes="0;0.3;1" values="1;1;0" begin="-15.185185185185183s"></animate>
</path><path d="M461.5 415 L461.5 15.072982996581473 A5.5 5.5 0 0 0 473.5 15.072982996581473 L473.5 415" fill="#fff">
  <animateTransform attributeName="transform" type="translate" dur="1.8518518518518514s" repeatCount="indefinite" keyTimes="0;0.5;1" calcMode="spline" keySplines="0.5 0 0.5 1;0.5 0 0.5 1" values="0 0;0 0;0 0" begin="-15.555555555555552s"></animateTransform>
</path><path d="M461.5 154.54243051454716 L461.5 183.08486102909433 A5.5 5.5 0 0 0 473.5 183.08486102909433 L473.5 154.54243051454716 A5.5 5.5 0 0 0 461.5 154.54243051454716" fill="#000">
  <animateTransform attributeName="transform" type="translate" dur="5.5555555555555545s" repeatCount="indefinite" keyTimes="0;1" values="0 0;0 -278.14603739476496" begin="-15.555555555555552s"></animateTransform>
  <animate attributeName="opacity" dur="5.5555555555555545s" repeatCount="indefinite" keyTimes="0;0.3;1" values="1;1;0" begin="-15.555555555555552s"></animate>
</path><path d="M472.5 415 L472.5 -65.09648064007135 A5.5 5.5 0 0 1 484.5 -65.09648064007135 L484.5 415" fill="#fff">
  <animateTransform attributeName="transform" type="translate" dur="1.8518518518518514s" repeatCount="indefinite" keyTimes="0;0.5;1" calcMode="spline" keySplines="0.5 0 0.5 1;0.5 0 0.5 1" values="0 0;0 0;0 0" begin="-15.925925925925924s"></animateTransform>
</path><path d="M472.5 -54.09648064007135 L472.5 -42.661461228338496 A5.5 5.5 0 0 0 484.5 -42.661461228338496 L484.5 -54.09648064007135 A5.5 5.5 0 0 0 472.5 -54.09648064007135" fill="#fff">
  <animateTransform attributeName="transform" type="translate" dur="1.8518518518518514s" repeatCount="indefinite" keyTimes="0;1" values="0;0" begin="-15.925925925925924s"></animateTransform>
  <animate attributeName="opacity" dur="1.8518518518518514s" repeatCount="indefinite" keyTimes="0;0.3;1" values="1;1;0" begin="-15.925925925925924s"></animate>
</path><path d="M483.5 415 L483.5 10.767201183942177 A5.5 5.5 0 0 0 495.5 10.767201183942177 L495.5 415" fill="#fff">
  <animateTransform attributeName="transform" type="translate" dur="2.7777777777777772s" repeatCount="indefinite" keyTimes="0;0.5;1" calcMode="spline" keySplines="0.5 0 0.5 1;0.5 0 0.5 1" values="0 0;0 0;0 0" begin="-16.29629629629629s"></animateTransform>
</path><path d="M483.5 149.56170395802746 L483.5 173.12340791605493 A5.5 5.5 0 0 0 495.5 173.12340791605493 L495.5 149.56170395802746 A5.5 5.5 0 0 0 483.5 149.56170395802746" fill="#000">
  <animateTransform attributeName="transform" type="translate" dur="5.5555555555555545s" repeatCount="indefinite" keyTimes="0;1" values="0 0;0 -196.8259920121462" begin="-16.29629629629629s"></animateTransform>
  <animate attributeName="opacity" dur="5.5555555555555545s" repeatCount="indefinite" keyTimes="0;0.3;1" values="1;1;0" begin="-16.29629629629629s"></animate>
</path>    </g>
  </mask>
</defs>
<rect x="0" y="0" width="493" height="115" fill="url(#ldbk-photon-h0tuqzl8ez-lg)" mask="url(#ldbk-photon-h0tuqzl8ez-mask)"></rect></g>
</svg>