<?xml version="1.0" encoding="utf-8"?>
<svg viewBox="0 0 570 200.47" xmlns="http://www.w3.org/2000/svg" xmlns:xlink="http://www.w3.org/1999/xlink">
  <defs>
    <linearGradient id="linear-gradient-2" x1="285" y1="-150.13" x2="285" y2="492.46" gradientUnits="userSpaceOnUse">
      <stop offset="0.31" stop-color="#646d8a" stop-opacity="0.1"/>
      <stop offset="0.33" stop-color="#696880" stop-opacity="0.19"/>
      <stop offset="0.38" stop-color="#775b63" stop-opacity="0.43"/>
      <stop offset="0.43" stop-color="#83504b" stop-opacity="0.64"/>
      <stop offset="0.48" stop-color="#8c4739" stop-opacity="0.8"/>
      <stop offset="0.53" stop-color="#92412b" stop-opacity="0.91"/>
      <stop offset="0.59" stop-color="#963d24" stop-opacity="0.98"/>
      <stop offset="0.66" stop-color="#973c21"/>
    </linearGradient>
    <linearGradient id="linear-gradient-3" x1="476.94" y1="170.09" x2="441.92" y2="153.95" xlink:href="#linear-gradient-2"/>
    <linearGradient id="linear-gradient-4" x1="476.67" y1="133.49" x2="398.21" y2="151.1" xlink:href="#linear-gradient-2"/>
    <linearGradient id="linear-gradient-5" x1="432.95" y1="119.51" x2="340.08" y2="146.77" xlink:href="#linear-gradient-2"/>
    <linearGradient id="linear-gradient-7" x1="369.26" y1="137.1" x2="287.08" y2="140.82" xlink:href="#linear-gradient-2"/>
    <linearGradient id="linear-gradient-8" x1="129.86" y1="245.46" x2="134.55" y2="4.42" xlink:href="#linear-gradient-2"/>
    <linearGradient id="linear-gradient-9" x1="224.25" y1="178.99" x2="250.1" y2="178.99" xlink:href="#linear-gradient-2"/>
    <linearGradient id="linear-gradient-10" x1="314.93" y1="206.69" x2="211.76" y2="152.95" xlink:href="#linear-gradient-2"/>
    <linearGradient id="linear-gradient-11" x1="376.04" y1="198.9" x2="298.66" y2="163.87" xlink:href="#linear-gradient-2"/>
    <linearGradient id="linear-gradient-12" x1="430.35" y1="194.9" x2="365.14" y2="144.03" xlink:href="#linear-gradient-2"/>
  </defs>
  <g style="isolation:isolate">
    <g id="Promotion_Image_Template" style="">
      <g id="Background_5" data-name="Background 5" style="">
        <rect id="Fill" x="0.3" width="569.7" height="201.587" style="fill: rgb(0, 109, 145);" y="-0.587"/>
        <polygon id="Shadow" points="177.18 200 60.55 193.99 46.99 137.07 230.45 132.24 151.5 132.24 153.58 99.69 244.86 98.28 85.04 94.15 87.72 80.53 184.09 76.44 59.99 73.12 62.07 18.98 260 12.28 131.4 12.28 131.4 0.31 0 0.31 0 200 177.18 200" style="fill:#bd6f95;opacity:0.23;mix-blend-mode:multiply"/>
        <polygon id="Shadow-2" data-name="Shadow" points="525.1 1 525.1 18.69 326.48 18.69 518.95 27.86 525.1 54.5 400.81 54.5 494.79 58.66 498.74 71.65 344.71 76.74 477.29 82.31 486.04 130.28 246.21 132.49 510.15 138.8 483 184.39 334.68 188.5 457.17 199.44 570 201 570 1 525.1 1" style="fill:#bd6f95;opacity:0.23;mix-blend-mode:multiply"/>
      </g>
      <path d="M470,158.85h0c0-1.19-4.75-2.16-10.6-2.16s-10.59,1-10.59,2.16a6.74,6.74,0,0,0-.07,1.64c-1.71.39-2.77.89-2.77,1.45a5,5,0,0,0,0,1.88c0,1.19,4.75,2.15,10.6,2.15,5.64,0,10.25-.9,10.56-2h0a3.88,3.88,0,0,0,.05-1.76c1.6-.36,2.62-.82,2.76-1.33h0A3.88,3.88,0,0,0,470,158.85Z" style="opacity:0.32;mix-blend-mode:multiply;fill:url(#linear-gradient-3)"/>
      <path d="M449.2,131.52v-.12h.94l-.07-4.49-6-.1c2.3-2.28,1.85-3.68,1.85-3.68l-2.61-1.71a5.14,5.14,0,0,0-1.27.46c.45-3.17-.75-4-.75-4l-3.12.21c-1.09,1.24-1.62,3.39-1.87,5.47h-.08c-.19-.58-.4-1.16-.64-1.72,0-.1-.59-.25-.59-.25l.22-.56-1.08-.3s.56-.66.43-.86a5.88,5.88,0,0,0-1.48-1.6l-3.14.53s-.67.72-.34,2.58a5.22,5.22,0,0,0-1.61-.61l-2.61,1.8s-.57,1.75,2.6,4.38l-.44.06h0l-.23,0-.32,0-2.34.28h0l-2.72.34-.22,3.48h.57l-2.83,33.07H452ZM442.53,125a10.85,10.85,0,0,1-1.31,1.78h-.65c.06-.15.13-.3.18-.43A20.72,20.72,0,0,1,442.53,125Zm-2.8-1.5c-.27.23-.53.47-.79.71a20.69,20.69,0,0,1,.76-2.81A9.77,9.77,0,0,1,439.73,123.49ZM433.79,125l0,.06c-.37-.43-.77-.87-1.19-1.3a9.17,9.17,0,0,1-.37-2A18.59,18.59,0,0,1,433.79,125Zm-5.11-.65a18.61,18.61,0,0,1,2.86,2.29h-.85l-.2,0A10.66,10.66,0,0,1,428.68,124.32Z" style="opacity:0.32;mix-blend-mode:multiply;fill:url(#linear-gradient-4)"/>
      <path d="M411.05,153.77l0-10.36,0-15.22h0v-1.5l1.28,0-.1-12-14.5.13a58.77,58.77,0,0,0-1.53-5.93s-.75-.54-2.88.36a8.23,8.23,0,0,0-2,1.21,7.56,7.56,0,0,0,.75-4.36,6.14,6.14,0,0,0-1.7-3.45,3.13,3.13,0,0,0-2.08-1.08l-8.52.08v0c-1.62-.18-3,1.82-1.61,8.86.44,2.25,0,3.37-.54,3.93a4.9,4.9,0,0,1-1.2-3.07c-.66-6-2.34-7.62-3.66-7.44v0l-7.21.07a1.88,1.88,0,0,0-1.47,1,4.06,4.06,0,0,0-.54,2.94,7.72,7.72,0,0,0,1.37,3.15,7,7,0,0,0-.81-.26c-2.32-.59-2.95,0-2.95,0s-.18,2-.2,4.4l-12.75.13.1,11.89h.94L348.45,163l16.54.43v.08l7.55.12,16.26.42,7.82-1h0l6.31-.77h0l8.13-1ZM384.51,115h0l.12-.09a7.33,7.33,0,0,0,1.35-.16l-.3.24Z" style="opacity:0.32;mix-blend-mode:multiply;fill:url(#linear-gradient-5)"/>
      <path d="M345.21,110.56l-2.54-.26c1.77-1.61,2.74-2.93,2.55-3.64l0,0a4.82,4.82,0,0,0-1.31-2.16h0c-.59-1-4.1,0-8.55,2.2-1.36-1-2.9-1.92-4.57-2.87-.59-.34-1.17-.66-1.75-1,.57-.28.9-.58,1-.89h0a5,5,0,0,0,0-2.52h0c0-1.51-6-2.72-13.39-2.72a60,60,0,0,0-6.12.3,41.66,41.66,0,0,0-11.16,2,60,60,0,0,0-6,2.12A4.94,4.94,0,0,0,292,99.05h0c-.84-1.25-6.5,1-12.66,5.15a59.15,59.15,0,0,0-4.86,3.59c-3.65-1.54-6.39-2.1-6.88-1.23a6.39,6.39,0,0,0-1.18,2.06c-.36.63.55,1.91,2.29,3.46.11,1.16.22,2.3.34,3.45.17,1.58.33,3.16.53,4.74,2,18.12,5,36.46,8.65,55q4.49,1.58,8.94,3h0l.66.22.09,0,.07,0,.7.21c2.83.9,5.65,1.75,8.45,2.53v-.1h0c2.93.78-.35,2.06-.35,2.06.31-.05,32.79-9,35.78-10.18,2.45-20.67,11.58-40.5,12.51-60.4C345.3,111.57,345.47,110.56,345.21,110.56Zm-55.56-2.12-1.45.24-1.1.19-1,.17c.66-.48,1.29-1,1.88-1.44a.7.7,0,0,0,.06.09C288.16,108.09,288.74,108.33,289.65,108.44Zm12.71-2.16.54.24-1-.09-.17,0Z" style="opacity:0.32;mix-blend-mode:multiply;fill:url(#linear-gradient-7)"/>
      <polyline points="260.01 111.65 292.55 107.85 336.47 110.17 293.2 106.05 260.01 111.65" style="fill:#e03279;opacity:0.71;mix-blend-mode:multiply"/>
      <ellipse cx="282.64" cy="109.11" rx="13.39" ry="2.72" style="fill:#e39a44"/>
      <path d="M296,106.74a5,5,0,0,1,0,2.52l-2.59.2.31-1.2Z" style="fill:#e39a44"/>
      <path d="M269.25,106.74a6.3,6.3,0,0,0,0,2.37c.29.56,2.67.35,2.67.35l-1.55-2.54Z" style="fill:#e39a44"/>
      <path d="M296,106.74c0,1.5-6,2.72-13.39,2.72s-13.39-1.22-13.39-2.72,6-2.73,13.39-2.73S296,105.23,296,106.74Z" style="fill:#f4e573"/>
      <path d="M293.44,106.51c0,1-4.63,1.75-10.33,1.75s-10.34-.79-10.34-1.75,4.63-1.75,10.34-1.75S293.44,105.54,293.44,106.51Z" style="fill:#f4a43f;opacity:0.56"/>
      <path d="M273.09,106.93s2.56-1.46,10.33-1.41c8.82.06,9.36,1.6,9.36,1.6s1.09-.39.5-.92-3.28-1.46-9.63-1.44c-6.13,0-10.88.68-10.88,1.75Z" style="fill:#e09438"/>
      <path d="M269.07,79.44l-.15-.14-.28-.27-.46-.4-.41-.34,0,0,.1.11.28.28.41.45.25.28.13.15.14.16c.19.22.38.47.58.72l.3.41.31.43.3.45.3.47c.2.32.39.65.58,1s.37.67.53,1l.25.5c.08.17.16.33.23.5.15.32.29.64.42.94s.25.6.35.87l.29.74.21.57.13.38,0,.13h0a17.13,17.13,0,0,0-.49-1.88c-.17-.56-.4-1.2-.68-1.87-.14-.34-.29-.69-.46-1s-.34-.69-.53-1-.39-.67-.6-1l-.32-.47-.32-.45-.33-.43-.33-.39c-.22-.25-.43-.49-.64-.7Z" style="fill:#fff3a9"/>
      <path d="M256.39,97.12l.95.43.83.42.7.37.54.29.34.19.12.07,0,0a18.1,18.1,0,0,0-1.61-1.09c-.5-.3-1.09-.63-1.75-1-.33-.16-.67-.31-1-.46s-.72-.29-1.08-.42-.74-.25-1.11-.35l-.55-.15-.54-.12-.53-.11-.51-.08c-.33,0-.65-.08-.94-.1h-.42l-.37,0h-.62l-.53,0v0l.14,0,.4,0,.6.06.37,0,.2,0,.21,0c.29,0,.59.1.92.16l.49.1c.17,0,.34.08.52.12l.52.14.54.16c.36.11.72.22,1.08.36s.72.25,1.07.4l.51.21Z" style="fill:#fff3a9"/>
      <path d="M292.53,73.28c.07.16.14.35.24.56l.13.35c0,.07.05.13.07.19l.08.2c.1.27.19.57.3.87l.14.48.15.51.14.52c0,.18.08.36.12.54.09.37.17.74.23,1.11s.14.75.19,1.12l0,.27,0,.28c0,.18.05.36.07.54,0,.35.08.7.11,1l.07.92.06.79,0,.62,0,.39v.14h.05a16.7,16.7,0,0,0,.15-1.94c0-.58,0-1.26,0-2,0-.37-.06-.74-.11-1.12s-.1-.77-.17-1.15-.16-.77-.25-1.14l-.15-.55-.17-.53-.17-.51-.19-.48c-.12-.31-.25-.6-.38-.86l-.09-.19-.09-.19-.18-.33c-.12-.21-.22-.39-.31-.53l-.28-.45-.05,0,.06.13A3.6,3.6,0,0,0,292.53,73.28Z" style="fill:#fff3a9"/>
      <path d="M308.86,85.72s.05-.19.17-.51.29-.76.52-1.3.53-1.14.88-1.78c.18-.31.36-.64.57-1s.41-.65.63-1,.46-.63.69-.93l.36-.44.36-.42.36-.39.37-.36q.36-.35.69-.63l.16-.14.16-.12.29-.24.49-.36.44-.3,0-.08-.14,0c-.09,0-.23.06-.4.13a6,6,0,0,0-.58.25c-.22.11-.48.23-.74.39l-.4.26-.41.3c-.14.1-.27.22-.42.34s-.27.24-.41.37a10.93,10.93,0,0,0-.81.85,11.65,11.65,0,0,0-.74,1c-.23.33-.45.67-.65,1s-.37.69-.53,1-.29.69-.4,1c-.06.17-.11.33-.16.48s-.09.31-.12.45c-.08.3-.13.57-.17.81s-.07.46-.09.63a3.57,3.57,0,0,0,0,.42v.14Z" style="fill:#fff3a9"/>
      <path d="M326,90.06c.47-.33,1-.7,1.68-1.06.31-.18.65-.36,1-.53s.69-.33,1.05-.48.71-.3,1.07-.44l.53-.18.53-.17.52-.14.5-.12c.32-.07.63-.13.92-.17l.21,0,.2,0,.37,0,.61,0,.54,0v0l-.14,0c-.1,0-.23,0-.4,0l-.63,0c-.24,0-.51,0-.81,0l-.46,0-.5.06-.52.09-.53.12-.55.15-.56.17c-.37.13-.74.27-1.11.43l-.54.25-.52.27c-.35.17-.68.38-1,.57s-.61.41-.89.61l-.39.3-.36.29c-.23.19-.42.38-.6.54s-.32.32-.43.45l-.27.3-.09.12,0,0A16.48,16.48,0,0,1,326,90.06Z" style="fill:#fff3a9"/>
      <path d="M338.33,101.46l-.44.15c-.28.09-.53.19-.75.28l-.57.25-.35.18-.12.07v0a16.1,16.1,0,0,1,1.84-.6,18.37,18.37,0,0,1,1.94-.43c.36-.07.73-.12,1.11-.17s.77-.08,1.16-.1.77,0,1.15,0h.57l.55,0,.54,0,.51.06c.33,0,.64.09.92.15l.21,0,.2,0,.37.09.59.16.51.17v0l-.13-.06-.36-.17-.58-.22c-.23-.07-.48-.17-.77-.24L346,101l-.49-.1-.51-.08-.55-.07-.56,0-.58,0-1.18,0-.59,0-.58.07c-.39,0-.76.12-1.12.2s-.71.16-1,.25Z" style="fill:#fff3a9"/>
      <polygon points="274.92 111.22 276.5 108.33 278.09 111.22 280.98 112.81 278.09 114.39 276.5 117.29 274.92 114.39 272.02 112.81 274.92 111.22" style="fill:#fff6ca;opacity:0.30000000000000004"/>
      <polygon points="280.62 86.78 281.96 84.33 283.3 86.78 285.76 88.13 283.3 89.47 281.96 91.93 280.62 89.47 278.16 88.13 280.62 86.78" style="fill:#fff6ca;opacity:0.30000000000000004"/>
      <polygon points="308.27 92.15 310.33 88.38 312.39 92.15 316.15 94.21 312.39 96.27 310.33 100.03 308.27 96.27 304.5 94.21 308.27 92.15" style="fill:#fff6ca;opacity:0.30000000000000004"/>
      <polygon points="326.48 98.86 327.43 97.13 328.38 98.86 330.12 99.81 328.38 100.76 327.43 102.5 326.48 100.76 324.74 99.81 326.48 98.86" style="fill:#fff6ca;opacity:0.30000000000000004"/>
      <polygon points="330.2 110.28 331.08 108.66 331.96 110.28 333.57 111.16 331.96 112.04 331.08 113.66 330.2 112.04 328.58 111.16 330.2 110.28" style="fill:#fff6ca;opacity:0.30000000000000004"/>
      <polygon points="265.94 95.11 267.96 91.41 269.98 95.11 273.67 97.13 269.98 99.15 267.96 102.84 265.94 99.15 262.25 97.13 265.94 95.11" style="fill:#fff6ca;opacity:0.30000000000000004"/>
      <path d="M293.44,106.51l3.76,76.38S298.15,143.6,293.44,106.51Z" style="fill:#e03279;mix-blend-mode:screen"/>
      <polygon points="260.01 111.65 293.75 108.26 336.47 110.17 293.2 106.05 260.01 111.65" style="fill:#e03279;opacity:0.32;mix-blend-mode:multiply"/>
      <g id="Obj">
        <path d="M388.85,108.86a55.89,55.89,0,0,1,1.87,8c.51,3.76-9.74,2.54-10.39,2.35s-3.39-1.25-3.27-1.89,2.18-3.23,3.07-3.47S388.85,108.86,388.85,108.86Z" style="fill:#fff2e3"/>
        <path d="M378.55,115.2c3.15-3.35,9.6-1.91,10.3-6.34,0,0-.76-.54-2.89.36-1.79.75-2.7,2-6.26,4.69C373.68,118.5,378.55,115.2,378.55,115.2Z" style="fill:#a8b3c7"/>
        <path d="M353.8,110.79a52.92,52.92,0,0,0-.07,8.08c.34,3.75,10.25,1.18,10.85.91s3.09-1.68,2.82-2.28-2.89-2.87-3.82-3S353.8,110.79,353.8,110.79Z" style="fill:#e8e0d9"/>
        <path d="M365.44,115.61c-3.88-2.86-9.95-.58-11.64-4.82,0,0,.63-.63,2.95,0,1.94.5,3.12,1.57,7.26,3.75C371,118.18,365.44,115.61,365.44,115.61Z" style="fill:#a8b3c7"/>
        <path d="M371.15,115.12l-5.64.93-.65-.83-.12-.07c-4,0-8-3.81-8.55-7.29a4.11,4.11,0,0,1,.54-2.94,1.91,1.91,0,0,1,1.47-1l7.21-.07,3.64,9.35.4.54.41.55Z" style="fill:#fff2e3"/>
        <path d="M371.15,115.12l-5.64.93-.65-.83-.12-.07c-4,0-8-3.81-8.55-7.29.86,2.2,7.22,4.83,13.26,5.93l.41.55Z" style="fill:#e8e0d9"/>
        <path d="M372.11,115.08c-5.18,0-10.43-6.52-8-10.23,1.14-1.76,4.06-1.83,5,6.51C369.55,115.6,372.11,115.08,372.11,115.08Z" style="fill:#a8b3c7"/>
        <path d="M369.3,114.93l7.43,1,.46-1,.12-.09c4.7,0,8-4.69,7.42-8.79a6.14,6.14,0,0,0-1.7-3.45,3.13,3.13,0,0,0-2.08-1.08l-8.52.08-.89,11.1-.27.64L371,114l-1,.73Z" style="fill:#fff2e3"/>
        <path d="M369.4,114.91l7.32,1,.46-1,.11-.09c4.7,0,8-4.68,7.43-8.79-.21,2.62-6.75,5.86-13.47,7.3L371,114l-1,.73Z" style="fill:#e8e0d9"/>
        <path d="M368.6,115c6.13-.07,9.92-7.92,5.73-12.24-2-2-5.45-2.06-3.51,7.79C371.8,115.5,368.6,115,368.6,115Z" style="fill:#a8b3c7"/>
        <polygon points="404.88 114.67 404.98 126.61 403.69 126.63 403.71 143.35 403.73 153.71 403.74 161.19 381.48 163.94 381.04 114.86 404.88 114.67" style="fill:#9bc8ed"/>
        <polygon points="381.48 163.94 341.13 162.9 341.89 127.2 340.95 127.22 340.85 115.32 382.17 114.9 381.48 163.94" style="fill:#648ec4"/>
        <polygon points="387.85 126.78 387.82 126.78 342.02 127.25 342.03 128.76 389.21 128.21 389.69 161.33 395.49 128.35 403.7 128.13 403.69 126.62 387.85 126.78" style="fill:#2dbcd3;opacity:0.56;mix-blend-mode:multiply"/>
        <polygon points="395.62 162.19 389.31 162.97 391.17 126.75 391.06 114.8 396.39 114.75 396.49 126.7 395.62 162.19" style="fill:#e2e1dc"/>
        <polygon points="366.48 115.06 365.57 131.01 365.22 163.52 357.67 163.4 358.5 131.08 359.53 115.13 366.48 115.06" style="fill:#f2f2f2"/>
        <polyline points="366.69 118.49 363.54 119.79 364.71 122.17 362.92 124.88 365.04 124.98 367.38 125.1" style="fill:#648ec4"/>
        <polyline points="359.37 142.76 361.64 140.22 359.56 138.58 359.99 135.37 358.03 136.19 355.88 137.11" style="fill:#648ec4"/>
        <path d="M366.12,143.64a51.13,51.13,0,0,0-1.92-5l.66-1.25.69-4.59" style="fill:#648ec4"/>
        <polyline points="389.64 124.06 392.75 121.68 390.68 118.98 392.17 117.21 390.63 116.28" style="fill:#9bc8ed"/>
        <polyline points="365.71 110.24 362.88 109.74 362.95 107.11 361.69 105.06 364.97 105.05" style="fill:#a8b3c7"/>
        <polyline points="374.65 109.65 377.06 109.8 375.16 106.98" style="fill:#a8b3c7"/>
        <polyline points="355.71 111.56 354.83 113.46 357.04 112.62" style="fill:#a8b3c7"/>
        <path d="M386.21,111s2.49.56,2.48.51-.92-2.1-.92-2.1" style="fill:#a8b3c7"/>
      </g>
      <path d="M148.4,164.71h0c0-1.19-4.74-2.15-10.6-2.15-.7,0-1.38,0-2,0a3.74,3.74,0,0,0-.13-.87h0c0-1.19-4.74-2.16-10.59-2.16s-10.59,1-10.59,2.16a5,5,0,0,0,0,1.87c0,1.19,4.74,2.16,10.59,2.16.71,0,1.4,0,2.07,0a2.16,2.16,0,0,0,.1.87c0,1.19,4.74,2.15,10.59,2.15,5.65,0,10.25-.9,10.57-2h0A3.88,3.88,0,0,0,148.4,164.71Z" style="opacity:0.32;mix-blend-mode:multiply;fill:url(#linear-gradient-8)"/>
      <ellipse cx="270.86" cy="114.74" rx="2.72" ry="13.39" transform="translate(37.02 293.21) rotate(-60.31)" style="fill:#e39a44"/>
      <path d="M283.66,119.31a4.82,4.82,0,0,1-1.25,2.19l-2.34-1.11.86-.89Z" style="fill:#e39a44"/>
      <path d="M260.4,106.05s-1.15,1.42-1.17,2.06,2.14,1.62,2.14,1.62l-.09-3Z" style="fill:#e39a44"/>
      <path d="M283.66,119.31c-.74,1.31-6.55-.6-13-4.27s-11-7.69-10.28-9,6.56.6,13,4.26S284.41,118,283.66,119.31Z" style="fill:#f4e573"/>
      <path d="M281.53,117.83c-.48.84-4.89-.77-9.85-3.6s-8.58-5.8-8.11-6.64,4.89.77,9.85,3.6S282,117,281.53,117.83Z" style="fill:#f4a43f;opacity:0.56"/>
      <path d="M263.63,108.12s3,0,9.68,3.89c7.63,4.42,7.34,6,7.34,6s1.14.2.89-.56-2.13-2.89-7.65-6c-5.33-3-9.79-4.79-10.32-3.87Z" style="fill:#e09438"/>
      <ellipse cx="274.97" cy="107.93" rx="13.39" ry="2.72" transform="translate(-13.75 170.36) rotate(-33.63)" style="fill:#e39a44"/>
      <path d="M284.8,98.54a4.93,4.93,0,0,1,1.4,2.1l-2.05,1.6-.41-1.17Z" style="fill:#e39a44"/>
      <path d="M262.5,113.37s.76,1.67,1.32,2,2.41-1.19,2.41-1.19l-2.69-1.26Z" style="fill:#e39a44"/>
      <path d="M284.8,98.54c.83,1.25-3.48,5.59-9.64,9.68s-11.82,6.4-12.66,5.15,3.49-5.59,9.64-9.68S284,97.29,284.8,98.54Z" style="fill:#f4e573"/>
      <path d="M282.52,99.78c.53.81-2.89,4-7.64,7.18s-9,5.07-9.57,4.27,2.88-4,7.63-7.18S282,99,282.52,99.78Z" style="fill:#f4a43f;opacity:0.56"/>
      <path d="M265.81,111.41s1.32-2.64,7.82-6.9c7.37-4.83,8.68-3.85,8.68-3.85s.69-.93-.1-1-3.53.6-8.82,4.13c-5.09,3.4-8.67,6.59-8.08,7.48Z" style="fill:#e09438"/>
      <ellipse cx="293.64" cy="103.38" rx="13.39" ry="2.72" transform="translate(-17.26 87.56) rotate(-16.48)" style="fill:#e39a44"/>
      <path d="M305.8,97.3a4.84,4.84,0,0,1,.72,2.42l-2.43.93,0-1.24Z" style="fill:#e39a44"/>
      <path d="M280.13,104.9a6.29,6.29,0,0,0,.67,2.28c.44.46,2.66-.43,2.66-.43l-2.2-2Z" style="fill:#e39a44"/>
      <path d="M305.8,97.3c.43,1.44-5,4.31-12.06,6.41s-13.18,2.63-13.61,1.19,5-4.31,12.06-6.41S305.38,95.86,305.8,97.3Z" style="fill:#f4e573"/>
      <path d="M303.26,97.82c.27.92-3.94,3-9.41,4.61s-10.13,2.18-10.41,1.25,3.94-3,9.41-4.61S303,96.89,303.26,97.82Z" style="fill:#f4a43f;opacity:0.56"/>
      <path d="M283.86,104s2.05-2.13,9.51-4.28c8.47-2.45,9.43-1.13,9.43-1.13s.94-.68.22-1-3.56-.47-9.65,1.35c-5.87,1.75-10.23,3.74-9.93,4.76Z" style="fill:#e09438"/>
      <ellipse cx="309.47" cy="101.29" rx="13.39" ry="2.72" style="fill:#e39a44"/>
      <path d="M322.86,98.92a5,5,0,0,1,0,2.52l-2.59.2.31-1.2Z" style="fill:#e39a44"/>
      <path d="M296.08,98.92a6.3,6.3,0,0,0,0,2.37c.29.57,2.67.35,2.67.35l-1.54-2.54Z" style="fill:#e39a44"/>
      <path d="M322.86,98.92c0,1.5-6,2.72-13.39,2.72s-13.39-1.22-13.39-2.72,6-2.72,13.39-2.72S322.86,97.41,322.86,98.92Z" style="fill:#f4e573"/>
      <path d="M320.27,98.69c0,1-4.63,1.75-10.33,1.75s-10.33-.79-10.33-1.75,4.62-1.75,10.33-1.75S320.27,97.72,320.27,98.69Z" style="fill:#f4a43f;opacity:0.56"/>
      <path d="M299.92,99.11s2.56-1.46,10.33-1.41c8.82.06,9.36,1.6,9.36,1.6s1.09-.39.5-.92-3.28-1.45-9.63-1.44c-6.13,0-10.87.68-10.87,1.75Z" style="fill:#e09438"/>
      <ellipse cx="303.73" cy="105.9" rx="2.72" ry="13.39" transform="translate(122.07 371.35) rotate(-74.84)" style="fill:#e39a44"/>
      <path d="M317.27,107.11a4.82,4.82,0,0,1-.66,2.43l-2.55-.48.61-1.08Z" style="fill:#e39a44"/>
      <path d="M291.43,100.1a6.17,6.17,0,0,0-.62,2.29c.13.63,2.48,1,2.48,1l-.83-2.85Z" style="fill:#e39a44"/>
      <path d="M317.27,107.11c-.39,1.45-6.5,1.06-13.63-.88s-12.61-4.68-12.21-6.13,6.49-1.06,13.63.88S317.66,105.66,317.27,107.11Z" style="fill:#f4e573"/>
      <path d="M314.83,106.21c-.25.93-4.92.48-10.43-1s-9.77-3.46-9.51-4.4,4.92-.48,10.43,1S315.09,105.28,314.83,106.21Z" style="fill:#f4a43f;opacity:0.56"/>
      <path d="M295.08,101.3s2.86-.74,10.34,1.34c8.49,2.36,8.61,4,8.61,4s1.16-.09.73-.76-2.79-2.26-8.92-3.91c-5.92-1.59-10.67-2.19-10.95-1.16Z" style="fill:#e09438"/>
      <ellipse cx="321.06" cy="107.72" rx="2.72" ry="13.39" transform="translate(68.46 333.28) rotate(-60.31)" style="fill:#e39a44"/>
      <path d="M333.87,112.29a4.91,4.91,0,0,1-1.25,2.19l-2.35-1.11.86-.89Z" style="fill:#e39a44"/>
      <path d="M310.61,99a6.28,6.28,0,0,0-1.18,2.06c0,.63,2.14,1.62,2.14,1.62l-.08-3Z" style="fill:#e39a44"/>
      <path d="M333.87,112.29c-.75,1.31-6.56-.6-13-4.27s-11-7.69-10.28-9,6.55.6,13,4.26S334.61,111,333.87,112.29Z" style="fill:#f4e573"/>
      <path d="M331.73,110.81c-.48.84-4.88-.77-9.84-3.6s-8.59-5.8-8.11-6.64,4.89.77,9.84,3.6S332.21,110,331.73,110.81Z" style="fill:#f4a43f;opacity:0.56"/>
      <path d="M313.84,101.1s3,0,9.67,3.89c7.64,4.42,7.34,6,7.34,6s1.15.2.9-.55-2.13-2.89-7.66-6c-5.33-3-9.78-4.79-10.31-3.87Z" style="fill:#e09438"/>
      <ellipse cx="326.46" cy="112.91" rx="13.39" ry="2.72" transform="translate(-11.42 184.74) rotate(-31.08)" style="fill:#e39a44"/>
      <path d="M336.71,104a5,5,0,0,1,1.3,2.17l-2.12,1.5-.35-1.19Z" style="fill:#e39a44"/>
      <path d="M313.77,117.79a6.42,6.42,0,0,0,1.23,2c.54.33,2.46-1.08,2.46-1.08l-2.63-1.37Z" style="fill:#e39a44"/>
      <path d="M336.71,104c.77,1.29-3.73,5.43-10.07,9.25s-12.09,5.86-12.87,4.58,3.73-5.43,10.06-9.25S335.93,102.68,336.71,104Z" style="fill:#f4e573"/>
      <path d="M334.37,105.1c.5.83-3.06,3.89-7.95,6.84s-9.25,4.66-9.75,3.83,3.06-3.89,7.95-6.83S333.87,104.28,334.37,105.1Z" style="fill:#f4a43f;opacity:0.56"/>
      <path d="M317.16,116s1.44-2.58,8.12-6.55c7.58-4.5,8.84-3.46,8.84-3.46s.73-.9-.05-1-3.56.45-9,3.74c-5.24,3.17-9,6.2-8.41,7.11Z" style="fill:#e09438"/>
      <path d="M338,110v0c-.89,20.54-2.84,41.57-5.37,62.94-3,1.14-6,2.23-8.93,3.22l-2.9,1c-2.1.66-4.19,1.3-6.28,1.9-5.29,1.49-10.55,2.72-15.79,3.65q-1.4-22.22-2.51-44.47c-.18-3.47-.35-6.95-.51-10.42v-.12q-.54-10.92-1-21.83c1.6.12,3.2.26,4.81.41,3.87.32,7.75.68,11.63,1l2.39.23,2.44.22.69.08,6.36.63.87.09,4.61.47Z" style="fill:#e03279"/>
      <g style="opacity:0.2">
        <path d="M295.85,108.52q1.57,37.05,3.79,74.07l-.94.17q-2.34-37.15-3.9-74.35Z" style="fill:#f44d99"/>
      </g>
      <path d="M324.5,108.72c-.38,22.5-1.53,45.26-3,68.18q-4.87,1.59-9.71,2.88c.74-24.14,1.48-48.23,1.75-72.18Z" style="fill:#28b7c6"/>
      <path d="M321.49,176.9c3.69-1.17,7.39-2.47,11.11-3.87,2.33-19.86,4.18-39.42,5.12-58.57-.55,0,.8-4.41.25-4.42-1.09,18.64-4.88,42.06-7.16,61.38Q326.12,174.26,321.49,176.9Z" style="fill:#e03279;opacity:0.71;mix-blend-mode:multiply"/>
      <path d="M298.7,182.76c-2.9-.63-5.83-1.34-8.77-2.12-.88-.24-1.77-.48-2.67-.74Q284,179,280.79,178l-.15-.06c-3.19-1-6.39-2.06-9.61-3.18-3.67-18.53-6.65-36.87-8.65-55-.2-1.58-.36-3.16-.53-4.74-.12-1.17-.24-2.33-.34-3.5l10.75-1.87.27,0,4.71-.8.75-.13,1.87-.32c1.09-.2,2.18-.38,3.28-.56q5.78-1,11.56-1.88.45,10.92,1,21.83v.12c.16,3.47.33,6.95.51,10.42Q297.3,160.54,298.7,182.76Z" style="fill:#f54989"/>
      <path d="M289.94,180.74q-4.54-1.26-9.15-2.75l-.16-.05-.66-.22c-3.42-22.8-6.08-45.49-7.7-68.07l10.86-1.85c1.63,24.22,4,48.5,6.8,72.84Z" style="fill:#3dd2f5"/>
      <path d="M307.3,137.13c-1.08,2.42-7.58,3-11.11,1.16a4.41,4.41,0,0,1-1.83-1.62c-1.6-2.68,1.3-6.31,1.32-8.8v-.12a2.07,2.07,0,0,0-.48-1.34c-1.4-1.64-4.29.15-8.61,0a15.23,15.23,0,0,1-8.45-2.94,10,10,0,0,1-2.06-2.1c-.24-.34-.46-.72-.68-1.11a10.1,10.1,0,0,1-1-5.53c.15-1.87.77-3.1,2.89-5.93l.75-.13,1.87-.32c1.09-.2,2.18-.38,3.28-.56q5.78-1,11.56-1.88c1.6.12,3.2.26,4.81.41-.66,1.56-2.18,2.92-2.72,6.14-.66,4.12.92,7.55,2.93,11.76C303.86,132.86,308.3,134.89,307.3,137.13Z" style="fill:#606060;opacity:0.13;mix-blend-mode:multiply"/>
      <path d="M316.55,112.93c-1,.47-3.35-2.46-5.41-5.55l2.39.23,2.44.22.69.08C316.46,110,317.4,112.53,316.55,112.93Z" style="fill:#606060;opacity:0.13;mix-blend-mode:multiply"/>
      <polyline points="272.12 128.35 279.3 132.55 273.49 136.56 278.1 139.3 275.99 143 277.55 146.05 274.12 145.92" style="fill:#f54989"/>
      <path d="M257.73,102.62c.35.7.66,1.42.94,2.14s.57,1.62.8,2.44a24,24,0,0,1,.4,11c-.14.67-.32,1.33-.52,2a25.77,25.77,0,0,1-5,8.58,42.43,42.43,0,0,1-8.23,7.64A11.51,11.51,0,0,1,243.4,138a5.65,5.65,0,0,1-6.78-2.54,2.08,2.08,0,0,1-.31-.87c0-.45.35-.63.74-.73a11.38,11.38,0,0,0,2-.73A26.73,26.73,0,0,0,243,131a15,15,0,0,0,5.65-6.17,20.4,20.4,0,0,0,1.52-6.31c.11-1,.18-2,.24-3,0-.1,0-.2,0-.3a21.84,21.84,0,0,0-2.76-12.8C251,102.36,254.74,103.37,257.73,102.62Z" style="fill:#3dd2f5"/>
      <path d="M259.47,107.2a24,24,0,0,1,.4,11c-.14.67-.32,1.33-.52,2a25.77,25.77,0,0,1-5,8.58,42.43,42.43,0,0,1-8.23,7.64A11.51,11.51,0,0,1,243.4,138a5.65,5.65,0,0,1-6.78-2.54,2.08,2.08,0,0,1-.31-.87c0-.45.35-.63.74-.73a11.38,11.38,0,0,0,2-.73A26.73,26.73,0,0,0,243,131a15,15,0,0,0,5.65-6.17c.49-1.08.71-2.31,1.21-3.37a1.69,1.69,0,0,0,.32.8,7.34,7.34,0,0,0,2.61,2.58,2,2,0,0,0,2.33-.34c3.68-2.88,4.16-8,4.57-12.57a10.43,10.43,0,0,0-.31-4.76Z" style="fill:#606060;opacity:0.13;mix-blend-mode:multiply"/>
      <path d="M232.51,146.44a5.25,5.25,0,0,1,.26,2.06,10.41,10.41,0,0,1-.64,2.64l-.2.53a35.78,35.78,0,0,1-4.18,7.94,20.91,20.91,0,0,1-5.83,5.91,15.28,15.28,0,0,1-1.48.84,20.17,20.17,0,0,1-13.09,1.52h0a8.59,8.59,0,0,0-.2-2c-.43-2-1.39-4.18-1.8-6.26a17.37,17.37,0,0,0,9.86-.16l.46-.13.55-.18c1.2-.4,2.44-.83,3.63-1.34a15.25,15.25,0,0,0,3.66-2.17,12.67,12.67,0,0,0,3.68-5.85l.06-.17a24,24,0,0,0,.84-3.73c0-.3.08-.6.11-.9.07-.12.13-.25.19-.38s.39-.87.62-1.33l0,0a2.34,2.34,0,0,1,.38.09A4.75,4.75,0,0,1,232.51,146.44Z" style="fill:#3dd2f5"/>
      <path d="M231.93,151.67a35.78,35.78,0,0,1-4.18,7.94,21,21,0,0,1-5.83,5.91,13.43,13.43,0,0,1-1.48.84,20.17,20.17,0,0,1-13.09,1.52l1.94-.35c2-.39,4-1,6.1-1.52a18,18,0,0,0,4.38-1.52,6.12,6.12,0,0,0,2.15-2,2,2,0,0,0-1.73-3.31c-.62.11-1.25.19-1.86.31a4.33,4.33,0,0,1-2.67-.2l.55-.18a21.92,21.92,0,0,0,7.29-3.52,12.59,12.59,0,0,0,3.68-5.84,3.33,3.33,0,0,1,1.1-.14,4.43,4.43,0,0,1,1.76.64A10.51,10.51,0,0,1,231.93,151.67Z" style="fill:#606060;opacity:0.13;mix-blend-mode:multiply"/>
      <path d="M237.12,104.53c-1.09-.65-2.36-1.38-3.69-2-3.13-1.55-6.63-2.73-8.93-1.54-3.92,2-4.81,6.25-4.55,10.7.27,4.67,2,9.82,4,15,.63,1.57,1.29,3.15,2,4.73A65.77,65.77,0,0,0,233.11,143l.08.1.08-.06q1.86-1.44,3.75-2.86,3.33-2.52,6.73-5c3.95-5.25,7.6-12.5,4.23-20C246,110.83,241.81,107.34,237.12,104.53Zm5,12.45a16,16,0,0,1,.7,1.45,10.33,10.33,0,0,1-.37,7.89,19.71,19.71,0,0,1-7.09,8.3c-.09.06-.95.62-1.43,1-.21.16-.36.28-.34.3-.74-1.29-1.05-2.83-1.67-4.14s-1.16-2.6-1.82-4.26c-2.2-5.59-3.32-9.77-3.49-13.2-.11-2.46,0-5.45,1.78-7s6.18,1.8,8,3.17A22.71,22.71,0,0,1,242.11,117Z" style="fill:#28b7c6"/>
      <path d="M233.43,102.49l-.05,0a1.91,1.91,0,0,0-.32.16c-1.53.87-4.23,4.21-4.44,4.42-1.5,1.38-2.18,3.78-2,7.22s1.29,7.61,3.49,13.2c.66,1.66,1.24,3,1.82,4.26s1.28,2.57,2,3.84l0,.06s1.39,2.14,3.07,4.52q-1.89,1.42-3.75,2.86l-.16,0q-1.52-2-2.87-4.07a63.42,63.42,0,0,1-4.24-7.58c-.75-1.58-1.41-3.16-2-4.73a73.8,73.8,0,0,1-3.09-9.25,31.43,31.43,0,0,1-.92-5.73c-.26-4.45.63-8.67,4.55-10.7C226.8,99.76,230.3,100.94,233.43,102.49Z" style="fill:#3dd2f5"/>
      <path d="M230.25,139a5.74,5.74,0,0,0,.83.34c.5.23,1,.47,1.5.65a5.54,5.54,0,0,0,1.6.32.87.87,0,0,0,.87-.8,2.16,2.16,0,0,0-.39-1.11c-.24-.47-.51-.94-.77-1.4-.59-1-1.24-2.1-1.72-3.15s-1-2.19-1.48-3.28c-.7-1.49-1.43-3-2-4.46a45,45,0,0,1-2.34-8,18.93,18.93,0,0,1-.17-7,9,9,0,0,1,1.45-4,15.65,15.65,0,0,1,2.66-2.8,8.21,8.21,0,0,1,2.7-1.64l.08,0c-1.53.87-4.23,4.21-4.44,4.42-1.5,1.38-2.18,3.78-2,7.22s1.29,7.61,3.49,13.2c.66,1.66,1.24,3,1.82,4.26s1.28,2.57,2,3.84l0,.06s1.39,2.14,3.07,4.52q-1.89,1.42-3.75,2.86l-.16,0c-.14,0-.59-.79-.7-.94-.25-.34-.5-.68-.74-1C231.18,140.35,230.67,139.66,230.25,139Z" style="fill:#7bdeef"/>
      <path d="M234.91,141.63a52.77,52.77,0,0,0-10.39-4.38c-1.38-.41-2.75-.75-4.1-1.06-4.46-1-8.85-1.7-12.71-1.28-3.68.41-7.06,1.75-8.28,5.26-.72,2.06.68,4.79,2.36,7.15.71,1,1.47,2,2.14,2.76,2.92,3.48,6.33,6.46,10.21,7.53a12.18,12.18,0,0,0,5.7.2c4-.83,7.48-3.57,10.1-6.33q1.27-2.52,2.57-5c.21-.39.41-.79.62-1.19.61-1.17,1.22-2.33,1.84-3.49l0-.08Zm-6.53,3c-.06.13-.12.26-.19.38-1.88,3.8-5.05,7.17-9.36,8.14a8.11,8.11,0,0,1-4-.07c-2.25-.63-4.68-2.46-7.25-5.47-2.23-2.61-2.71-4.63-2.56-4.85,1-1.43,2.85-2.32,5.69-2.66s6.38,0,11.21,1.11c1.44.32,2.62.62,3.7.93s2.44.39,3.59.84c0,0-.1.11-.19.28l0,0C228.77,143.74,228.42,144.52,228.38,144.61Z" style="fill:#28b7c6"/>
      <path d="M234.91,141.63l.06.12-1.84,3.5c-2.15-1.08-4.08-1.94-4.08-1.94l-.05,0c-1.12-.44-2.25-.82-3.38-1.16s-2.26-.61-3.7-.93c-4.83-1.08-8.37-1.44-11.21-1.11s-4.73,1.23-5.69,2.66c-.17.21-3,3.38-3.23,4.58-.26-.36-.51-.73-.74-1.1s-.51-.83-.73-1.25c-.89-1.69-1.38-3.4-.89-4.8,1.22-3.51,4.6-4.85,8.28-5.26a30,30,0,0,1,7.45.28c1.72.25,3.48.6,5.26,1,1.35.31,2.72.65,4.1,1.06a52.43,52.43,0,0,1,9.85,4.09Z" style="fill:#3dd2f5"/>
      <path d="M234.91,141.63l.06.12-1.84,3.5c-2.15-1.08-4.08-1.94-4.08-1.94l-.05,0c-1.12-.44-2.25-.82-3.38-1.16s-2.26-.61-3.7-.93c-4.83-1.08-8.37-1.44-11.21-1.11s-4.73,1.23-5.69,2.66c-.17.21-3,3.38-3.23,4.58-.26-.36-.51-.73-.74-1.1l.13.05c.37.11.56-.22.71-.48a13.79,13.79,0,0,1,3.29-4.06,10.42,10.42,0,0,1,4.65-2.13,20,20,0,0,1,6.64,0,94.89,94.89,0,0,1,11.84,2.86c1.28.38,2.72.77,3.6.18.36-.25.59-.65.94-.91a2.15,2.15,0,0,1,1.52-.38Z" style="fill:#7bdeef"/>
      <path d="M233.43,102.49l-.05,0-.6-.17a14.5,14.5,0,0,0-4-.82,7.64,7.64,0,0,0-5.29,2.34,8.94,8.94,0,0,0-2.14,3,10.46,10.46,0,0,0-.53,2.46,35.26,35.26,0,0,0,0,8,31.43,31.43,0,0,1-.92-5.73c-.26-4.45.63-8.67,4.55-10.7C226.8,99.76,230.3,100.94,233.43,102.49Z" style="fill:#7bdeef"/>
      <path d="M215.16,135.19a35.59,35.59,0,0,0-8.43,1.88c-2.23.82-4.32,1.91-5.5,4a7.53,7.53,0,0,0-.91,3.95c-.89-1.69-1.38-3.4-.89-4.8,1.22-3.51,4.6-4.85,8.28-5.26A30,30,0,0,1,215.16,135.19Z" style="fill:#7bdeef"/>
      <path d="M257.73,102.63c-.08.39-.83.69-1.21.89a4.17,4.17,0,0,0-1.34.91c-.66.81-.39,2.07-1.06,2.9a3.3,3.3,0,0,1-.32-1.21,2.94,2.94,0,0,0-1.53-1.83,1.79,1.79,0,0,0-.67-.2c-.82,0-1.18.87-1.22,1.4a7.79,7.79,0,0,0,.26,2,23.38,23.38,0,0,1-.22,8.05c0-.1,0-.2,0-.3a21.84,21.84,0,0,0-2.76-12.8s2.3.08,2.51.1c.88.07,1.75.16,2.63.24a24.52,24.52,0,0,0,2.55.11A19.81,19.81,0,0,0,257.73,102.63Z" style="fill:#606060;opacity:0.13;mix-blend-mode:multiply"/>
      <path d="M215.2,159.46c-1.3,1.54-3.41,2.16-5.47,2.48-.8.13-1.71.3-1.91,1.15a13.37,13.37,0,0,0,0,1.56,2.13,2.13,0,0,1-.64,1.23c-.43-2-1.39-4.18-1.8-6.26A17.37,17.37,0,0,0,215.2,159.46Z" style="fill:#606060;opacity:0.13;mix-blend-mode:multiply"/>
      <path d="M269.71,117.46q4.21,4.26,8.38,8.68l-1.13,1-7.74,6.73-4.1,3.58-.8.7-4.83,4.21-.4.36-1.59,1.4q-6.27,5.51-12.43,11.07l-.77.7q-6.62-5.7-13.19-11.43l.83-.63q6.94-5.26,14.22-10.34l1.76-1.23c.17-.13.35-.25.53-.37,1.75-1.22,3.52-2.44,5.29-3.65l.89-.61c1.52-1,3.06-2.08,4.59-3.11q4.56-3.07,9.15-6.14Z" style="fill:#e03279"/>
      <path d="M259.22,124.5q5,4.62,10,9.35l-4.1,3.58-.8.7-4.83,4.21q-5.51-5.26-11-10.47c1.75-1.23,3.52-2.44,5.29-3.65l.89-.61C256.15,126.57,257.69,125.53,259.22,124.5Z" style="fill:#28b7c6"/>
      <g style="opacity:0.5700000000000001">
        <path d="M259.22,124.5c-1.53,1-3.07,2.07-4.59,3.11l-.89.61c-1.77,1.21-3.54,2.43-5.29,3.65-.18.12-.36.24-.53.37l-1.76,1.23q-7.26,5.09-14.22,10.34h0l-.83.63,1.5,1.31q5.82,5.07,11.69,10.12l.77-.7-10.69-9.24c-.49-.43-.58-1.09-.19-1.38,4.4-3.33,8.91-6.59,13.48-9.82l1.76-1.23.53-.38,5.29-3.66.88-.61,4.58-3.14q4.46-3,8.93-6.07c2.43,2.45,4.85,5,7.26,7.47H277l1.13-1q-3.55-3.77-7.12-7.4h0l-1.26-1.28Q264.45,121,259.22,124.5Z" style="fill:#e03279;opacity:0.71;mix-blend-mode:multiply"/>
      </g>
      <path d="M231.11,144.44q6.58,5.73,13.19,11.43c-2.28,3.39-4.53,6.8-6.78,10.21-.2.32-.41.63-.61.94l-.08.13-.35.52q-2,3-3.92,6c-.35.52-.69,1-1,1.58l-.53.81-.1.16-6.65,10.24q-4.69-3.6-9.28-7.29,2.66-5.9,5.3-11.75l.08-.17.36-.8c.27-.58.53-1.17.8-1.75q1.55-3.39,3.12-6.77l.31-.66.07-.14c.14-.32.29-.63.43-.94C227.3,152.24,229.19,148.31,231.11,144.44Z" style="fill: rgb(255, 0, 200);"/>
      <path d="M236.83,167.15l-.35.52q-2,3-3.92,6c-.35.52-.69,1-1,1.58l-.53.81-.1.16q-5.37-4.36-10.63-8.8l.08-.17.36-.8c.27-.58.53-1.17.8-1.75q1.55-3.39,3.12-6.77l.31-.66Q230.85,162.25,236.83,167.15Z" style="fill:#3dd2f5"/>
      <path d="M223.87,105.83a5.07,5.07,0,0,0-.51,3.51c.39,2,1.53,2.21,1.43,3.62-.09,1.21-.94,1.22-1,2.63a5.1,5.1,0,0,0,.89,3c.42.69.8,1.43,1.13,1.36.58-.12.58-2.53.57-4.57s-.14-2,0-3.14a7.78,7.78,0,0,1,1.2-4.24c.73-1,1.66-1.5,1.53-1.75s-1.37.45-2.2-.1-.47-1.57-1-1.77S224.33,105.07,223.87,105.83Z" style="fill:#606060;opacity:0.13;mix-blend-mode:multiply"/>
      <path d="M226.74,103.43a1,1,0,0,0,.44,1.22c.56.31,1.36-.18,1.58-.8a1,1,0,0,0-.09-.91A1.32,1.32,0,0,0,226.74,103.43Z" style="fill:#606060;opacity:0.13;mix-blend-mode:multiply"/>
      <polygon points="278.09 126.14 250.1 171.5 224.25 186.47 244.29 155.87 278.09 126.14" style="fill:#ce1b6d"/>
      <path d="M244.3,155.87l-20.05,30.6A182.39,182.39,0,0,0,244.3,155.87Z" style="fill:#f26ba2"/>
      <path d="M224.25,186.47l25.85-15S227.23,183.49,224.25,186.47Z" style="fill:url(#linear-gradient-9)"/>
      <path d="M278.09,126.14l-28,45.36S267.22,141.3,278.09,126.14Z" style="fill:#f26ba2"/>
      <path d="M245.07,155.17s26.27-21.72,33-29C278.09,126.14,247.45,151.49,245.07,155.17Z" style="fill:#f26ba2"/>
      <path d="M277.35,179.94h0c0-.55-.8-1.06-2.16-1.48a5.1,5.1,0,0,0-.14-1.69h0c0-1.5-6-2.72-13.39-2.72s-13.39,1.22-13.39,2.72a6.36,6.36,0,0,0,0,2.38c0,.55.82,1.07,2.22,1.5a4,4,0,0,0,.09,1.66c0,1.51,6,2.73,13.39,2.73,7.13,0,12.95-1.14,13.35-2.57h0A4.83,4.83,0,0,0,277.35,179.94Z" style="opacity:0.32;mix-blend-mode:multiply;fill:url(#linear-gradient-10)"/>
      <path d="M357.18,183.11h0c0-1.5-6-2.72-13.39-2.72s-13.39,1.22-13.39,2.72a6.36,6.36,0,0,0,0,2.38c0,1.5,6,2.72,13.39,2.72,7.14,0,12.95-1.14,13.35-2.57h0A4.83,4.83,0,0,0,357.18,183.11Z" style="opacity:0.32;mix-blend-mode:multiply;fill:url(#linear-gradient-11)"/>
      <ellipse cx="452.58" cy="161.9" rx="10.59" ry="2.15" style="fill:#e39a44"/>
      <path d="M463.18,160a3.88,3.88,0,0,1,0,2l-2.05.16.24-1Z" style="fill:#e39a44"/>
      <path d="M442,160a5,5,0,0,0,0,1.88c.23.45,2.11.28,2.11.28l-1.22-2Z" style="fill:#e39a44"/>
      <ellipse cx="452.58" cy="160.02" rx="10.59" ry="2.15" style="fill:#f4e573"/>
      <path d="M461.13,159.84c0,.77-3.66,1.39-8.18,1.39s-8.17-.62-8.17-1.39,3.66-1.38,8.17-1.38S461.13,159.08,461.13,159.84Z" style="fill:#f4a43f;opacity:0.56"/>
      <path d="M445,160.18s2-1.16,8.17-1.12c7,.05,7.41,1.27,7.41,1.27s.86-.32.39-.73-2.59-1.15-7.62-1.14c-4.85,0-8.6.54-8.6,1.38Z" style="fill:#e09438"/>
      <ellipse cx="455.42" cy="158.81" rx="10.59" ry="2.15" style="fill:#e39a44"/>
      <path d="M466,156.93a4,4,0,0,1,0,2l-2,.15.24-1Z" style="fill:#e39a44"/>
      <path d="M444.83,156.93a5,5,0,0,0,0,1.88c.23.44,2.11.27,2.11.27l-1.22-2Z" style="fill:#e39a44"/>
      <ellipse cx="455.42" cy="156.93" rx="10.59" ry="2.15" style="fill:#f4e573"/>
      <path d="M464,156.75c0,.76-3.66,1.38-8.18,1.38s-8.17-.62-8.17-1.38,3.66-1.39,8.17-1.39S464,156,464,156.75Z" style="fill:#f4a43f;opacity:0.56"/>
      <path d="M447.86,157.09s2-1.16,8.18-1.12c7,.05,7.4,1.26,7.4,1.26s.87-.31.4-.72-2.59-1.16-7.62-1.15c-4.85,0-8.6.54-8.6,1.39Z" style="fill:#e09438"/>
      <polygon points="425.38 164.09 414.25 164.09 417.09 131.01 425.65 131.01 425.38 164.09" style="fill:#fb0"/>
      <polygon points="422.29 131.01 421.33 164.09 418.37 164.09 418.86 149.7 419.95 149.46 418.89 148.69 419.64 147.22 418.89 147.03 419.49 131.01 422.29 131.01" style="fill:#006d00"/>
      <polygon points="425.38 164.09 446.83 164.09 443.99 131.01 425.65 131.01 425.38 164.09" style="fill:#ffd600"/>
      <polygon points="432.92 164.09 432.64 145.96 433.13 144.52 432.46 144.28 433.19 142.66 432.4 141.8 433.64 141.01 432.35 139.93 432.14 131.01 435.7 131.01 436.67 149.31 435.71 149.77 436.74 150.31 435.77 151.55 436.88 153.29 436.1 153.8 436.97 155.22 437.45 164.09 432.92 164.09" style="fill:#009100"/>
      <path d="M424.75,118.64s-2.14,2.27,3.06,9.13l1.33-.18s-2.78-4.69-2-7.39Z" style="fill:#006d00"/>
      <path d="M432.14,128.21a29.62,29.62,0,0,0-1.75-6.53c0-.1-.6-.25-.6-.25l.23-.56-1.08-.3s.55-.66.42-.86a5.59,5.59,0,0,0-1.48-1.6l-3.13.53a19,19,0,0,1,4.66,9Z" style="fill:#009100"/>
      <path d="M436.09,117.73s2.52,1.75-1.08,9.79l-1.31.15s1.71-5.32.41-7.82Z" style="fill:#006d00"/>
      <path d="M430.94,129s-.57-8.09,2-11l3.11-.21a20.28,20.28,0,0,0-2.63,10Z" style="fill:#009100"/>
      <path d="M440.73,123s.94,2.91-6.77,7.16l-1.14-.68s4.58-3.21,5.05-6Z" style="fill:#009100"/>
      <path d="M429.83,128.86a28.89,28.89,0,0,1,4.87-5.64c.09-.07.51,0,.51,0l.08-.5.64-.14,0-.35.41.12s0-.39.11-.44a5.83,5.83,0,0,1,1.62-.63l2.62,1.71a20.34,20.34,0,0,0-8.17,6.43Z" style="fill:#00c400"/>
      <path d="M420.18,122.41s-1,3,6.62,7l1.14-.71s-4.5-3.09-4.93-5.87Z" style="fill:#009100"/>
      <path d="M430.92,128s-4.31-6.7-8.12-7.37l-2.62,1.8a19,19,0,0,1,8,6.22Z" style="fill:#00c400"/>
      <ellipse cx="431.05" cy="126.16" rx="2.79" ry="2.76" transform="translate(-1.92 6.74) rotate(-0.89)" style="fill:#009100"/>
      <ellipse cx="431.02" cy="124.65" rx="2.33" ry="1.25" transform="translate(-1.89 6.74) rotate(-0.89)" style="fill:#00c400"/>
      <polygon points="416.51 131.01 425.65 131.09 425.52 126.46 416.74 127.54 416.51 131.01" style="fill:#ffd600"/>
      <polygon points="444.96 131.26 425.65 131.09 425.52 126.46 444.89 126.77 444.96 131.26" style="fill:#ffe365"/>
      <polygon points="432.13 131.15 435.72 131.22 435.4 126.61 431.72 126.56 432.13 131.15" style="fill:#00c400"/>
      <polygon points="419.45 127.2 422.01 126.89 422.35 126.85 422.29 131.14 419.49 131.19 419.45 127.2" style="fill:#009100"/>
      <polygon points="417.09 131.01 425.65 131.09 444.01 131.26 444.15 132.89 425.65 132.36 417.03 131.71 417.09 131.01" style="fill:#973c21;opacity:0.22;mix-blend-mode:multiply"/>
      <path d="M409.84,165.7h0c0-1.19-4.74-2.15-10.59-2.15-.59,0-1.16,0-1.72,0,1.71-1.27,2.7-2.36,2.58-3l0,0a3.85,3.85,0,0,0-.89-1.78h0c-.53-1.07-5.21.18-10.44,2.78s-9.06,5.58-8.53,6.65a5.06,5.06,0,0,0,.83,1.68c.45.9,3.86.14,8.06-1.68,1.38.87,5.37,1.49,10.08,1.49,5.64,0,10.25-.9,10.56-2h0A3.88,3.88,0,0,0,409.84,165.7Z" style="opacity:0.32;mix-blend-mode:multiply;fill:url(#linear-gradient-12)"/>
      <polygon points="276.59 126.26 264.82 174.9 222.75 186.59 248.61 171.63 276.59 126.26" style="fill:#606060;opacity:0.32;mix-blend-mode:multiply"/>
      <ellipse cx="397.77" cy="166.24" rx="10.59" ry="2.15" style="fill:#e39a44"/>
      <path d="M408.37,164.36a3.88,3.88,0,0,1,0,2l-2.05.16.24-1Z" style="fill:#e39a44"/>
      <path d="M387.18,164.36a5,5,0,0,0,0,1.88c.23.45,2.11.28,2.11.28l-1.22-2Z" style="fill:#e39a44"/>
      <ellipse cx="397.77" cy="164.36" rx="10.59" ry="2.15" style="fill:#f4e573"/>
      <path d="M406.32,164.18c0,.77-3.66,1.39-8.18,1.39S390,165,390,164.18s3.66-1.38,8.17-1.38S406.32,163.42,406.32,164.18Z" style="fill:#f4a43f;opacity:0.56"/>
      <path d="M390.22,164.52s2-1.16,8.17-1.12c7,0,7.41,1.27,7.41,1.27s.86-.32.39-.73-2.59-1.15-7.62-1.14c-4.85,0-8.6.54-8.6,1.38Z" style="fill:#e09438"/>
      <ellipse cx="389.13" cy="163.86" rx="10.59" ry="2.15" transform="translate(-32.26 190.38) rotate(-26.44)" style="fill:#e39a44"/>
      <path d="M397.78,157.47a3.88,3.88,0,0,1,.89,1.79l-1.77,1.05-.2-1Z" style="fill:#e39a44"/>
      <path d="M378.81,166.9a5.06,5.06,0,0,0,.83,1.68c.41.3,2-.69,2-.69l-2-1.25Z" style="fill:#e39a44"/>
      <ellipse cx="388.29" cy="162.18" rx="10.59" ry="2.15" transform="translate(-31.6 189.83) rotate(-26.44)" style="fill:#f4e573"/>
      <path d="M395.86,158.22c.34.68-2.66,2.87-6.7,4.88s-7.6,3.08-7.94,2.4,2.66-2.87,6.71-4.88S395.52,157.53,395.86,158.22Z" style="fill:#f4a43f;opacity:0.56"/>
      <path d="M381.59,165.69s1.31-1.94,6.83-4.64c6.26-3.07,7.19-2.17,7.19-2.17s.64-.66,0-.82-2.83.12-7.33,2.37c-4.34,2.16-7.46,4.31-7.09,5.07Z" style="fill:#e09438"/>
      <ellipse cx="340.16" cy="183.95" rx="13.39" ry="2.72" style="fill:#e39a44"/>
      <path d="M353.55,181.58a4.79,4.79,0,0,1,0,2.52l-2.59.2.31-1.2Z" style="fill:#e39a44"/>
      <path d="M326.78,181.58a6.31,6.31,0,0,0,0,2.37c.29.57,2.66.35,2.66.35l-1.54-2.54Z" style="fill:#e39a44"/>
      <ellipse cx="340.16" cy="181.58" rx="13.39" ry="2.72" style="fill:#f4e573"/>
      <path d="M351,181.35c0,1-4.62,1.75-10.33,1.75s-10.33-.79-10.33-1.75,4.62-1.75,10.33-1.75S351,180.38,351,181.35Z" style="fill:#f4a43f;opacity:0.56"/>
      <path d="M330.61,181.78s2.57-1.47,10.33-1.42c8.82.06,9.36,1.6,9.36,1.6s1.1-.39.5-.92-3.28-1.45-9.63-1.44c-6.13,0-10.87.68-10.87,1.75Z" style="fill:#e09438"/>
      <ellipse cx="279.02" cy="170.09" rx="13.39" ry="2.72" transform="translate(-26.59 285.8) rotate(-52.1)" style="fill:#e39a44"/>
      <path d="M285.37,158.07a4.83,4.83,0,0,1,2,1.55l-1.44,2.16-.76-1Z" style="fill:#e39a44"/>
      <path d="M268.93,179.2s1.24,1.34,1.87,1.46,1.91-1.89,1.91-1.89l-2.95-.34Z" style="fill:#e39a44"/>
      <ellipse cx="277.15" cy="168.63" rx="13.39" ry="2.72" transform="translate(-26.16 283.76) rotate(-52.1)" style="fill:#f4e573"/>
      <path d="M283.6,160c.76.59-1.46,4.73-5,9.23s-7,7.67-7.73,7.08,1.46-4.73,5-9.23S282.84,159.38,283.6,160Z" style="fill:#f4a43f;opacity:0.56"/>
      <path d="M271.44,176.29s.42-2.92,5.23-9c5.46-6.92,7-6.4,7-6.4s.36-1.11-.42-1-3.16,1.69-7.05,6.71c-3.76,4.84-6.14,9-5.3,9.66Z" style="fill:#e09438"/>
      <ellipse cx="262.36" cy="179.67" rx="13.39" ry="2.72" style="fill:#e39a44"/>
      <path d="M275.75,177.29a4.83,4.83,0,0,1,0,2.53l-2.59.2.31-1.21Z" style="fill:#e39a44"/>
      <path d="M249,177.29a6.36,6.36,0,0,0,0,2.38c.29.56,2.66.35,2.66.35l-1.54-2.54Z" style="fill:#e39a44"/>
      <ellipse cx="262.36" cy="177.29" rx="13.39" ry="2.72" style="fill:#f4e573"/>
      <path d="M273.16,177.06c0,1-4.62,1.75-10.33,1.75s-10.33-.78-10.33-1.75,4.63-1.75,10.33-1.75S273.16,176.1,273.16,177.06Z" style="fill:#f4a43f;opacity:0.56"/>
      <path d="M252.81,177.49s2.57-1.46,10.33-1.41c8.82.06,9.36,1.6,9.36,1.6s1.1-.4.5-.92-3.28-1.46-9.63-1.45c-6.13,0-10.87.69-10.87,1.75Z" style="fill:#e09438"/>
      <ellipse cx="260.06" cy="176.5" rx="13.39" ry="2.72" style="fill:#e39a44"/>
      <path d="M273.45,174.13a5,5,0,0,1,0,2.52l-2.59.2.31-1.2Z" style="fill:#e39a44"/>
      <path d="M246.67,174.13a6.3,6.3,0,0,0,0,2.37c.29.56,2.66.35,2.66.35l-1.54-2.54Z" style="fill:#e39a44"/>
      <ellipse cx="260.06" cy="174.13" rx="13.39" ry="2.72" style="fill:#f4e573"/>
      <path d="M270.86,173.9c0,1-4.63,1.75-10.33,1.75s-10.34-.79-10.34-1.75,4.63-1.75,10.34-1.75S270.86,172.93,270.86,173.9Z" style="fill:#f4a43f;opacity:0.56"/>
      <path d="M250.51,174.32s2.56-1.46,10.33-1.41c8.82.06,9.36,1.6,9.36,1.6s1.09-.39.5-.92-3.28-1.46-9.64-1.44c-6.12,0-10.87.68-10.87,1.75Z" style="fill:#e09438"/>
      <ellipse cx="123.31" cy="161.03" rx="10.59" ry="2.15" style="fill:#e39a44"/>
      <path d="M133.9,159.16a3.84,3.84,0,0,1,0,2l-2.05.16.25-.95Z" style="fill:#e39a44"/>
      <path d="M112.71,159.16a5.18,5.18,0,0,0,0,1.87c.23.45,2.11.28,2.11.28l-1.22-2Z" style="fill:#e39a44"/>
      <ellipse cx="123.31" cy="159.16" rx="10.59" ry="2.15" style="fill:#f4e573"/>
      <path d="M131.85,159c0,.77-3.66,1.39-8.17,1.39s-8.18-.62-8.18-1.39,3.66-1.38,8.18-1.38S131.85,158.21,131.85,159Z" style="fill:#f4a43f;opacity:0.56"/>
      <path d="M115.75,159.31s2-1.15,8.17-1.11c7,0,7.41,1.26,7.41,1.26s.87-.31.4-.73-2.6-1.15-7.63-1.14c-4.84,0-8.6.54-8.6,1.38Z" style="fill:#e09438"/>
      <ellipse cx="136.07" cy="164.02" rx="10.59" ry="2.15" style="fill:#e39a44"/>
      <path d="M146.66,162.14a3.77,3.77,0,0,1,0,2l-2,.16.24-1Z" style="fill:#e39a44"/>
      <path d="M125.48,162.14a5,5,0,0,0,0,1.88c.23.45,2.11.28,2.11.28l-1.22-2Z" style="fill:#e39a44"/>
      <ellipse cx="136.07" cy="162.14" rx="10.59" ry="2.15" style="fill:#f4e573"/>
      <path d="M144.62,162c0,.77-3.66,1.39-8.18,1.39s-8.17-.62-8.17-1.39,3.66-1.38,8.17-1.38S144.62,161.2,144.62,162Z" style="fill:#f4a43f;opacity:0.56"/>
      <path d="M128.51,162.3s2-1.16,8.18-1.12c7,0,7.4,1.27,7.4,1.27s.87-.31.4-.73-2.59-1.15-7.62-1.14c-4.85,0-8.6.54-8.6,1.38Z" style="fill:#e09438"/>
      <polygon points="275.35 111.65 276.5 109.54 277.66 111.65 279.77 112.81 277.66 113.96 276.5 116.08 275.35 113.96 273.23 112.81 275.35 111.65" style="fill:#fff6ca"/>
      <polygon points="280.97 87.14 281.96 85.34 282.94 87.14 284.75 88.13 282.94 89.11 281.96 90.92 280.97 89.11 279.17 88.13 280.97 87.14" style="fill:#fff6ca"/>
      <polygon points="308.75 92.63 310.33 89.74 311.91 92.63 314.8 94.21 311.91 95.79 310.33 98.68 308.75 95.79 305.86 94.21 308.75 92.63" style="fill:#fff6ca"/>
      <polygon points="326.7 99.11 327.38 97.87 328.06 99.11 329.3 99.79 328.06 100.47 327.38 101.72 326.7 100.47 325.46 99.79 326.7 99.11" style="fill:#fff6ca"/>
      <polygon points="330.4 110.48 331.08 109.24 331.76 110.48 333 111.16 331.76 111.84 331.08 113.08 330.4 111.84 329.16 111.16 330.4 110.48" style="fill:#fff6ca"/>
      <polygon points="266.41 95.58 267.96 92.74 269.51 95.58 272.35 97.13 269.51 98.68 267.96 101.51 266.41 98.68 263.57 97.13 266.41 95.58" style="fill:#fff6ca"/>
    </g>
  </g>
</svg>