<?xml version="1.0" encoding="utf-8"?>
<svg xmlns="http://www.w3.org/2000/svg" xmlns:xlink="http://www.w3.org/1999/xlink" style="margin: auto; display: block; z-index: 1; position: relative; shape-rendering: auto;" width="2174" height="352" preserveAspectRatio="xMidYMid" viewBox="0 0 2174 352">
<g transform="translate(1087,176) scale(1,1) translate(-1087,-176)"><g transform="translate(-100 338.4933071934726) rotate(0)">
  <animateTransform attributeName="transform" type="translate" keyTimes="0;1" values="-100 338.4933071934726;2174 338.4933071934726" dur="125s" repeatCount="indefinite" begin="-50.7457655560872s"></animateTransform>
  <path d="M84.717,33.597c0.791-2.503,1.186-5.138,1.186-7.773C85.903,11.594,74.308,0,60.079,0 c-9.881,0-18.445,5.534-22.793,13.702c-1.581-0.527-3.426-0.791-5.138-0.791c-9.486,0-17.128,7.642-17.128,17.128 c0,1.186,0.132,2.372,0.395,3.426C6.719,34.783,0,42.424,0,51.515C0,61.66,8.169,69.829,18.314,69.829h63.373 C91.831,69.829,100,61.66,100,51.515C99.868,42.556,93.281,35.046,84.717,33.597z" fill="#bdf0ff" transform="scale(0.33)"></path>
</g><g transform="translate(-100 98.93409772378783) rotate(0)">
  <animateTransform attributeName="transform" type="translate" keyTimes="0;1" values="-100 98.93409772378783;2174 98.93409772378783" dur="125s" repeatCount="indefinite" begin="-82.17662862119477s"></animateTransform>
  <path d="M84.717,33.597c0.791-2.503,1.186-5.138,1.186-7.773C85.903,11.594,74.308,0,60.079,0 c-9.881,0-18.445,5.534-22.793,13.702c-1.581-0.527-3.426-0.791-5.138-0.791c-9.486,0-17.128,7.642-17.128,17.128 c0,1.186,0.132,2.372,0.395,3.426C6.719,34.783,0,42.424,0,51.515C0,61.66,8.169,69.829,18.314,69.829h63.373 C91.831,69.829,100,61.66,100,51.515C99.868,42.556,93.281,35.046,84.717,33.597z" fill="#bdf0ff" transform="scale(0.33)"></path>
</g><g transform="translate(-100 256.37631562205763) rotate(0)">
  <animateTransform attributeName="transform" type="translate" keyTimes="0;1" values="-100 256.37631562205763;2174 256.37631562205763" dur="125s" repeatCount="indefinite" begin="-42.28160815044968s"></animateTransform>
  <path d="M84.717,33.597c0.791-2.503,1.186-5.138,1.186-7.773C85.903,11.594,74.308,0,60.079,0 c-9.881,0-18.445,5.534-22.793,13.702c-1.581-0.527-3.426-0.791-5.138-0.791c-9.486,0-17.128,7.642-17.128,17.128 c0,1.186,0.132,2.372,0.395,3.426C6.719,34.783,0,42.424,0,51.515C0,61.66,8.169,69.829,18.314,69.829h63.373 C91.831,69.829,100,61.66,100,51.515C99.868,42.556,93.281,35.046,84.717,33.597z" fill="#bdf0ff" transform="scale(0.33)"></path>
</g><g transform="translate(-100 300.0690907744419) rotate(0)">
  <animateTransform attributeName="transform" type="translate" keyTimes="0;1" values="-100 300.0690907744419;2174 300.0690907744419" dur="125s" repeatCount="indefinite" begin="-103.54061841685208s"></animateTransform>
  <path d="M84.717,33.597c0.791-2.503,1.186-5.138,1.186-7.773C85.903,11.594,74.308,0,60.079,0 c-9.881,0-18.445,5.534-22.793,13.702c-1.581-0.527-3.426-0.791-5.138-0.791c-9.486,0-17.128,7.642-17.128,17.128 c0,1.186,0.132,2.372,0.395,3.426C6.719,34.783,0,42.424,0,51.515C0,61.66,8.169,69.829,18.314,69.829h63.373 C91.831,69.829,100,61.66,100,51.515C99.868,42.556,93.281,35.046,84.717,33.597z" fill="#bdf0ff" transform="scale(0.33)"></path>
</g><g transform="translate(-100 18.470791437217443) rotate(0)">
  <animateTransform attributeName="transform" type="translate" keyTimes="0;1" values="-100 18.470791437217443;2174 18.470791437217443" dur="62.5s" repeatCount="indefinite" begin="-90.53018390533136s"></animateTransform>
  <path d="M84.717,33.597c0.791-2.503,1.186-5.138,1.186-7.773C85.903,11.594,74.308,0,60.079,0 c-9.881,0-18.445,5.534-22.793,13.702c-1.581-0.527-3.426-0.791-5.138-0.791c-9.486,0-17.128,7.642-17.128,17.128 c0,1.186,0.132,2.372,0.395,3.426C6.719,34.783,0,42.424,0,51.515C0,61.66,8.169,69.829,18.314,69.829h63.373 C91.831,69.829,100,61.66,100,51.515C99.868,42.556,93.281,35.046,84.717,33.597z" fill="#ffffff" transform="scale(0.42)"></path>
</g><g transform="translate(-100 51.10577127139458) rotate(0)">
  <animateTransform attributeName="transform" type="translate" keyTimes="0;1" values="-100 51.10577127139458;2174 51.10577127139458" dur="62.5s" repeatCount="indefinite" begin="-52.581894437123324s"></animateTransform>
  <path d="M84.717,33.597c0.791-2.503,1.186-5.138,1.186-7.773C85.903,11.594,74.308,0,60.079,0 c-9.881,0-18.445,5.534-22.793,13.702c-1.581-0.527-3.426-0.791-5.138-0.791c-9.486,0-17.128,7.642-17.128,17.128 c0,1.186,0.132,2.372,0.395,3.426C6.719,34.783,0,42.424,0,51.515C0,61.66,8.169,69.829,18.314,69.829h63.373 C91.831,69.829,100,61.66,100,51.515C99.868,42.556,93.281,35.046,84.717,33.597z" fill="#ffffff" transform="scale(0.42)"></path>
</g><g transform="translate(-100 180.95136972269756) rotate(0)">
  <animateTransform attributeName="transform" type="translate" keyTimes="0;1" values="-100 180.95136972269756;2174 180.95136972269756" dur="62.5s" repeatCount="indefinite" begin="-28.36600901793379s"></animateTransform>
  <path d="M84.717,33.597c0.791-2.503,1.186-5.138,1.186-7.773C85.903,11.594,74.308,0,60.079,0 c-9.881,0-18.445,5.534-22.793,13.702c-1.581-0.527-3.426-0.791-5.138-0.791c-9.486,0-17.128,7.642-17.128,17.128 c0,1.186,0.132,2.372,0.395,3.426C6.719,34.783,0,42.424,0,51.515C0,61.66,8.169,69.829,18.314,69.829h63.373 C91.831,69.829,100,61.66,100,51.515C99.868,42.556,93.281,35.046,84.717,33.597z" fill="#ffffff" transform="scale(0.42)"></path>
</g><g transform="translate(-100 298.8012650928126) rotate(0)">
  <animateTransform attributeName="transform" type="translate" keyTimes="0;1" values="-100 298.8012650928126;2174 298.8012650928126" dur="62.5s" repeatCount="indefinite" begin="-86.42415776242859s"></animateTransform>
  <path d="M84.717,33.597c0.791-2.503,1.186-5.138,1.186-7.773C85.903,11.594,74.308,0,60.079,0 c-9.881,0-18.445,5.534-22.793,13.702c-1.581-0.527-3.426-0.791-5.138-0.791c-9.486,0-17.128,7.642-17.128,17.128 c0,1.186,0.132,2.372,0.395,3.426C6.719,34.783,0,42.424,0,51.515C0,61.66,8.169,69.829,18.314,69.829h63.373 C91.831,69.829,100,61.66,100,51.515C99.868,42.556,93.281,35.046,84.717,33.597z" fill="#ffffff" transform="scale(0.42)"></path>
</g><g transform="translate(-100 238.30470335808403) rotate(0)">
  <animateTransform attributeName="transform" type="translate" keyTimes="0;1" values="-100 238.30470335808403;2174 238.30470335808403" dur="41.666666666666664s" repeatCount="indefinite" begin="-60.28474757183838s"></animateTransform>
  <path d="M84.717,33.597c0.791-2.503,1.186-5.138,1.186-7.773C85.903,11.594,74.308,0,60.079,0 c-9.881,0-18.445,5.534-22.793,13.702c-1.581-0.527-3.426-0.791-5.138-0.791c-9.486,0-17.128,7.642-17.128,17.128 c0,1.186,0.132,2.372,0.395,3.426C6.719,34.783,0,42.424,0,51.515C0,61.66,8.169,69.829,18.314,69.829h63.373 C91.831,69.829,100,61.66,100,51.515C99.868,42.556,93.281,35.046,84.717,33.597z" fill="#f1f2f3" transform="scale(0.51)"></path>
</g><g transform="translate(-100 196.49404204699692) rotate(0)">
  <animateTransform attributeName="transform" type="translate" keyTimes="0;1" values="-100 196.49404204699692;2174 196.49404204699692" dur="41.666666666666664s" repeatCount="indefinite" begin="-26.71243538760157s"></animateTransform>
  <path d="M84.717,33.597c0.791-2.503,1.186-5.138,1.186-7.773C85.903,11.594,74.308,0,60.079,0 c-9.881,0-18.445,5.534-22.793,13.702c-1.581-0.527-3.426-0.791-5.138-0.791c-9.486,0-17.128,7.642-17.128,17.128 c0,1.186,0.132,2.372,0.395,3.426C6.719,34.783,0,42.424,0,51.515C0,61.66,8.169,69.829,18.314,69.829h63.373 C91.831,69.829,100,61.66,100,51.515C99.868,42.556,93.281,35.046,84.717,33.597z" fill="#f1f2f3" transform="scale(0.51)"></path>
</g><g transform="translate(-100 5.818094946885559) rotate(0)">
  <animateTransform attributeName="transform" type="translate" keyTimes="0;1" values="-100 5.818094946885559;2174 5.818094946885559" dur="41.666666666666664s" repeatCount="indefinite" begin="-38.211373729494845s"></animateTransform>
  <path d="M84.717,33.597c0.791-2.503,1.186-5.138,1.186-7.773C85.903,11.594,74.308,0,60.079,0 c-9.881,0-18.445,5.534-22.793,13.702c-1.581-0.527-3.426-0.791-5.138-0.791c-9.486,0-17.128,7.642-17.128,17.128 c0,1.186,0.132,2.372,0.395,3.426C6.719,34.783,0,42.424,0,51.515C0,61.66,8.169,69.829,18.314,69.829h63.373 C91.831,69.829,100,61.66,100,51.515C99.868,42.556,93.281,35.046,84.717,33.597z" fill="#f1f2f3" transform="scale(0.51)"></path>
</g><g transform="translate(-100 96.57009039109514) rotate(0)">
  <animateTransform attributeName="transform" type="translate" keyTimes="0;1" values="-100 96.57009039109514;2174 96.57009039109514" dur="41.666666666666664s" repeatCount="indefinite" begin="-34.229251139942406s"></animateTransform>
  <path d="M84.717,33.597c0.791-2.503,1.186-5.138,1.186-7.773C85.903,11.594,74.308,0,60.079,0 c-9.881,0-18.445,5.534-22.793,13.702c-1.581-0.527-3.426-0.791-5.138-0.791c-9.486,0-17.128,7.642-17.128,17.128 c0,1.186,0.132,2.372,0.395,3.426C6.719,34.783,0,42.424,0,51.515C0,61.66,8.169,69.829,18.314,69.829h63.373 C91.831,69.829,100,61.66,100,51.515C99.868,42.556,93.281,35.046,84.717,33.597z" fill="#f1f2f3" transform="scale(0.51)"></path>
</g><g transform="translate(-100 141.7196690991837) rotate(0)">
  <animateTransform attributeName="transform" type="translate" keyTimes="0;1" values="-100 141.7196690991837;2174 141.7196690991837" dur="31.25s" repeatCount="indefinite" begin="-98.15499035876333s"></animateTransform>
  <path d="M84.717,33.597c0.791-2.503,1.186-5.138,1.186-7.773C85.903,11.594,74.308,0,60.079,0 c-9.881,0-18.445,5.534-22.793,13.702c-1.581-0.527-3.426-0.791-5.138-0.791c-9.486,0-17.128,7.642-17.128,17.128 c0,1.186,0.132,2.372,0.395,3.426C6.719,34.783,0,42.424,0,51.515C0,61.66,8.169,69.829,18.314,69.829h63.373 C91.831,69.829,100,61.66,100,51.515C99.868,42.556,93.281,35.046,84.717,33.597z" fill="#d7f5fb" transform="scale(0.6)"></path>
</g><g transform="translate(-100 338.77590105877977) rotate(0)">
  <animateTransform attributeName="transform" type="translate" keyTimes="0;1" values="-100 338.77590105877977;2174 338.77590105877977" dur="31.25s" repeatCount="indefinite" begin="-66.65525798684271s"></animateTransform>
  <path d="M84.717,33.597c0.791-2.503,1.186-5.138,1.186-7.773C85.903,11.594,74.308,0,60.079,0 c-9.881,0-18.445,5.534-22.793,13.702c-1.581-0.527-3.426-0.791-5.138-0.791c-9.486,0-17.128,7.642-17.128,17.128 c0,1.186,0.132,2.372,0.395,3.426C6.719,34.783,0,42.424,0,51.515C0,61.66,8.169,69.829,18.314,69.829h63.373 C91.831,69.829,100,61.66,100,51.515C99.868,42.556,93.281,35.046,84.717,33.597z" fill="#d7f5fb" transform="scale(0.6)"></path>
</g><g transform="translate(-100 279.87918131592136) rotate(0)">
  <animateTransform attributeName="transform" type="translate" keyTimes="0;1" values="-100 279.87918131592136;2174 279.87918131592136" dur="31.25s" repeatCount="indefinite" begin="-111.0762316955346s"></animateTransform>
  <path d="M84.717,33.597c0.791-2.503,1.186-5.138,1.186-7.773C85.903,11.594,74.308,0,60.079,0 c-9.881,0-18.445,5.534-22.793,13.702c-1.581-0.527-3.426-0.791-5.138-0.791c-9.486,0-17.128,7.642-17.128,17.128 c0,1.186,0.132,2.372,0.395,3.426C6.719,34.783,0,42.424,0,51.515C0,61.66,8.169,69.829,18.314,69.829h63.373 C91.831,69.829,100,61.66,100,51.515C99.868,42.556,93.281,35.046,84.717,33.597z" fill="#d7f5fb" transform="scale(0.6)"></path>
</g><g transform="translate(-100 251.8162036528706) rotate(0)">
  <animateTransform attributeName="transform" type="translate" keyTimes="0;1" values="-100 251.8162036528706;2174 251.8162036528706" dur="31.25s" repeatCount="indefinite" begin="-124.11991789914734s"></animateTransform>
  <path d="M84.717,33.597c0.791-2.503,1.186-5.138,1.186-7.773C85.903,11.594,74.308,0,60.079,0 c-9.881,0-18.445,5.534-22.793,13.702c-1.581-0.527-3.426-0.791-5.138-0.791c-9.486,0-17.128,7.642-17.128,17.128 c0,1.186,0.132,2.372,0.395,3.426C6.719,34.783,0,42.424,0,51.515C0,61.66,8.169,69.829,18.314,69.829h63.373 C91.831,69.829,100,61.66,100,51.515C99.868,42.556,93.281,35.046,84.717,33.597z" fill="#d7f5fb" transform="scale(0.6)"></path>
</g><g transform="translate(-100 336.3541963815146) rotate(0)">
  <animateTransform attributeName="transform" type="translate" keyTimes="0;1" values="-100 336.3541963815146;2174 336.3541963815146" dur="31.25s" repeatCount="indefinite" begin="-84.90657877830857s"></animateTransform>
  <path d="M84.717,33.597c0.791-2.503,1.186-5.138,1.186-7.773C85.903,11.594,74.308,0,60.079,0 c-9.881,0-18.445,5.534-22.793,13.702c-1.581-0.527-3.426-0.791-5.138-0.791c-9.486,0-17.128,7.642-17.128,17.128 c0,1.186,0.132,2.372,0.395,3.426C6.719,34.783,0,42.424,0,51.515C0,61.66,8.169,69.829,18.314,69.829h63.373 C91.831,69.829,100,61.66,100,51.515C99.868,42.556,93.281,35.046,84.717,33.597z" fill="#d7f5fb" transform="scale(0.6)"></path>
</g></g>
</svg>