<?xml version="1.0" encoding="utf-8"?>
<svg xmlns="http://www.w3.org/2000/svg" xmlns:xlink="http://www.w3.org/1999/xlink" style="margin: auto; display: block; z-index: 1; position: relative; shape-rendering: auto;" width="806" height="295" preserveAspectRatio="xMidYMid" viewBox="0 0 806 295">
<g transform="translate(403,147.5) scale(-1,-1) translate(-403,-147.5)"><g transform="translate(403 147.5)"><g><path d="M0 0L604.5 0 L568.0441892650816 206.75117664036674 Z" fill="#0a423f"></path><path d="M0 0L463.0738658654222 388.565110055513 L302.25000000000006 523.5123565876931 Z" fill="#0a423f"></path><path d="M0 0L104.97032339965943 595.3162866958797 L-104.97032339965936 595.3162866958797 Z" fill="#0a423f"></path><path d="M0 0L-302.2499999999999 523.5123565876931 L-463.07386586542214 388.5651100555131 Z" fill="#0a423f"></path><path d="M0 0L-568.0441892650816 206.75117664036685 L-604.5 7.40298990084575e-14 Z" fill="#0a423f"></path><path d="M0 0L-568.0441892650816 -206.7511766403667 L-463.0738658654224 -388.5651100555128 Z" fill="#0a423f"></path><path d="M0 0L-302.2500000000003 -523.512356587693 L-104.97032339965939 -595.3162866958797 Z" fill="#0a423f"></path><path d="M0 0L104.97032339965916 -595.3162866958799 L302.2499999999996 -523.5123565876934 Z" fill="#0a423f"></path><path d="M0 0L463.0738658654221 -388.5651100555132 L568.0441892650816 -206.75117664036668 Z" fill="#0a423f"></path><circle cx="0" cy="0" r="98.825" fill="#0a423f"></circle><animateTransform attributeName="transform" type="rotate" values="0 0 0;80 0 0" keyTimes="0;1" dur="14.285714285714286s" repeatCount="indefinite"></animateTransform>
</g>
</g></g>
</svg>