<?xml version="1.0" encoding="utf-8"?>
<svg xmlns="http://www.w3.org/2000/svg" xmlns:xlink="http://www.w3.org/1999/xlink" style="margin: auto; display: block; z-index: 1; position: relative; shape-rendering: auto;" width="322" height="134" preserveAspectRatio="xMidYMid" viewBox="0 0 322 134">
<g transform="translate(161,67) scale(1,1) translate(-161,-67)"><g transform="translate(161 67)"><g><path d="M0 0L241.5 0 L226.9357679197969 82.597864613149 Z" fill="#1a3433"></path><path d="M0 0L184.9997330132332 155.23320773929922 L120.75000000000003 209.1451350139419 Z" fill="#1a3433"></path><path d="M0 0L41.9360349065637 237.83107235244825 L-41.93603490656367 237.83107235244825 Z" fill="#1a3433"></path><path d="M0 0L-120.74999999999994 209.14513501394194 L-184.99973301323317 155.23320773929927 Z" fill="#1a3433"></path><path d="M0 0L-226.93576791979686 82.59786461314903 L-241.5 2.957522019940858e-14 Z" fill="#1a3433"></path><path d="M0 0L-226.9357679197969 -82.59786461314899 L-184.99973301323328 -155.23320773929916 Z" fill="#1a3433"></path><path d="M0 0L-120.75000000000011 -209.14513501394188 L-41.93603490656368 -237.83107235244825 Z" fill="#1a3433"></path><path d="M0 0L41.936034906563584 -237.83107235244827 L120.74999999999984 -209.14513501394202 Z" fill="#1a3433"></path><path d="M0 0L184.99973301323314 -155.2332077392993 L226.9357679197969 -82.59786461314897 Z" fill="#1a3433"></path><circle cx="0" cy="0" r="42.88" fill="#1a3433"></circle><animateTransform attributeName="transform" type="rotate" values="0 0 0;80 0 0" keyTimes="0;1" dur="2s" repeatCount="indefinite"></animateTransform>
</g>
</g></g>
</svg>