<?xml version="1.0" encoding="utf-8"?>
<svg xmlns="http://www.w3.org/2000/svg" xmlns:xlink="http://www.w3.org/1999/xlink" style="margin: auto; display: block; z-index: 1; position: relative; shape-rendering: auto;" width="322" height="124" preserveAspectRatio="xMidYMid" viewBox="0 0 322 124">
<g transform="translate(161,62) scale(1,1) translate(-161,-62)"><g transform="translate(161 62)"><g><path d="M0 0L241.5 0 L223.11690710147576 92.41804891616918 Z" fill="#084643"></path><path d="M0 0L170.76628765655124 170.7662876565512 L92.4180489161692 223.11690710147576 Z" fill="#084643"></path><path d="M0 0L1.478761009970429e-14 241.5 L-92.41804891616917 223.11690710147576 Z" fill="#084643"></path><path d="M0 0L-170.7662876565512 170.76628765655124 L-223.11690710147576 92.41804891616921 Z" fill="#084643"></path><path d="M0 0L-241.5 2.957522019940858e-14 L-223.11690710147576 -92.41804891616916 Z" fill="#084643"></path><path d="M0 0L-170.76628765655127 -170.7662876565512 L-92.41804891616931 -223.1169071014757 Z" fill="#084643"></path><path d="M0 0L-4.4362830299112864e-14 -241.5 L92.41804891616924 -223.11690710147573 Z" fill="#084643"></path><path d="M0 0L170.76628765655119 -170.76628765655127 L223.1169071014757 -92.41804891616933 Z" fill="#084643"></path><circle cx="0" cy="0" r="5.58" fill="#084643"></circle><animateTransform attributeName="transform" type="rotate" values="0 0 0;90 0 0" keyTimes="0;1" dur="2.6315789473684212s" repeatCount="indefinite"></animateTransform>
</g>
</g></g>
</svg>