<?xml version="1.0" encoding="utf-8"?>
<svg xmlns="http://www.w3.org/2000/svg" xmlns:xlink="http://www.w3.org/1999/xlink" style="margin: auto; display: block; z-index: 1; position: relative; shape-rendering: auto;" width="1005" height="257" preserveAspectRatio="xMidYMid" viewBox="0 0 1005 257">
<g transform="translate(502.5,128.5) scale(1,1) translate(-502.5,-128.5)"><g transform="translate(502.5 128.5)"><g><path d="M0 0L753.75 0 L696.3741976303824 288.44763714518643 Z" fill="#084643"></path><path d="M0 0L532.9817363193603 532.9817363193602 L288.4476371451865 696.3741976303824 Z" fill="#084643"></path><path d="M0 0L4.6153876242865875e-14 753.75 L-288.4476371451864 696.3741976303824 Z" fill="#084643"></path><path d="M0 0L-532.9817363193602 532.9817363193603 L-696.3741976303824 288.4476371451865 Z" fill="#084643"></path><path d="M0 0L-753.75 9.230775248573175e-14 L-696.3741976303825 -288.4476371451863 Z" fill="#084643"></path><path d="M0 0L-532.9817363193603 -532.9817363193602 L-288.44763714518683 -696.3741976303822 Z" fill="#084643"></path><path d="M0 0L-1.3846162872859762e-13 -753.75 L288.4476371451866 -696.3741976303822 Z" fill="#084643"></path><path d="M0 0L532.98173631936 -532.9817363193603 L696.3741976303822 -288.4476371451869 Z" fill="#084643"></path><circle cx="0" cy="0" r="73.245" fill="#084643"></circle><animateTransform attributeName="transform" type="rotate" values="0 0 0;90 0 0" keyTimes="0;1" dur="2s" repeatCount="indefinite"></animateTransform>
</g>
</g></g>
</svg>