<?xml version="1.0" encoding="utf-8"?>
<svg xmlns="http://www.w3.org/2000/svg" xmlns:xlink="http://www.w3.org/1999/xlink" style="margin: auto; background: rgb(167, 70, 28); display: block; z-index: 1; position: relative; shape-rendering: auto; animation-play-state: running; animation-delay: 0s;" width="478" height="181" preserveAspectRatio="xMidYMid" viewBox="0 0 478 181">
<g transform="translate(239,90.5) scale(1,1) translate(-239,-90.5)" style="animation-play-state: running; animation-delay: 0s;"><g transform="translate(239 90.5)" style="animation-play-state: running; animation-delay: 0s;"><g style="animation-play-state: running; animation-delay: 0s;"><path d="M0 0L358.5 0 L336.8798045517482 122.61422138225224 Z" fill="#f47000" style="animation-play-state: running; animation-delay: 0s;"></path><path d="M0 0L274.6269328581536 230.43935807262432 L179.25000000000003 310.47010725672123 Z" fill="#f47000" style="animation-play-state: running; animation-delay: 0s;"></path><path d="M0 0L62.25287169359456 353.05357945487657 L-62.252871693594514 353.05357945487657 Z" fill="#f47000" style="animation-play-state: running; animation-delay: 0s;"></path><path d="M0 0L-179.24999999999991 310.4701072567213 L-274.62693285815357 230.4393580726244 Z" fill="#f47000" style="animation-play-state: running; animation-delay: 0s;"></path><path d="M0 0L-336.8798045517481 122.6142213822523 L-358.5 4.3903587749432614e-14 Z" fill="#f47000" style="animation-play-state: running; animation-delay: 0s;"></path><path d="M0 0L-336.8798045517482 -122.61422138225221 L-274.62693285815374 -230.4393580726242 Z" fill="#f47000" style="animation-play-state: running; animation-delay: 0s;"></path><path d="M0 0L-179.25000000000017 -310.4701072567212 L-62.25287169359452 -353.05357945487657 Z" fill="#f47000" style="animation-play-state: running; animation-delay: 0s;"></path><path d="M0 0L62.25287169359439 -353.0535794548766 L179.24999999999977 -310.4701072567214 Z" fill="#f47000" style="animation-play-state: running; animation-delay: 0s;"></path><path d="M0 0L274.62693285815357 -230.43935807262443 L336.8798045517482 -122.6142213822522 Z" fill="#f47000" style="animation-play-state: running; animation-delay: 0s;"></path><circle cx="0" cy="0" r="57.92" fill="#f47000" style="animation-play-state: running; animation-delay: 0s;"></circle><animateTransform attributeName="transform" type="rotate" values="0 0 0;80 0 0" keyTimes="0;1" dur="2s" repeatCount="indefinite" style="animation-play-state: running; animation-delay: 0s;"></animateTransform>
</g>
</g></g>
</svg>