<?xml version="1.0" encoding="utf-8"?>
<svg viewBox="0 0 1700 480" xmlns="http://www.w3.org/2000/svg" xmlns:xlink="http://www.w3.org/1999/xlink">
  <defs>
    <linearGradient id="a" x1="-1676.8" y1="370.59" x2="-1510.59" y2="370.59" gradientTransform="matrix(-.98 .2 .2 .98 -170.21 278.08)" gradientUnits="userSpaceOnUse">
      <stop offset="0" stop-color="#ffe7c7"/>
      <stop offset="0.4" stop-color="#e6bd87"/>
      <stop offset="0.86" stop-color="#8c6b44"/>
    </linearGradient>
    <linearGradient id="h" x1="-1627.39" y1="410.67" x2="-1510.64" y2="410.67" xlink:href="#a"/>
    <radialGradient id="b" cx="-1646.29" cy="380.5" r="74.45" gradientTransform="matrix(-.98 .2 .2 .98 -169.03 277.2)" gradientUnits="userSpaceOnUse">
      <stop offset="0.17" stop-color="#6c2e14"/>
      <stop offset="0.51" stop-color="#902a1e"/>
      <stop offset="0.76" stop-color="#7e2c19"/>
      <stop offset="0.95" stop-color="#6c2e14"/>
    </radialGradient>
    <radialGradient id="i" cx="-1552.71" cy="361" r="56.76" xlink:href="#b"/>
    <radialGradient id="j" cx="-1619.38" cy="345.97" r="96.86" gradientTransform="matrix(-.98 .2 .2 .98 -169.03 277.2)" gradientUnits="userSpaceOnUse">
      <stop offset="0.29" stop-color="#9c2e21"/>
      <stop offset="1" stop-color="#f9a31a"/>
    </radialGradient>
    <linearGradient id="k" x1="-1512.51" y1="406.87" x2="-1345.79" y2="406.87" gradientTransform="matrix(-.98 .22 .22 .98 -17.85 242)" gradientUnits="userSpaceOnUse">
      <stop offset="0" stop-color="#ffe7c7"/>
      <stop offset="0.35" stop-color="#e6bd87"/>
      <stop offset="0.82" stop-color="#8c6b44"/>
    </linearGradient>
    <linearGradient id="l" x1="1529.91" y1="373.28" x2="1475.96" y2="377.14" gradientTransform="matrix(.98 -.22 .22 .98 -32.46 245.27)" xlink:href="#a"/>
    <radialGradient id="m" cx="-1608.97" cy="460.44" r="97.66" gradientTransform="matrix(-.96 .29 .29 .95 -133.08 271.26)" xlink:href="#b"/>
    <linearGradient id="d" x1="-1600.32" y1="483.8" x2="-1586.81" y2="483.8" gradientTransform="matrix(-.96 .29 .29 .96 -134.22 272.11)" gradientUnits="userSpaceOnUse">
      <stop offset="0" stop-color="#b68544"/>
      <stop offset="0.4" stop-color="#9f6928"/>
      <stop offset="0.86" stop-color="#432911"/>
    </linearGradient>
    <linearGradient id="n" x1="-1582.24" y1="479.53" x2="-1428.12" y2="479.53" gradientTransform="matrix(-.96 .29 .29 .96 -134.22 272.11)" xlink:href="#a"/>
    <linearGradient id="o" x1="1392.36" y1="350.37" x2="1497.11" y2="350.37" xlink:href="#b"/>
    <linearGradient id="p" x1="1380.03" y1="319.36" x2="1492.81" y2="319.36" xlink:href="#b"/>
    <linearGradient id="q" x1="-1483.21" y1="565.03" x2="-1448.64" y2="565.03" gradientTransform="scale(-1 1) rotate(18 -780.38 540.621)" xlink:href="#a"/>
    <linearGradient id="r" x1="1426.53" y1="348.16" x2="1416.92" y2="412.63" gradientTransform="matrix(.96 -.27 .24 .85 -24.77 404.79)" xlink:href="#a"/>
    <linearGradient id="c" x1="1439.97" y1="311.73" x2="1447.41" y2="311.73" gradientTransform="rotate(122.37 1440.8 310.816)" gradientUnits="userSpaceOnUse">
      <stop offset="0" stop-color="#603917"/>
      <stop offset="0.86" stop-color="#8c6b44"/>
    </linearGradient>
    <linearGradient id="s" x1="1402.61" y1="301.36" x2="1411.26" y2="301.36" gradientTransform="rotate(31.8 1409.56 310.313)" xlink:href="#c"/>
    <linearGradient id="t" x1="1541.58" y1="309.76" x2="1541.42" y2="403.43" xlink:href="#d"/>
    <linearGradient id="u" x1="1468.14" y1="257.33" x2="1481.63" y2="257.33" xlink:href="#b"/>
    <linearGradient id="v" x1="1416.75" y1="267.29" x2="1428.97" y2="267.29" xlink:href="#b"/>
    <radialGradient id="w" cx="-128.31" cy="335.97" r="65.57" gradientTransform="matrix(1 0 0 .72 468.8 67.15)" gradientUnits="userSpaceOnUse">
      <stop offset="0" stop-color="#fff" stop-opacity=".3"/>
      <stop offset="0.2" stop-color="#fff" stop-opacity=".28"/>
      <stop offset="0.47" stop-color="#fff" stop-opacity=".21"/>
      <stop offset="0.79" stop-color="#fff" stop-opacity=".09"/>
      <stop offset="1" stop-color="#fff" stop-opacity="0"/>
    </radialGradient>
    <radialGradient id="x" cx="-78.37" cy="186.01" r="53.53" gradientTransform="matrix(0 1 -.72 0 472.84 294.73)" gradientUnits="userSpaceOnUse">
      <stop offset="0" stop-color="#fff" stop-opacity=".3"/>
      <stop offset="0.2" stop-color="#fff" stop-opacity=".27"/>
      <stop offset="0.52" stop-color="#fff" stop-opacity=".18"/>
      <stop offset="0.92" stop-color="#fff" stop-opacity=".03"/>
      <stop offset="1" stop-color="#fff" stop-opacity="0"/>
    </radialGradient>
    <radialGradient id="e" cx="750.11" cy="21.28" r="54.54" gradientTransform="matrix(.91 .16 -.16 .87 -233.88 124.33)" gradientUnits="userSpaceOnUse">
      <stop offset="0" stop-color="#fff"/>
      <stop offset="0.17" stop-color="#fff" stop-opacity=".96"/>
      <stop offset="0.45" stop-color="#fff" stop-opacity=".86"/>
      <stop offset="0.82" stop-color="#fff" stop-opacity=".69"/>
      <stop offset="1" stop-color="#fff" stop-opacity=".6"/>
    </radialGradient>
    <radialGradient id="y" cx="631.63" cy="-30.76" r=".14" gradientTransform="matrix(.95 .17 -.17 .93 -187.35 177.88)" xlink:href="#e"/>
    <radialGradient id="z" cx="274.51" cy="283.74" r="145.53" gradientUnits="userSpaceOnUse">
      <stop offset="0" stop-color="#fff"/>
      <stop offset="0.08" stop-color="#fff" stop-opacity=".96"/>
      <stop offset="0.2" stop-color="#fff" stop-opacity=".86"/>
      <stop offset="0.37" stop-color="#fff" stop-opacity=".69"/>
      <stop offset="0.56" stop-color="#fff" stop-opacity=".46"/>
      <stop offset="0.68" stop-color="#fff" stop-opacity=".3"/>
      <stop offset="0.91" stop-color="#fff" stop-opacity=".5"/>
      <stop offset="1" stop-color="#fff" stop-opacity=".5"/>
    </radialGradient>
    <radialGradient id="A" cx="274.51" cy="283.74" r="145.53" gradientUnits="userSpaceOnUse">
      <stop offset="0" stop-color="#fff"/>
      <stop offset="0.05" stop-color="#fff" stop-opacity=".96"/>
      <stop offset="0.14" stop-color="#fff" stop-opacity=".86"/>
      <stop offset="0.25" stop-color="#fff" stop-opacity=".69"/>
      <stop offset="0.38" stop-color="#fff" stop-opacity=".46"/>
      <stop offset="0.46" stop-color="#fff" stop-opacity=".3"/>
      <stop offset="0.91" stop-color="#fff" stop-opacity=".5"/>
      <stop offset="1" stop-color="#fff" stop-opacity=".5"/>
    </radialGradient>
    <linearGradient id="g" x1="204.55" y1="283.83" x2="280.03" y2="283.83" gradientUnits="userSpaceOnUse">
      <stop offset="0" stop-color="#602368"/>
      <stop offset="1" stop-color="#0f1028"/>
    </linearGradient>
    <linearGradient id="f" x1="312.52" y1="122.53" x2="361.71" y2="122.53" gradientUnits="userSpaceOnUse">
      <stop offset="0" stop-color="#454545"/>
      <stop offset="0.01" stop-color="#424242"/>
      <stop offset="0.13" stop-color="#2a2a2a"/>
      <stop offset="0.26" stop-color="#171717"/>
      <stop offset="0.41" stop-color="#0a0a0a"/>
      <stop offset="0.61" stop-color="#020202"/>
      <stop offset="1"/>
    </linearGradient>
    <linearGradient id="B" x1="376.32" y1="149.35" x2="407.67" y2="149.35" xlink:href="#f"/>
    <linearGradient id="C" x1="579.28" y1="-44.31" x2="608.62" y2="-44.31" gradientTransform="rotate(10.16 -876.578 -1158.487)" gradientUnits="userSpaceOnUse">
      <stop offset="0" stop-color="#fff"/>
      <stop offset="1" stop-color="#d9abcf"/>
    </linearGradient>
    <linearGradient id="D" x1="580.85" y1="-45.26" x2="602.82" y2="-45.26" gradientTransform="rotate(90 361.335 -34.165)" gradientUnits="userSpaceOnUse">
      <stop offset="0" stop-color="#2d2a6d"/>
      <stop offset="1" stop-color="#005290"/>
    </linearGradient>
    <radialGradient id="E" cx="246.3" cy="262.6" r="49.52" xlink:href="#e"/>
    <linearGradient id="F" x1="304.91" y1="170.83" x2="344.29" y2="170.83" xlink:href="#g"/>
    <linearGradient id="G" x1="300.61" y1="265.42" x2="356.54" y2="265.42" xlink:href="#g"/>
  </defs>
  <g data-name="Landing_Offer_Details_Background_Desktop">
    <g data-name="Bat" transform="matrix(0.904427, 0, 0, 0.904427, -173.548248, 46.380848)" style="">
      <path data-name="Cloud" d="M 1751.654 9.447 C 1750.425 9.452 1749.202 9.613 1748.014 9.927 C 1736.941 -6.378 1713.451 -7.83 1700.454 6.987 C 1696.704 -2.925 1683.827 -5.414 1676.654 2.387 C 1667.193 -8.07 1651.744 -10.563 1639.474 -3.613 C 1637.561 -10.649 1629.49 -13.951 1623.194 -10.273 C 1621.225 -22.798 1606.435 -28.494 1596.573 -20.526 C 1592.686 -17.386 1590.435 -12.651 1590.454 -7.653 L 1590.454 -7.443 C 1574.609 -14.807 1555.935 -6.252 1551.164 10.557 C 1538.462 10.853 1530.844 24.788 1537.452 35.64 C 1540.519 40.676 1546.039 43.694 1551.934 43.557 C 1551.785 44.55 1551.708 45.552 1551.704 46.557 C 1551.655 63.007 1569.432 73.342 1583.703 65.159 C 1586.032 63.824 1588.088 62.063 1589.764 59.967 C 1599.371 82.459 1629.378 86.807 1644.974 67.967 C 1662.555 89.835 1697.216 84.471 1707.364 58.311 C 1707.965 56.762 1708.46 55.173 1708.844 53.557 C 1724.742 62.084 1744.519 54.824 1751.124 38.037 L 1751.654 38.037 C 1762.67 38.037 1769.555 26.112 1764.047 16.572 C 1761.49 12.144 1756.766 9.417 1751.654 9.417 Z" fill="#fff" opacity=".53"/>
      <g data-name="Golden_Chest">
        <path fill="#c76128" d="M1417.87 268.94l6.09-12.25 47.36-9.34 9.8 10.58-12.14 2.07-1.61-7.13-37.69 5.75-1.4 8.74-10.41 1.58z"/>
        <path fill="url(#a)" d="M1546.03 304.11l-43.54 31.26-118.1 7.98 51.94-31.49 109.7-7.75z"/>
        <path fill="url(#h)" d="M1384.44 343.34l28.01 66.66 97.91-15.39-10.34-68.78-115.58 17.51z"/>
        <path fill="#c76128" d="M1390.63 346.89l23.34 60.08 91.87-14.24-9.9-61.8-105.31 15.96z"/>
        <path fill="#5b2813" d="M1405.47 388.07l.44.91 96.59-13.87-.18-.95-96.85 13.91zM1398.01 366.7l.45.96 101.05-13.84-.17-1-101.33 13.88z"/>
        <path fill="#9f6928" d="M1510.44 394.99l-10.42-69.16 45.36-21.81-2.2 76.48-32.74 14.49z"/>
        <path fill="url(#b)" d="M1513.69 390.08l27.21-13.03.67-66.49-36.35 17.09 8.47 62.43z"/>
        <path fill="#5b2813" d="M1511.67 372.76l28.98-13.23.03-1.1-29.11 13.3.1 1.03zM1508.88 350.11l32.43-16.62-.01-1.29-32.58 16.71.16 1.2z"/>
        <path fill="url(#i)" d="M1398.05 337.83l43.27-6.63-3.94-17.52-39.33 24.15z"/>
        <path fill="url(#j)" d="M1437.34 313.8l-37.04 23.07 98.79-13.83 33.27-16.1-95.02 6.86z"/>
        <g data-name="Coins_Diamonds">
          <path d="M1454.86 324.2a33.47 33.47 0 0 1 10.27-5.09 32.08 32.08 0 0 1 11.91-1.74l3.19-1 1.06 3.1c.89 2.76-4.92 7.07-13 9.63s-15.28 2.4-16.17-.36l-1.08-3.38z" fill="#e39a44"/>
          <ellipse cx="1465.65" cy="320.73" rx="15.28" ry="5.25" transform="rotate(-17.64 1465.993 320.761)" fill="#f5c472"/>
          <path d="M1466.81 323.77c5.51-1.75 9.77-3.86 9.64-4.75a.31.31 0 0 1 .12.14c.27.87-4 3-9.65 4.81s-10.38 2.52-10.65 1.66v-.05c.79.62 5.3-.14 10.54-1.81z" fill="#fff"/>
          <path d="M1464.54 317.18c-6.87 2.19-12 5.48-11.52 7.43a1.13 1.13 0 0 1-.2-.35c-.62-1.94 4.54-5.31 11.51-7.53s13.13-2.45 13.75-.51a.28.28 0 0 1 0 .09c-1.22-1.54-7.02-1.2-13.54.87z" fill="#b7752b"/>
          <path d="M1414.81 328.9a27.66 27.66 0 0 1 8.85-3.36 26.59 26.59 0 0 1 9.92-.47l2.7-.55.62 2.62c.5 2.34-4.61 5.42-11.43 6.88s-12.74.74-13.24-1.6l-.62-2.87z" fill="#e39a44"/>
          <path d="M1411.61 329.55c-.5-2.34 4.62-5.42 11.43-6.87s12.74-.74 13.25 1.6-4.62 5.42-11.43 6.87-12.74.74-13.25-1.6z" fill="#f5c472"/>
          <path d="M1424.66 329.51c4.67-1 8.34-2.39 8.3-3.13a.28.28 0 0 1 .09.13c.15.73-3.57 2.15-8.32 3.16s-8.72 1.25-8.88.51c.61.53 4.37.27 8.81-.67z" fill="#fff"/>
          <path d="M1423.33 323.91c-5.82 1.24-10.26 3.54-10.07 5.17a1 1 0 0 1-.13-.3c-.35-1.64 4.16-4 10.06-5.25s11-1 11.34.68v.08c-.89-1.37-5.68-1.56-11.2-.38z" fill="#b7752b"/>
          <g>
            <path d="M1487.46 321.68a27.28 27.28 0 0 1 6.68-6.59 26.18 26.18 0 0 1 8.81-4.4l2.23-1.59 1.63 2.14c1.4 1.92-2 6.77-7.61 10.81s-11.27 5.78-12.67 3.86l-1.71-2.36z" fill="#ec8723"/>
            <ellipse cx="1494.96" cy="316.22" rx="12.51" ry="4.3" transform="rotate(-35.86 1494.947 316.224)" fill="#f5c472"/>
            <path d="M1496.64 318.29c3.84-2.78 6.62-5.51 6.28-6.17a.25.25 0 0 1 .13.09c.44.6-2.37 3.38-6.27 6.2s-7.42 4.62-7.86 4c.77.26 4.08-1.48 7.72-4.12z" fill="#fff"/>
            <path d="M1493.18 313.74c-4.77 3.46-7.88 7.32-7 8.73a1.05 1.05 0 0 1-.24-.23c-1-1.34 2.16-5.28 7-8.79s9.58-5.27 10.56-3.92v.07c-1.35-.89-5.78.86-10.32 4.14z" fill="#b7752b"/>
          </g>
          <g>
            <path fill="#3e61ac" d="M1408.07 314.4l-15.66 14.69 2.13 7.74 21.29 1.51-.51-21.78-7.25-2.16z"/>
            <path fill="#4479bc" d="M1403.58 318.7l6.73 3.62 5.16-5.59-7.22-2.27-4.67 4.24z"/>
            <path fill="#4b82c3" d="M1399.9 331.12l-3.33-6.05-4.21 3.82 2 7.78 5.54-5.55z"/>
            <path fill="#5dcbf4" d="M1403.58 318.7l-7.01 6.37 3.33 6.05 10.41-8.8-6.73-3.62z"/>
            <path fill="#436cb3" d="M1415.62 338.52l-5.31-16.2-10.41 8.8 15.72 7.4z"/>
            <path fill="#394ea1" d="M1415.47 316.73l.15 21.79-5.31-16.2 5.16-5.59z"/>
            <path fill="#fffffc" d="M1415.19 316.7l-4.37 5.17.52 4.67-1.98-3.22-6.41 4.56 5.01-6.51-2.29-2.24 3.56 1.57 5.96-4z"/>
          </g>
          <path fill="url(#k)" d="M1546.03 304.11l-46.23 21.84-115.75 17.78 10.49-6.9 8.94.64 93.74-15.79 33.26-16.27 15.55-1.3z"/>
          <g>
            <path d="M1433.63 327.67a27.7 27.7 0 0 1 8.66-4 26.78 26.78 0 0 1 10-1.17l2.68-.74.81 2.6c.67 2.32-4.26 5.77-11 7.7s-12.77 1.63-13.44-.69l-.81-2.84z" fill="#da8227"/>
            <ellipse cx="1442.68" cy="325.04" rx="12.72" ry="4.37" transform="rotate(-15.98 1442.348 325.008)" fill="#eeae43"/>
            <path d="M1443.58 327.6c4.63-1.32 8.22-3 8.14-3.72a.38.38 0 0 1 .09.13c.21.72-3.44 2.41-8.14 3.76s-8.7 1.85-8.91 1.12c.65.49 4.42-.03 8.82-1.29z" fill="#fff"/>
            <path d="M1441.85 322.07c-5.76 1.65-10.08 4.26-9.77 5.89a1.14 1.14 0 0 1-.15-.29c-.47-1.63 3.9-4.3 9.76-6s11-1.72 11.45-.1v.08c-.98-1.29-5.82-1.15-11.29.42z" fill="#af742e"/>
          </g>
          <path fill="#fffffc" d="M1461.09 318.37l-5.05 4.86.4 4.31-2.58-2.48-7.65 4.32 6.31-6.66-1.75-3.36 3.93 1.21 6.39-2.2z"/>
        </g>
        <path d="M1459.44 330a27.1 27.1 0 0 1 6.68-6.59 26.18 26.18 0 0 1 8.81-4.4l2.23-1.59 1.62 2.14c1.4 1.92-2 6.76-7.6 10.81s-11.27 5.78-12.67 3.85l-1.71-2.35z" fill="#ec8723"/>
        <ellipse cx="1466.93" cy="324.58" rx="12.51" ry="4.3" transform="rotate(-35.86 1466.91 324.58)" fill="#f5c472"/>
        <path d="M1468.62 326.65c3.84-2.78 6.61-5.51 6.28-6.17a.3.3 0 0 1 .13.09c.44.6-2.37 3.38-6.27 6.2s-7.42 4.62-7.86 4c.76.23 4.1-1.49 7.72-4.12z" fill="#fff"/>
        <path d="M1465.16 322.1c-4.78 3.46-7.89 7.32-7.05 8.73a.88.88 0 0 1-.24-.23c-1-1.34 2.16-5.28 7-8.79s9.59-5.27 10.57-3.92v.07c-1.32-.89-5.74.86-10.28 4.14z" fill="#b7752b"/>
        <path d="M1511.53 251.15c-33 17.75-16 51.51-12 70.48l45.85-17.63a116.53 116.53 0 0 0-1.77-21.84c-5.91-30.74-20.95-36.99-32.08-31.01z" fill="url(#l)"/>
        <path d="M1503.32 315.39l36.07-13.24c-1.3-28-9.17-45.95-19-48.2a5.19 5.19 0 0 0-1.77-.14c-3.24-.81-21.45 14.49-15.3 61.58z" fill="url(#m)"/>
        <path d="M1539.39 302.15l2.56-1c.48-7.81-4.9-43.81-19.79-47.54a8.13 8.13 0 0 0-4.19 0 5 5 0 0 0-.83.34 19.56 19.56 0 0 1 3.34.13c13.92 2.53 19.19 40.74 18.91 48.07z" fill="url(#d)"/>
        <path d="M1375.17 333l124.33-11.33c-3.39-16.61-8.94-54.76 10.84-69.82l-107.65 20c-10.92 5.46-31.69 19.78-27.52 61.15z" fill="#c76128"/>
        <path d="M1375.17 333l70.37-6.41 54-4.92c-9-55.92 12-70.48 12-70.48l-8.1 2c-1.13.69-17.36 16.19-10.62 63.93l-112.31 12.4c-4.22-32.55 10.56-49.74 31.33-59.68l-9.14 2c-9.08 2.91-32.24 17.43-27.53 61.16z" fill="url(#n)"/>
        <path opacity=".35" fill="url(#o)" d="M1392.36 345.62l103.58-14.69 1.17 7.34-39.01 4.7 5.37 19.68-37.91 7.16-6.03-22.46-25.77 3.8-1.4-5.53z"/>
        <path opacity=".35" fill="url(#p)" d="M1380.03 324.91l37.13-5.26-1.31-3.47 32.38-7.11-.02 6.18 43.38-6.14 1.22 7.94-112.78 12.59v-4.73z"/>
        <path fill="url(#q)" d="M1452.97 333.63l-33.29 4.46 6.9 26.03 31.52-3.35-5.13-27.14z"/>
        <path d="M1408.33 338.1a27.18 27.18 0 0 1 8.64-3.67 26.24 26.24 0 0 1 9.82-.85l2.65-.66.72 2.59c.59 2.3-4.36 5.55-11.06 7.25s-12.61 1.23-13.2-1.07l-.72-2.82z" fill="#ec8723"/>
        <ellipse cx="1417.31" cy="335.78" rx="12.52" ry="4.3" transform="rotate(-14.28 1417.79 335.834)" fill="#f5c472"/>
        <path d="M1418.11 338.32c4.6-1.17 8.18-2.69 8.12-3.42a.47.47 0 0 1 .09.12c.18.73-3.45 2.28-8.12 3.47s-8.61 1.57-8.79.84c.59.51 4.34.1 8.7-1.01z" fill="#fff"/>
        <path d="M1416.58 332.82c-5.72 1.46-10 3.91-9.78 5.52a.71.71 0 0 1-.14-.29c-.42-1.61 4-4.12 9.77-5.6s10.85-1.37 11.27.24v.08c-.94-1.33-5.7-1.33-11.12.05z" fill="#b7752b"/>
        <path d="M1454.33 367.13l-26.33-4.48-6.29 2.4s1.11 23.24 14.16 23.9a11.27 11.27 0 0 0 2.13-.09 9.64 9.64 0 0 0 1.28-.27l6.62-1.41.29-.07 1.06-.22v-.1c8.29-3.1 7.08-19.66 7.08-19.66z" fill="#603917" opacity=".28"/>
        <path d="M1423.81 322.77l6.3 31.09c1.42 3.84 3.56 6.84 7.45 6.8 4.3 0 10.38-1.93 12.26-6.77a7.64 7.64 0 0 0 .35-3.95l-5.18-32-2.57-3.48z" fill="#603917"/>
        <path d="M1419.53 319.37l9.34 34a10.51 10.51 0 0 0 1.24 3.14 8.48 8.48 0 0 0 7.45 4.19 11.14 11.14 0 0 0 9.48-5.44 9.16 9.16 0 0 0 1.15-5.75l-5.77-35z" fill="url(#r)"/>
        <path d="M1440 358.62l-2 .48c-.47.11-1-.41-1.11-1.15l-4.93-26.55c-.14-.75.13-1.45.61-1.56l2-.47c.48-.11 1 .41 1.11 1.15l4.94 26.55c.12.75-.16 1.44-.62 1.55z" fill="#603917"/>
        <g opacity=".32" fill="#603917">
          <path d="M1441.24 351.86v14.56a6.89 6.89 0 0 0 2 .14c1.11 0 2 .84 2-.15v-14.57a10.53 10.53 0 0 0-8.36-10.24 8.56 8.56 0 0 0-.63 4 6.53 6.53 0 0 1 4.99 6.26zM1423.07 353.17a7.17 7.17 0 0 0 2 .13 6.88 6.88 0 0 0 2-.15v-1.25a6.54 6.54 0 0 1 5.56-6.46 16 16 0 0 1 .19-4 10.52 10.52 0 0 0-9.76 10.5v1.25l.01-.02z"/>
        </g>
        <g>
          <path d="M1437.48 385.43c-9.14-4.73-10-22.78-10-22.78l24 5.55s2.5 14.69-5.78 17.79v.1l-1.06.22-.29.06-7.93 1.69z" fill="#8e8378"/>
          <path d="M1420.07 364.25l24 5.56s3.22 19-9.83 18.34-14.17-23.9-14.17-23.9z" fill="#bfb5aa"/>
          <path fill="#60554a" d="M1444.07 369.81l7.39-1.61-23.99-5.55-7.4 1.6 24 5.56z"/>
          <path d="M1432.57 349.37c-1.2-5.88.63-11.22 4.09-12.16.24.05.59.87.8 1.93s.22 2.07 0 2.12h-.11c-2.08.73-3.16 4-2.42 7.66s3 6.26 5.23 6.12a.16.16 0 0 1 .08-.06c.24-.05.61.82.84 1.94s.22 2 0 2.1 0 0-.07 0c-3.51.39-7.25-3.8-8.44-9.65z" fill="#e6bd87"/>
          <g fill="#bfb5aa">
            <path d="M1439.73 353.53v14.57a7.53 7.53 0 0 0 2 .13 7.11 7.11 0 0 0 2-.14v-14.57a10.52 10.52 0 0 0-8.35-10.24 8.41 8.41 0 0 0-.63 4 6.51 6.51 0 0 1 4.98 6.25zM1422.69 354.85a7.3 7.3 0 0 0 2 .12 7.17 7.17 0 0 0 2-.14v-1.25a6.54 6.54 0 0 1 5.57-6.46 15.09 15.09 0 0 1 .19-4 10.51 10.51 0 0 0-9.76 10.5v1.23z"/>
          </g>
        </g>
        <path fill="#60554a" d="M1429.76 373.05l3.46.5-.81 4.01.52 2.13-1.59.36-.48-2.14-1.1-4.86z"/>
        <g>
          <path fill="#603917" d="M1438.21 313.16l-1.03.12.19.93-.17.35.15.35-.35.45.46.53-.31.55.32.56-.42.46.29.41-.2.43.3.42-.47.61.22.5-.3.4.24.53-.44.38.16.34.44.44.6-.08.75-.55.28-.48-.57-.31.23-.52-.37-.34.22-.62-.33-.43.49-.77-.16-.31.22-.67-.19-.18.4-.53-.2-.36.28-.36-.06-.51.53-.67-.14-.32.12-.58-1.18-.17z"/>
          <ellipse cx="1438.56" cy="312.85" rx="2.11" ry="4.19" transform="rotate(-81.8 1438.571 312.848)" fill="url(#c)"/>
          <ellipse cx="1438.66" cy="312.16" rx="2.11" ry="4.19" transform="rotate(-81.8 1438.672 312.147)" fill="#e6bd87"/>
          <ellipse cx="1438.29" cy="319.15" rx="4.62" ry="1.64" fill="#603917" opacity=".32"/>
          <path d="M1441.51 312a1.07 1.07 0 0 1 .11.92c-.44 1.09-3.51.8-3.57.4-.05-.2.8-.6 3.46-1.32z" fill="#fff"/>
        </g>
        <g>
          <path fill="#603917" d="M1405.53 305.25l-.28 1.18 1.09.15.32.34.44-.04.36.57.77-.29.47.55.74-.13.35.64.56-.16.38.39.59-.16.48.76.63-.04.32.48.68-.05.24.62.44-.03.66-.31.14-.68-.3-1.04-.42-.5-.56.51-.49-.46-.5.27-.6-.49-.61.2-.65-.84-.4.05-.65-.51-.27.14-.42-.65-.48.08-.28-.45-.59-.13-.52-.85-.4.03-.59-.37-.65 1.22z"/>
          <ellipse cx="1405.32" cy="304.75" rx="4.87" ry="2.46" transform="rotate(-61.77 1405.439 304.713)" fill="url(#s)"/>
          <ellipse cx="1404.6" cy="304.36" rx="4.87" ry="2.46" transform="rotate(-61.77 1404.716 304.326)" fill="#e6bd87"/>
          <path d="M1405 305.49a1.08 1.08 0 0 1 .55.74c.15 1.17-2.66 2.42-2.91 2.1-.11-.17.43-.92 2.36-2.84z" fill="#fff"/>
        </g>
        <path d="M1463.47 260.52s-6.61 5.48-11.3 22.73c-4.16 15.31-2.52 28.76-1.36 37.52M1399.7 327.33c-1.16-8.76-3.41-17.47 1.55-32.54 6.34-19.28 16.93-25.85 16.93-25.85" fill="none" stroke="#5b2813" stroke-miterlimit="10"/>
        <path fill="#603917" d="M1390.06 346.69l3.26-.2 21.87 60.48h-1.22l-23.91-60.28z"/>
        <path fill="url(#t)" d="M1540.49 311.07l2.6-1.22-1.3 66.98-1.84.67.54-66.43z"/>
        <g>
          <path d="M1381.1 350.06a27.41 27.41 0 0 1 4.89-8 26.33 26.33 0 0 1 7.5-6.38l1.78-2.08 2.09 1.69c1.82 1.53-.32 7.05-4.78 12.32s-9.55 8.3-11.37 6.77l-2.23-1.88z" fill="#ec8723"/>
          <ellipse cx="1387.06" cy="342.97" rx="12.5" ry="4.31" transform="rotate(-49.75 1387.003 342.985)" fill="#f5c472"/>
          <path d="M1389.19 344.57c3.06-3.61 5.1-6.92 4.62-7.49a.35.35 0 0 1 .14.06c.57.48-1.49 3.85-4.59 7.52s-6.1 6.26-6.67 5.78c.8.05 3.6-2.44 6.5-5.87z" fill="#fff"/>
          <path d="M1384.74 341c-3.81 4.5-5.9 9-4.75 10.16a1 1 0 0 1-.28-.16c-1.28-1.07.82-5.65 4.69-10.22s8-7.41 9.31-6.33v.06c-1.48-.51-5.36 2.21-8.97 6.49z" fill="#b7752b"/>
        </g>
        <path opacity=".35" fill="url(#u)" d="M1468.13 256.27l9.49-2.12 4.01 3.99-12.68 2.38-.82-4.25z"/>
        <path opacity=".35" fill="url(#v)" d="M1428.97 263.06l-8.67.99-3.55 7.48 11.57-3.14.65-5.33z"/>
        <path fill="#ffc995" opacity=".42" d="M1439.66 253.59l16.82-2.9-1.99 4.15-16.39 2.06 1.56-3.31z"/>
        <path fill="#ffc995" opacity=".15" d="M1386.55 291.56l109.15-25.61-4.52 28.29-109.36 8.56 4.73-11.24z"/>
      </g>
      <g data-name="Character_Bat">
        <path d="M1253.93 133.9s50.22-9.45 57.06 23.84c0 0 20.44-5.2 35.71 15.64 0 0-2-15.71 14.57-7.88 21.35 10.05 83.64 86.9 83.64 86.9l-23-70.57-23.28-40.52-24 15.11-35.4-63.75-6.23-5.26s-37.35 16.49-79.07 46.49zM1517.24 144.2s10.33-32.61 38.35-24.45c0 0-17.63-57.2 8.1-68.95 0 0-47.59-5.81-75.6 10.18l-12.41 43.35-31.93 26.91v35.49l18.51 82.76S1459 114.8 1517.24 144.2z" fill="#87829d"/>
        <path d="M1537.28 99.14c0 .19-.08.32-.1.41V101c.14-1.09.33-2.17.55-3.23a3.32 3.32 0 0 0-.45 1.37z" fill="#6e6d7c"/>
        <path d="M1496.83 66.28h.4l-4.56-2.61 4.56-2.94h-6.51l1.57-1.91c25.67-11.74 71.4-8 71.4-8-29.27-5.35-58.73.63-68.91 5l.5-.6-2.28 1.41a34 34 0 0 0-7.77 4.77l-13.58 41.73s-14.46 0-29.35 14.78c-22.08-.06-29.29 5.64-39.58 3.85-7-1.22-15.06 5.51-26.57 24L1339 89.14l-4.23-6.53v3.59h-3.91v.72c-6.25 3.56-24.76 5.06-76.94 47 0 0 56.57-35.5 79-43.89l1.45.6c-24.85 31.24-23 66-23 66 0-29.21 20.29-58.76 25.81-64.77h.12c-5.31 48.72 8.24 78 8.24 78-11.76-30.13-7.48-68.22-6.25-77.13l35.6 76.18 24-26.49s-1.66 22.33 2.1 31.55a31.31 31.31 0 0 0 19.72 18.03l24.2 60.44-9.08 2.52 6.57 2.28 6.19-5.16-15-60.84 10.66-4 15.59 63.22 2.63-.26-7.47-80.37s2.38-6 .3-16.88c-1.87-8.84-7.94-16.16-7.94-16.16l29.38-26.9 9.93-40.56c5.38 7.74 23.94 36.59 27.69 70.63 0 0-.57-43.24-26.39-73.06l.28-.52c26.28 7.43 64.71 51.62 64.71 51.62-13.42-24-44.89-45.5-56.13-51.72z" fill="#686377"/>
        <path d="M1496.83 66.28h.4l-4.56-2.61 4.56-2.94h-6.51l1.57-1.91c25.67-11.74 71.4-8 71.4-8-29.27-5.35-58.73.63-68.91 5l.5-.6-2.28 1.41a34 34 0 0 0-7.77 4.77l-13.58 41.73s-14.26-.34-29.35 14.78c-2.19.27-34 5.33-36 5.65.53.62 8.21 5.17 16.67 8.85 5.47 2.38 7.7 9.44 7.86 15.51a30.3 30.3 0 0 1-4.84 16.75c-3.36 5.42-7.5 10.18-13.45 12.77-1.06.45-7.71 1.44-8.78 1.72 5.07 8.86 17 12.8 17 12.8l24.2 60.44 3.68-.36-15-60.84 10.66-4 15.38 62.28h2.68l-7.36-79.65s2-9 .3-15.86c-2.53-13-7.94-17.18-7.94-17.18l29.38-26.9 9.93-40.56c5.38 7.74 23.94 36.59 27.69 70.63 0 0-.57-43.24-26.39-73.06l.28-.52c26.28 7.43 64.71 51.62 64.71 51.62-13.42-24-44.89-45.5-56.13-51.72z" fill="#454156" opacity=".6"/>
        <g>
          <path d="M1493.32 35.07c-24.75-7.59-56.58 29.93-56.58 29.93l14.35 34c41.8-30.36 42.23-63.93 42.23-63.93z" fill="#87829d"/>
          <path d="M1493.32 35.07c-24.75-7.59-56.58 29.93-56.58 29.93l14.35 34c41.8-30.36 42.23-63.93 42.23-63.93z" fill="#605b75" opacity=".6"/>
          <path d="M1492.24 35.84c-24.3-7.56-53.08 37.22-53.08 37.22l12 25.2c40.84-29.51 41.08-62.42 41.08-62.42z" fill="#bb7587"/>
          <path d="M1451.25 95.56c16.09-16.71 14.33-40.5 11-49.24-13.16 11.22-23.14 26.74-23.14 26.74l7.09 27.7z" fill="#663a4a" opacity=".5"/>
          <path d="M1419.34 0s-38.71 27.75-29.4 72.22l32.12-8.52s16.39-46.31-2.72-63.7z" fill="#87829d"/>
          <path d="M1419.21 1.31c18.87 17-5.35 64.39-5.35 64.39l-23.36 6.1c-10.18-42.37 28.71-70.49 28.71-70.49z" fill="#bb7587"/>
          <path d="M1425.21 32.82c-3.19.44-19.44 0-36.64 28.54 0 4.3.81 5.79 1.93 10.44l23.36-6.1s8.22-16.09 11.35-32.88z" fill="#663a4a" opacity=".5"/>
          <path d="M1433.07 124.58s-21.45.87-30.21-2.43c-10.65-4-18.94-10.56-25.57-23.89l3.85-1.8-5.14-1.89 4.34-3.43-5.53-1.33 6.52-2.4-6.92-4.65 7.92-1.36s3.45-21.36 25.35-22.31l-2.55-2s5.48-1.87 8.42.4c0 0-.43-4.5-6-5.21 0 0 12.19-.71 14.6 5.73 0 0-2.6-7.29-7.55-8.8 0 0 12.83 1.62 29.52 19.19l8.6 7.29-2.31.45 4.71 2-3.59 1.94 4 1.28-3.61 4s-.4 19.57-1.35 23l-2.2.11 5.4 3.59-6.35.09s5.06 2.09 5.74 3c0 0-5.55 2-7.86 1.35a10.18 10.18 0 0 1 2.45 4l-5.47-1.46 2.86 2.66z" fill="#87829d"/>
          <path d="M1445 116.51c2.3.7 7.86-1.35 7.86-1.35-.69-.92-5.75-3-5.75-3l6.35-.09-5.39-3.59 2.19-.1c1-3.45 1.36-23 1.36-23l3.61-4-4-1.28 3.59-2-4.71-2 2.31-.46-8.59-7.28c-11.66-12.27-23.42-18.55-29.1-19.14 4.55 2.35 4.52 4.26 6.54 6.55l1 2.25-4.58 1 7.59 4.43-5.91-.59 6.38 2a18.39 18.39 0 0 1 13 17.25v.37c0 14.32-6.6 16.38-7.56 19.83l-.15 1.17 5.4 3.59-6.35.09s5.06 2.09 5.74 3c0 0-5.55 2-7.86 1.35a10.25 10.25 0 0 1 2.45 4l-5.47-1.46 2.86 2.66-14.73 2s-12.42-.18-22.38-3.57a42.49 42.49 0 0 0 11.81 6.95c8.73 3.37 30.22 2.42 30.22 2.42l12.14-2.83-2.86-2.66 5.47 1.46a10.18 10.18 0 0 0-2.48-3.97z" fill="#605b75" opacity=".6"/>
          <path d="M1395.82 99.25s-11.44-11.19-2.74-17.33 6.82 4.75 6.82 4.75 3.12-6.54 7.47-2c5.05 5.26-.47 13.13-11.55 14.58z" fill="#605b75" opacity=".58"/>
          <path d="M1396.16 98a4.62 4.62 0 0 1-1.06-.66c-2-2.18-9.32-11.28-1.67-16.67 2-1.41 3-2.46 4.06-2.42a3.65 3.65 0 0 1 2 1.29c1.49 1.74.78 5.88.78 5.88s2.09-2.42 4.42-2.29a5.28 5.28 0 0 1 2.7 1.58 4.9 4.9 0 0 1 1.08 2.12c1.59 6.02-5.08 10.26-12.31 11.17z" fill="#663a4a"/>
          <path d="M1390.4 63.75c-4.31 2.33-6.75 7.18-4.21 11.64 3.53 6.2 8.32 4.63 12.62 2.3s4.42-6.54 2.38-10.29-6.48-5.98-10.79-3.65z" fill="#605b75"/>
          <path d="M1395.1 97.29s-11.44-11.19-2.73-17.29 6.81 4.75 6.81 4.75 6.59-4.66 8.21 1.41-5.07 10.26-12.29 11.13z" fill="#d197a7"/>
          <path d="M1395.6 79.75c1.63.14 4 1.66 1.41 5.74s-6.36 3.14-6.22.09 3.21-5.97 4.81-5.83zM1405.77 86.34c-1-1.33-3.56-2.6-5.88 1.55s.49 6.93 3.14 5.35 3.71-5.58 2.74-6.9z" fill="#421a29"/>
          <path d="M1390.79 85.58a2.32 2.32 0 0 0 2.79 2.59 2.37 2.37 0 0 1-1.42-2.46c.13-2.74 2.59-5.37 4.27-5.77a3.3 3.3 0 0 0-.83-.19c-1.6-.14-4.67 2.79-4.81 5.83zM1399.89 87.89c-2 3.6-.17 6.16 2.08 5.75-1.5-.62-2.29-2.8-.71-5.62 1-1.83 2.1-2.6 3.07-2.78-1.23-.47-2.89-.12-4.44 2.65z" fill="#60293a"/>
          <path d="M1422 70.77c-5.42-.4-11 2.66-10.88 8.36 0-1.22 1.63 10.9 11 9.64 6.23-.84 7.46-4.91 7.79-9.64s-2.46-7.95-7.91-8.36z" fill="#605b75"/>
        </g>
      </g>
      <path d="M1395.14 100.6c-.21.09.34 1 .12 2.35-.29 1.76-1.46 2.11-2 3.71a2.15 2.15 0 0 0 1.32 3c1.1.31 3-.86 3.18-3.56.29-3.1-2.23-5.67-2.62-5.5z" fill="#423b5b"/>
      <path d="M1399.14 106.08c-.22 0-.53 2.19-1.53 3.47-.67.85-1.62 1-1.57 1.17s1.92.58 2.78-.35c1.18-1.28.59-4.37.32-4.29z" fill="#605b75" opacity=".58"/>
      <path fill="#605b75" d="M1447.59 251.57l-9.58 4.24 5.23 11.53v-9.86l4.35-5.91z"/>
      <path fill="#605b75" d="M1447.33 251.68l-14.98-.43 8.03 16.09-1.38-10.15 8.33-5.51z"/>
      <path fill="#454156" d="M1447.33 251.68l-4.94 1.67 2.9 13.99 2.04-9.76 1.25-5.9h-1.25z"/>
      <path fill="#605b75" d="M1462.39 248.76l-9.58 4.24 5.24 11.53v-9.86l4.34-5.91z"/>
      <path fill="#605b75" d="M1462.13 248.87l-14.98-.43 8.04 16.09-1.39-10.15 8.33-5.51z"/>
      <path fill="#454156" d="M1462.13 248.87l-4.94 1.67 2.9 13.99 2.04-9.76 1.25-5.9h-1.25z"/>
      <path d="M1271.53 105.33c.65 1.9-16 5.06-22.14 18.93-2.81 6.38-2 11.83-2.77 11.83-1.23 0-5.9-13 .4-22.48 7.18-10.84 23.88-10.1 24.51-8.28z" fill="#fff" opacity=".42"/>
      <path d="M1233.18 109.67c-1-.14-4.34 7-2.76 14.2 1.39 6.4 6.22 11.12 7.11 10.65s-1.76-4.61-3.16-13c-1.27-7.65-.43-11.74-1.19-11.85z" fill="#fff" opacity=".26"/>
      <path d="M1333.82 73.29c-.1.69 2.38 1.07 6.08 4.84l.26.27c4 4.21 5 8.25 5.63 8.11.92-.2 2.24-10-3.19-13.4-3.6-2.24-8.6-.79-8.78.18z" fill="#fff" opacity=".42"/>
      <path d="M1438.32 79s-.71 5.68.55 7.76c.53.88 2.26.57 2.81-.17 2.82-3.74-3.43-7.59-3.36-7.59zM1442.84 88.8a2 2 0 0 0-.64 2 1.9 1.9 0 0 0 1.18 1.51 2.09 2.09 0 0 0 2.25-2.18 2.06 2.06 0 0 0-2.79-1.33z" fill="#fff" opacity=".43"/>
      <path d="M1423.8 242.87c-.3.46-7.88-2.43-14.23-8.87-8.17-8.28-10.62-18.67-10.08-18.93s3.21 7.88 11.46 16.76c6.83 7.35 13.14 10.61 12.85 11.04zM1474.83 196.23c-.57 0 .54 8.39-1.59 21.5-1.61 10-4 16-3.55 16.16s4.5-7.1 6.12-16.36c2.01-11.44-.37-21.33-.98-21.3zM1479.77 204.51c-.61.25 1.68 4.18.79 9.86-.58 3.7-2.13 5.71-1.78 5.92.5.29 4.54-3.17 4.74-7.89.2-4.47-3.14-8.14-3.75-7.89z" fill="#fff" opacity=".63"/>
      <path d="M1430.64 67.24c0 .08 9.16-.06 9.2 5.84 0 1.6-2 2.59-3.18 2.28-2.82-.75-6.04-8.24-6.02-8.12z" fill="#fff" opacity=".43"/>
      <ellipse cx="1393.4" cy="69.95" rx="7.92" ry="7.89" transform="rotate(-19.1 1393.164 69.97)"/>
      <ellipse cx="1392.25" cy="69.43" rx="6.65" ry="6.63" fill="#fff"/>
      <ellipse cx="1389.95" cy="68.39" rx="4.04" ry="4.03"/>
      <ellipse cx="1393.4" cy="66.65" rx="1.74" ry="1.73" fill="#fff" opacity=".67"/>
      <g>
        <ellipse cx="1419.27" cy="77.27" rx="8.7" ry="8.67" transform="rotate(-19.1 1419.01 77.282)"/>
        <ellipse cx="1418.01" cy="76.7" rx="7.3" ry="7.28" fill="#fff"/>
        <ellipse cx="1415.47" cy="75.56" rx="4.44" ry="4.43"/>
        <ellipse cx="1419.27" cy="73.65" rx="1.91" ry="1.9" fill="#fff" opacity=".67"/>
      </g>
    </g>
    <g data-name="Boo" style="">
      <path data-name="Cloud_3" d="M 278.945 79.312 C 278.132 79.316 277.322 79.423 276.535 79.632 C 269.229 68.821 253.665 67.861 245.085 77.692 C 243.698 74.024 240.187 71.596 236.265 71.592 C 233.632 71.588 231.119 72.696 229.345 74.642 C 223.106 67.698 212.874 66.034 204.755 70.642 C 203.497 65.987 198.159 63.799 193.995 66.232 C 192.524 57.979 182.67 54.414 176.258 59.815 C 173.84 61.852 172.426 64.84 172.385 68.002 L 172.385 68.112 C 161.873 63.216 149.48 68.936 146.385 80.112 C 138.003 80.842 133.554 90.373 138.378 97.267 C 140.334 100.063 143.485 101.786 146.895 101.922 C 145.59 110.473 152.246 118.161 160.895 118.092 C 165.18 118.085 169.229 116.127 171.895 112.772 C 178.233 127.653 198.083 130.531 208.385 118.062 C 219.978 132.537 242.892 129.034 249.631 111.757 C 250.036 110.72 250.368 109.656 250.625 108.572 C 261.155 114.251 274.279 109.428 278.625 98.282 L 278.975 98.282 C 286.288 98.282 290.859 90.366 287.203 84.032 C 285.506 81.093 282.369 79.282 278.975 79.282 Z" fill="#fff" opacity=".2"/>
      <path data-name="Cloud_2" d="M 964.876 359.804 C 962.517 359.807 960.167 360.093 957.876 360.654 C 954.97 327.951 927.618 302.852 894.786 302.764 C 883.17 302.748 871.778 305.954 861.876 312.024 C 830.757 262.028 757.185 264.467 729.447 316.415 C 728.315 318.535 727.283 320.707 726.356 322.924 C 693.032 304.521 651.121 319.542 637.076 354.924 C 633.81 353.72 630.357 353.1 626.876 353.094 C 603.632 353.517 589.562 378.944 601.55 398.862 C 606.912 407.771 616.48 413.295 626.876 413.484 C 631.656 413.486 636.366 412.333 640.606 410.124 C 657.883 441.181 697.381 451.861 727.956 433.744 C 742.007 447.875 765.688 444.571 775.336 427.134 C 782.357 429.213 789.643 430.267 796.966 430.264 C 798.299 430.264 799.599 430.234 800.866 430.174 C 824.98 451.429 861.223 451.14 884.996 429.504 C 906.116 432.81 927.476 425.214 941.766 409.314 C 956.708 427.024 985.218 421.917 993.084 400.122 C 1000.149 380.545 985.689 359.876 964.876 359.804 Z" fill="#fff" opacity=".35"/>
      <g data-name="Character_Boo" opacity=".9" style="visibility: hidden;">
        <ellipse cx="340.48" cy="308.41" rx="74.52" ry="55.17" transform="rotate(-30 340.481 308.412)" fill="url(#w)"/>
        <ellipse cx="339.26" cy="216.36" rx="45.04" ry="60.84" transform="rotate(-78.57 339.274 216.36)" fill="url(#x)"/>
        <g stroke="#fff" stroke-miterlimit="10" stroke-width=".5">
          <path d="M468.91 235.36c-.67-6.76 3.45-7.63 4.51-11.68 1.72-.52.12-7.72 1.36-9.32 3.12-4 4.37-5.05 0-5.52s-6.18 2.84-6.34 5.68a11.31 11.31 0 0 0-10.5 1.06c-5.74 4.17-2.21 9.42-2.21 9.42l3.33 6.53a41.36 41.36 0 0 1-2.06 15.06c-1.88 5.55-6.46 11.79-9.33 14.74-6.95 7.17-15.14 8.95-26 8.73-3.53-.07-5.4-.27-5.4-.27s-1.84 18.88-5.3 31.76c-5 18.58-9.09 20.39-5.38 20.74 8.74.81 17 .48 24.65-2.05 24.36-8.07 35.76-22.21 40.75-41.07 4.86-18.53-1.21-34.96-2.08-43.81z" fill="url(#e)"/>
          <path d="M417.42 258.05v-.38" fill="url(#y)"/>
        </g>
        <path d="M236.52 215.5L249 197.82s6.91-11.35 8.8-15.57c5.66-12.69 20.62-38.79 49.83-44.63 38.94-7.79 49.65-2 73 18.49s43.16 84 32.45 137.59-60.71 85.3-107.44 82.42c-42.33-2.65-39.91-16.55-53.54-11.68s4.8 13.38 6.51 27.88c2.5 21.28-3.59 34.42-24 39.29-8.09 1.92-28.57 2.44-38.78-.49-8.7-2.5-8-8.25-6.81-9.74 2.25-2.79 2.65-3.29 10.54-3.4 17.63-.24 27.26-14.6 17.53-27.26s-24.58-17.91-39.92-24.34c-29.42-12.33-42.39-32.25-44-61.47A66.69 66.69 0 0 1 150.22 256c10.92-12 27.91-14.1 35.47-16.31 19.2-5.63 44.55-14.41 50.83-24.19z" stroke="#f7f8f9" stroke-miterlimit="10" stroke-width=".4" fill="url(#z)"/>
        <path d="M236.52 215.5L249 197.82s6.91-11.35 8.8-15.57c5.66-12.69 20.62-38.79 49.83-44.63 38.94-7.79 49.65-2 73 18.49s43.16 84 32.45 137.59-60.71 85.3-107.44 82.42c-42.33-2.65-39.91-16.55-53.54-11.68s4.8 13.38 6.51 27.88c2.5 21.28-3.59 34.42-24 39.29-8.09 1.92-28.57 2.44-38.78-.49-8.7-2.5-8-8.25-6.81-9.74 2.25-2.79 2.65-3.29 10.54-3.4 17.63-.24 27.26-14.6 17.53-27.26s-24.58-17.91-39.92-24.34c-29.42-12.33-42.39-32.25-44-61.47A66.69 66.69 0 0 1 150.22 256c10.92-12 27.91-14.1 35.47-16.31 19.2-5.63 44.55-14.41 50.83-24.19z" stroke="#f7f8f9" stroke-miterlimit="10" stroke-width=".4" fill="url(#A)"/>
        <path d="M263.35 324.9c20.37-1.67 16.65-7 16-9.82-1.87-8.1-31.64-11.76-32.71-20.93-1.12-9.74-38.49-59.72-41.19-50.26-.48 1.68-5.17 30.88 12.75 55.52 14.52 19.95 36.49 26.21 45.15 25.49z" opacity=".25" fill="url(#g)"/>
        <path d="M146.23 325.52c7 18.79 19.24 27.38 37.45 35 13.48 5.68-22.09-23.57-25.12-50.61-1.8-16.05 4.82-35.65-9-25.11-4.24 3.27-10.56 21.36-3.33 40.72z" style="mix-blend-mode:screen" fill="#fff" opacity=".32"/>
        <ellipse cx="158.37" cy="270.22" rx="6.24" ry="4.34" transform="rotate(-67.37 158.355 270.207)" style="mix-blend-mode:screen" fill="#fff" opacity=".32"/>
        <path d="M351.58 124.85c7.75 1.33 15.23-5.6 5.52-12.63s-24.29-7-35.15 2.21a25.19 25.19 0 0 0-9.13 23.41s9.01-18.11 38.76-12.99z" style="mix-blend-mode:hard-light" fill="url(#f)"/>
        <path d="M381.15 140.72c-6-3.05-7.69-11.67 2.64-11.56s20.36 7.61 23.2 19.5a21.69 21.69 0 0 1-5.66 20.88s3.03-17.15-20.18-28.82z" style="mix-blend-mode:hard-light" fill="url(#B)"/>
        <path d="M360.07 178.17c-.6.71-4.6 9.69 3.1 21.85s15.22 19.56 20.87 18.47 10.33-6.83 12-19.15c.93-6.8-.66-19.57-11.6-25.21-6.73-3.48-17.44-4.13-24.37 4.04z" fill="#fff"/>
        <path d="M389 199.3c-1.31 7.27-8.49 14-16.47 12.56s-13.72-10.47-12.42-17.74 8.83-12 16.8-10.57S390.26 192 389 199.3z" fill="url(#C)"/>
        <path d="M370.3 208.49a13.4 13.4 0 1 1 15.4-10.85 13.33 13.33 0 0 1-15.4 10.85z" fill="#1c194a"/>
        <ellipse cx="372.44" cy="196.34" rx="11.11" ry="10.98" transform="rotate(-79.84 372.425 196.339)" fill="url(#D)"/>
        <ellipse cx="369.18" cy="189.87" rx="2.81" ry="2.77" transform="rotate(-79.84 369.168 189.875)" fill="#fff"/>
        <ellipse cx="379.86" cy="198.99" rx="2.33" ry="2.31" transform="rotate(-79.84 379.852 198.997)" fill="#8284bf"/>
        <ellipse cx="372.75" cy="198.48" rx="7.55" ry="7.47" transform="rotate(-79.84 372.737 198.48)" fill="#1f5c90"/>
        <ellipse cx="370.9" cy="197.63" rx="6.77" ry="6.69" transform="rotate(-79.84 370.886 197.632)"/>
        <path d="M365.56 209.92c9.91 10.45 18.48 8.57 18.48 8.57a14 14 0 0 1-7.04-2.19c-3.76-2.25-7.81-7.27-11.65-13.33a47.45 47.45 0 0 1-5.46-14.52 41 41 0 0 1-.49-9.23 18.7 18.7 0 0 0-1.8 7.5c-.38 6.97 2.02 16.93 7.96 23.2z" fill="#806fa5"/>
        <path d="M289.78 197.82a2.12 2.12 0 0 1 .75-1.06c.77-.53 2.4-1.14 5.48-.3 4.76 1.3 8.66-1.73 3.47-3.46s-13.36-2.71-18.18 1.67c-.59.55-5.62 6.93 1.74 5.25 3.46-1.3.54 16.82 9.19 31.53s25 27 55.32 30c20.42 2.05 30.44-1.21 34.27-2.92a2.25 2.25 0 0 0 .83-3.5l-1.22-1.49c-3.63-.82-17.06 4.36-27.44 3.91-20.12-.86-41.75-6-55.6-24.23-12.45-16.33-9.62-32.49-8.61-35.4z" fill="#1c194a"/>
        <path d="M252.33 208.49c-1.25-.42-19.13-7.33-35.08 6.7-7.72 6.79-16 31-11.47 50.38 4.78 20.57 19.49 37.25 33.8 44.64 27.74 14.35 44 7.34 46.87 2.87s2.23-11.16-3.82-11.48-15.63 3.51-20.73-.6-11.8-16.27-4.78-41.46 7.65-46.9-4.79-51.05z" stroke="#fff" stroke-miterlimit="10" stroke-width=".5" fill="url(#E)"/>
        <path d="M269.07 318.66a12.06 12.06 0 0 0-1.59.24c10.64.51 17.52-2.94 19.21-5.58 2.87-4.46 2.23-11.16-3.83-11.48s-15.62 3.51-20.72-.63-11.8-16.27-4.79-41.46c4-14.39 5.59-30.15 4.19-39.64-1.74 4.54-3.54 15.88-6.34 22.26-6 13.63-10.85 20.16-8.61 38.51 2.39 19.61 14.83 23.91 24.64 27.26s5.02 9.33-2.16 10.52z" fill="#fff"/>
        <ellipse cx="228.03" cy="221.66" rx="5.98" ry="5.26" transform="rotate(-62.19 228.024 221.653)" fill="#fff"/>
        <ellipse cx="218.49" cy="236.51" rx="3.47" ry="2.99" transform="rotate(-85.58 218.507 236.51)" fill="#fff"/>
        <path d="M340.36 167c7.52 7.14 2.18 13.49.88 12.63a67.61 67.61 0 0 0-17.95-8.63c-8.61-2.47-16.69-1.33-18.19-4-1-1.71 1.83-3.24 6.28-4.17 8.53-1.75 23.13-1.35 28.98 4.17z" opacity=".25" fill="url(#F)"/>
        <path d="M342.31 179.59s-12.55-15.59-31.15-15.15-7.57 3.9 4.32 6.49c4.25.93 26.83 8.66 26.83 8.66z" fill="#442c6b"/>
        <ellipse cx="351.7" cy="237.92" rx="5.3" ry="4.11" transform="rotate(-35.78 351.725 237.93)" style="mix-blend-mode:screen" fill="#606262"/>
        <circle cx="344.02" cy="232.03" r="2.52" style="mix-blend-mode:screen" fill="#606262"/>
        <path d="M285.85 190.4s6.49-5 12.11-1.51 7.88 4.41 8.65 4.32c1.84-.21 2.82-4-4-7.78-4.78-2.66-11.35-4.33-17.63 5.4M299.26 230.85s9.09 12.77 28.12 19.91 31.49 5.38 39.06 4.08 14.3-3.86 15.9-1.94c2.86 3.4 1.94 4.78 1.94 4.78s8.22-4 4.32-7.36c-2.93-2.52-12.11-1.94-17.3.22s-15.8 4.11-29 2-30.06-9.79-43.04-21.69z" fill="#fff" opacity=".4"/>
        <g fill="#fff">
          <path d="M220.54 391.62c6.18 6.51 1.61 10.62.13 15.17a29.46 29.46 0 0 0 4.9-.57c8.08-3.76 15.45-19.74-7.93-27.55-8.26-2.77-14-2.91-18.61-4.76 10.32 4.56 13.77 9.54 21.51 17.71zM235.55 388.79c.65-.22.56-.2 0 0z" opacity=".6"/>
        </g>
        <path d="M311.81 258.33c18.89 10.26 35.34 10.59 42.31 10.12a2.25 2.25 0 0 1 1.88 3.7c-2.72 3.25-9.82 6.34-28.73 2.46-18.17-3.73-40.56-29.91-15.46-16.28z" opacity=".25" fill="url(#G)"/>
        <ellipse cx="393.25" cy="314.37" rx="5.76" ry="4.32" transform="rotate(-60 393.258 314.378)" fill="#fff" opacity=".6"/>
        <ellipse cx="383.79" cy="326.05" rx="4.64" ry="4" transform="rotate(-39.88 383.844 326.064)" fill="#fff" opacity=".6"/>
      </g>
    </g>
  </g>
</svg>