<?xml version="1.0" encoding="utf-8"?>
<svg xmlns="http://www.w3.org/2000/svg" xmlns:xlink="http://www.w3.org/1999/xlink" style="margin: auto; background: rgb(41, 140, 212); display: block; z-index: 1; position: relative; shape-rendering: auto;" width="350" height="172" preserveAspectRatio="xMidYMid" viewBox="0 0 350 172">
<g transform="translate(175,86) scale(1,1) translate(-175,-86)"><g transform="translate(175 86)"><g><path d="M0 0L262.5 0 L246.66931295630096 89.78028762298804 Z" fill="#2e93dd"></path><path d="M0 0L201.08666631873172 168.73174754271656 L131.25000000000003 227.33166849341512 Z" fill="#2e93dd"></path><path d="M0 0L45.58264663756923 258.5120351657046 L-45.582646637569205 258.5120351657046 Z" fill="#2e93dd"></path><path d="M0 0L-131.24999999999994 227.33166849341515 L-201.0866663187317 168.73174754271662 Z" fill="#2e93dd"></path><path d="M0 0L-246.66931295630093 89.78028762298808 L-262.5 3.214697847761802e-14 Z" fill="#2e93dd"></path><path d="M0 0L-246.66931295630096 -89.78028762298803 L-201.08666631873183 -168.73174754271648 Z" fill="#2e93dd"></path><path d="M0 0L-131.2500000000001 -227.3316684934151 L-45.58264663756921 -258.5120351657046 Z" fill="#2e93dd"></path><path d="M0 0L45.58264663756912 -258.5120351657046 L131.24999999999983 -227.33166849341524 Z" fill="#2e93dd"></path><path d="M0 0L201.08666631873166 -168.73174754271665 L246.66931295630096 -89.78028762298801 Z" fill="#2e93dd"></path><circle cx="0" cy="0" r="55.04" fill="#2e93dd"></circle><animateTransform attributeName="transform" type="rotate" values="0 0 0;80 0 0" keyTimes="0;1" dur="2s" repeatCount="indefinite"></animateTransform>
</g>
</g></g>
</svg>